G04*
G04 #@! TF.GenerationSoftware,Altium Limited,Altium Designer,25.5.2 (35)*
G04*
G04 Layer_Color=128*
%FSLAX25Y25*%
%MOIN*%
G70*
G04*
G04 #@! TF.SameCoordinates,3A6C04F0-8456-4D88-A865-9B6E00D0E649*
G04*
G04*
G04 #@! TF.FilePolarity,Positive*
G04*
G01*
G75*
%ADD23R,0.03937X0.05500*%
%ADD60R,0.02717X0.06181*%
%ADD61R,0.09449X0.03937*%
%ADD62R,0.06000X0.06000*%
%ADD63R,0.05000X0.05500*%
%ADD65R,0.14724X0.04016*%
%ADD66R,0.09449X0.12992*%
G36*
X355909Y222642D02*
X350870D01*
Y228114D01*
X355909D01*
Y222642D01*
D02*
G37*
G36*
X347484D02*
X342445D01*
Y228114D01*
X347484D01*
Y222642D01*
D02*
G37*
G36*
X339059D02*
X334020D01*
Y228114D01*
X339059D01*
Y222642D01*
D02*
G37*
G36*
X330634D02*
X325594D01*
Y228114D01*
X330634D01*
Y222642D01*
D02*
G37*
G36*
X355909Y214453D02*
X350870D01*
Y219925D01*
X355909D01*
Y214453D01*
D02*
G37*
G36*
X347484D02*
X342445D01*
Y219925D01*
X347484D01*
Y214453D01*
D02*
G37*
G36*
X339059D02*
X334020D01*
Y219925D01*
X339059D01*
Y214453D01*
D02*
G37*
G36*
X330634D02*
X325594D01*
Y219925D01*
X330634D01*
Y214453D01*
D02*
G37*
G36*
X355909Y206264D02*
X350870D01*
Y211736D01*
X355909D01*
Y206264D01*
D02*
G37*
G36*
X347484D02*
X342445D01*
Y211736D01*
X347484D01*
Y206264D01*
D02*
G37*
G36*
X339059D02*
X334020D01*
Y211736D01*
X339059D01*
Y206264D01*
D02*
G37*
G36*
X330634D02*
X325594D01*
Y211736D01*
X330634D01*
Y206264D01*
D02*
G37*
G36*
X355909Y198075D02*
X350870D01*
Y203547D01*
X355909D01*
Y198075D01*
D02*
G37*
G36*
X347484D02*
X342445D01*
Y203547D01*
X347484D01*
Y198075D01*
D02*
G37*
G36*
X339059D02*
X334020D01*
Y203547D01*
X339059D01*
Y198075D01*
D02*
G37*
G36*
X330634D02*
X325594D01*
Y203547D01*
X330634D01*
Y198075D01*
D02*
G37*
G36*
X355909Y189886D02*
X350870D01*
Y195358D01*
X355909D01*
Y189886D01*
D02*
G37*
G36*
X347484D02*
X342445D01*
Y195358D01*
X347484D01*
Y189886D01*
D02*
G37*
G36*
X339059D02*
X334020D01*
Y195358D01*
X339059D01*
Y189886D01*
D02*
G37*
G36*
X330634D02*
X325594D01*
Y195358D01*
X330634D01*
Y189886D01*
D02*
G37*
D23*
X404500Y167500D02*
D03*
X413500D02*
D03*
X413500Y177000D02*
D03*
X404500D02*
D03*
D60*
X62587Y86551D02*
D03*
X55500Y71000D02*
D03*
Y86551D02*
D03*
X62587Y71000D02*
D03*
X42543Y125776D02*
D03*
X27000Y165051D02*
D03*
X41043Y267724D02*
D03*
X33957D02*
D03*
X41043Y283276D02*
D03*
X33957D02*
D03*
X42543Y110224D02*
D03*
X27000Y149500D02*
D03*
X62543Y307224D02*
D03*
X19291Y189075D02*
D03*
X27043Y228224D02*
D03*
X55457Y322776D02*
D03*
X12205Y204626D02*
D03*
X19957Y243776D02*
D03*
X35457Y125776D02*
D03*
X19913Y165051D02*
D03*
X12205Y189075D02*
D03*
X19291Y204626D02*
D03*
X35457Y110224D02*
D03*
X19913Y149500D02*
D03*
X19957Y228224D02*
D03*
X27043Y243776D02*
D03*
X55457Y307224D02*
D03*
X62543Y322776D02*
D03*
D61*
X352917Y272555D02*
D03*
Y263500D02*
D03*
Y254445D02*
D03*
D62*
X382000Y263500D02*
D03*
Y254500D02*
D03*
X368000Y263500D02*
D03*
Y254500D02*
D03*
D63*
X374000Y179500D02*
D03*
X375000Y238500D02*
D03*
X384000D02*
D03*
X383000Y179500D02*
D03*
D65*
X381736Y219000D02*
D03*
Y199000D02*
D03*
D66*
X330083Y263500D02*
D03*
M02*
