M48
;Layer_Color=9474304
;FILE_FORMAT=2:4
INCH,TZ
;TYPE=PLATED
T01F00S00C0.0079
T02F00S00C0.0118
T03F00S00C0.0157
T04F00S00C0.0315
T05F00S00C0.0394
T06F00S00C0.0402
T07F00S00C0.0591
T08F00S00C0.0787
T09F00S00C0.0906
%
T01
X42921Y2600
X42771Y3000
X42921Y3400
X43321Y3600
X43721Y3450
X43923Y3000
X43721Y2600
X43371Y2450
X49950Y2600
X49800Y3000
X49950Y3400
X50350Y3600
X50750Y3450
X50952Y3000
X50750Y2600
X50400Y2450
X50338Y35750
X49938Y35900
X49736Y36350
X49938Y36750
X50738
X50888Y36350
X50738Y35950
X43709
X43859Y36350
X43709Y36750
X42909
X42707Y36350
X42909Y35900
X43309Y35750
X43259Y36900
X50288
T02
X40450Y12850
X40300Y13250
X40450Y13650
X40900Y13850
X41350Y13650
X41500Y13250
X41350Y12850
X40900Y12650
X30200Y12950
X30350Y13350
X30200Y13750
X29750Y13950
X29300Y13750
X29150Y13350
X29300Y12950
X29750Y12750
X29800Y25350
X30250Y25550
X30400Y25950
X30250Y26350
X29800Y26550
X29350Y26350
X29200Y25950
X29350Y25550
X40450
X40300Y25950
X40450Y26350
X40900Y26550
X41350Y26350
X41500Y25950
X41350Y25550
X40900Y25350
T03
X38250Y12550
X31350Y20900
X7750Y7250
X6350Y6533
X5450Y9550
X4350Y10300
X3450Y13450
X2900Y14200
X2700Y17200
X2050Y18050
X1950Y21200
X1983Y22034
X4050Y23000
X2700Y25100
X3400Y26000
X4100Y29050
X5550Y29850
X7250Y32450
X39600Y27200
X46850Y22550
Y21800
Y21250
X48400Y21550
T04
X41339Y6300
X42339
X42250Y33150
X41250
T05
X36600Y1400
X37584
X38568
T06
X43250Y9700
Y10700
Y11700
Y12700
Y13700
Y14700
Y15700
Y16700
Y17700
Y18700
Y19700
Y20700
X49250
Y19700
Y18700
Y17700
Y16700
Y15700
Y14700
Y13700
Y12700
Y11700
Y10700
Y9700
Y21700
Y22700
Y23700
Y24700
Y25700
Y26700
Y27700
Y28700
X43250
Y27700
Y26700
Y25700
Y24700
Y23700
Y22700
Y21700
T07
X32376Y4332
X33650Y5550
T08
X7500Y17600
Y21537
T09
X43342Y3000
X50371
X40900Y13250
X29750Y13350
X29800Y25950
X40900
X43288Y36350
X50317
M30
