G04*
G04 #@! TF.GenerationSoftware,Altium Limited,Altium Designer,25.5.2 (35)*
G04*
G04 Layer_Color=65535*
%FSLAX25Y25*%
%MOIN*%
G70*
G04*
G04 #@! TF.SameCoordinates,3A6C04F0-8456-4D88-A865-9B6E00D0E649*
G04*
G04*
G04 #@! TF.FilePolarity,Positive*
G04*
G01*
G75*
%ADD10C,0.01000*%
%ADD11C,0.00984*%
%ADD12C,0.00787*%
%ADD13C,0.00000*%
%ADD14C,0.00500*%
%ADD15C,0.00400*%
%ADD16C,0.00800*%
%ADD17C,0.00500*%
%ADD18C,0.02500*%
%ADD19R,0.08366X0.21654*%
%ADD20R,0.05000X0.10000*%
G36*
X142560Y212320D02*
X142421D01*
Y212390D01*
X142282D01*
Y212459D01*
X142213D01*
Y212529D01*
X142074D01*
Y212598D01*
X142004D01*
Y212668D01*
X141865D01*
Y212737D01*
X141726D01*
Y212807D01*
X141587D01*
Y212876D01*
X141518D01*
Y212946D01*
X141379D01*
Y213015D01*
X141240D01*
Y213085D01*
X141101D01*
Y213154D01*
X141032D01*
Y213224D01*
X140893D01*
Y213293D01*
X140754D01*
Y213362D01*
X140615D01*
Y213432D01*
X140476D01*
Y213501D01*
X140337D01*
Y213571D01*
X140198D01*
Y213640D01*
X140059D01*
Y213710D01*
X139920D01*
Y213779D01*
X139781D01*
Y213849D01*
X139642D01*
Y213918D01*
X139503D01*
Y213988D01*
X139364D01*
Y214057D01*
X139156D01*
Y214127D01*
X139017D01*
Y214196D01*
X138878D01*
Y214266D01*
X138669D01*
Y214335D01*
X138530D01*
Y214405D01*
X138391D01*
Y214474D01*
X138183D01*
Y214544D01*
X137975D01*
Y214613D01*
X137836D01*
Y214683D01*
X137627D01*
Y214752D01*
X137419D01*
Y214821D01*
X137280D01*
Y214891D01*
X137071D01*
Y214960D01*
X136863D01*
Y215030D01*
X136654D01*
Y215099D01*
X136377D01*
Y215169D01*
X136168D01*
Y215238D01*
X135960D01*
Y215308D01*
X135682D01*
Y215377D01*
X135473D01*
Y215447D01*
X135196D01*
Y215516D01*
X134987D01*
Y215586D01*
X134709D01*
Y215655D01*
X134362D01*
Y215725D01*
X134014D01*
Y215794D01*
X133737D01*
Y215864D01*
X133389D01*
Y215933D01*
X132972D01*
Y216003D01*
X132555D01*
Y216072D01*
X132069D01*
Y216142D01*
X131374D01*
Y216211D01*
X130749D01*
Y216281D01*
X129985D01*
Y216350D01*
X127345D01*
Y216281D01*
X126303D01*
Y216211D01*
X125747D01*
Y216142D01*
X125052D01*
Y216072D01*
X124635D01*
Y216003D01*
X124149D01*
Y215933D01*
X123801D01*
Y215864D01*
X123454D01*
Y215794D01*
X123107D01*
Y215725D01*
X122759D01*
Y215655D01*
X122481D01*
Y215586D01*
X122203D01*
Y215516D01*
X121995D01*
Y215447D01*
X121648D01*
Y215377D01*
X121439D01*
Y215308D01*
X121231D01*
Y215238D01*
X120953D01*
Y215169D01*
X120744D01*
Y215099D01*
X120536D01*
Y215030D01*
X120327D01*
Y214960D01*
X120119D01*
Y214891D01*
X119911D01*
Y214821D01*
X119702D01*
Y214752D01*
X119494D01*
Y214683D01*
X119355D01*
Y214613D01*
X119146D01*
Y214544D01*
X119007D01*
Y214474D01*
X118799D01*
Y214405D01*
X118660D01*
Y214335D01*
X118452D01*
Y214266D01*
X118313D01*
Y214196D01*
X118104D01*
Y214127D01*
X117965D01*
Y214057D01*
X117826D01*
Y213988D01*
X117687D01*
Y213918D01*
X117479D01*
Y213849D01*
X117409D01*
Y213779D01*
X117271D01*
Y213710D01*
X117062D01*
Y213640D01*
X116923D01*
Y213571D01*
X116784D01*
Y213501D01*
X116645D01*
Y213432D01*
X116506D01*
Y213362D01*
X116367D01*
Y213293D01*
X116228D01*
Y213224D01*
X116089D01*
Y213154D01*
X116020D01*
Y213085D01*
X115881D01*
Y213015D01*
X115742D01*
Y212946D01*
X115603D01*
Y212876D01*
X115534D01*
Y212807D01*
X115395D01*
Y212737D01*
X115256D01*
Y212668D01*
X115186D01*
Y212598D01*
X115047D01*
Y212529D01*
X114908D01*
Y212459D01*
X114769D01*
Y212390D01*
X114700D01*
Y212320D01*
X114630D01*
Y212251D01*
X114491D01*
Y212181D01*
X114353D01*
Y212112D01*
X114283D01*
Y212042D01*
X114144D01*
Y211973D01*
X114075D01*
Y211903D01*
X113936D01*
Y211834D01*
X113866D01*
Y211765D01*
X113727D01*
Y211695D01*
X113658D01*
Y211626D01*
X113519D01*
Y211556D01*
X113449D01*
Y211487D01*
X113380D01*
Y211417D01*
X113241D01*
Y211348D01*
X113171D01*
Y211278D01*
X113102D01*
Y211209D01*
X112963D01*
Y211139D01*
X112893D01*
Y211070D01*
X112754D01*
Y211000D01*
X112685D01*
Y210931D01*
X112616D01*
Y210861D01*
X112546D01*
Y210792D01*
X112407D01*
Y210722D01*
X112338D01*
Y210653D01*
X112268D01*
Y210583D01*
X112129D01*
Y210514D01*
X112060D01*
Y210444D01*
X111990D01*
Y210375D01*
X111921D01*
Y210306D01*
X111851D01*
Y210236D01*
X111782D01*
Y210167D01*
X111643D01*
Y210097D01*
X111573D01*
Y210028D01*
X111504D01*
Y209958D01*
X111434D01*
Y209889D01*
X111365D01*
Y209819D01*
X111295D01*
Y209750D01*
X111157D01*
Y209680D01*
X111087D01*
Y209611D01*
X111018D01*
Y209541D01*
X110948D01*
Y209472D01*
X110879D01*
Y209402D01*
X110809D01*
Y209333D01*
X110740D01*
Y209263D01*
X110670D01*
Y209194D01*
X110601D01*
Y209124D01*
X110531D01*
Y209055D01*
X110462D01*
Y208985D01*
X110392D01*
Y208916D01*
X110323D01*
Y208846D01*
X110184D01*
Y208777D01*
X110114D01*
Y208707D01*
X110045D01*
Y208638D01*
X109976D01*
Y208499D01*
X109906D01*
Y208430D01*
X109836D01*
Y208360D01*
X109767D01*
Y208291D01*
X109698D01*
Y208221D01*
X109628D01*
Y208152D01*
X109559D01*
Y208082D01*
X109489D01*
Y208013D01*
X109420D01*
Y207943D01*
X109350D01*
Y207874D01*
X109281D01*
Y207804D01*
X109211D01*
Y207735D01*
X109142D01*
Y207665D01*
X109072D01*
Y207526D01*
X109003D01*
Y207457D01*
X108933D01*
Y207387D01*
X108864D01*
Y207318D01*
X108794D01*
Y207248D01*
X108725D01*
Y207179D01*
X108655D01*
Y207109D01*
X108586D01*
Y206971D01*
X108517D01*
Y206901D01*
X108447D01*
Y206832D01*
X108378D01*
Y206762D01*
X108308D01*
Y206693D01*
X108238D01*
Y206554D01*
X108169D01*
Y206484D01*
X108100D01*
Y206415D01*
X108030D01*
Y206345D01*
X107961D01*
Y206206D01*
X107891D01*
Y206137D01*
X107822D01*
Y206067D01*
X107752D01*
Y205928D01*
X107683D01*
Y205859D01*
X107613D01*
Y205789D01*
X107544D01*
Y205650D01*
X107474D01*
Y205581D01*
X107405D01*
Y205442D01*
X107335D01*
Y205373D01*
X107266D01*
Y205303D01*
X107196D01*
Y205164D01*
X107127D01*
Y205095D01*
X107057D01*
Y205025D01*
X106988D01*
Y204886D01*
X106919D01*
Y204747D01*
X106849D01*
Y204678D01*
X106780D01*
Y204539D01*
X106710D01*
Y204469D01*
X106641D01*
Y204330D01*
X106571D01*
Y204261D01*
X106502D01*
Y204122D01*
X106432D01*
Y204053D01*
X106363D01*
Y203914D01*
X106293D01*
Y203775D01*
X106224D01*
Y203705D01*
X106154D01*
Y203566D01*
X106085D01*
Y203427D01*
X106015D01*
Y203358D01*
X105946D01*
Y203219D01*
X105876D01*
Y203080D01*
X105807D01*
Y203010D01*
X105737D01*
Y202871D01*
X105668D01*
Y202732D01*
X105598D01*
Y202594D01*
X105529D01*
Y202455D01*
X105459D01*
Y202316D01*
X105390D01*
Y202177D01*
X105321D01*
Y202038D01*
X105251D01*
Y201968D01*
X105182D01*
Y201760D01*
X105112D01*
Y201621D01*
X105043D01*
Y201482D01*
X104973D01*
Y201343D01*
X104904D01*
Y201204D01*
X104834D01*
Y201065D01*
X104765D01*
Y200926D01*
X104695D01*
Y200718D01*
X104626D01*
Y200579D01*
X104556D01*
Y200440D01*
X104487D01*
Y200231D01*
X104417D01*
Y200092D01*
X104348D01*
Y199884D01*
X104278D01*
Y199745D01*
X104209D01*
Y199537D01*
X104139D01*
Y199398D01*
X104070D01*
Y199189D01*
X104000D01*
Y198981D01*
X103931D01*
Y198772D01*
X103861D01*
Y198633D01*
X103792D01*
Y198425D01*
X103723D01*
Y198216D01*
X103653D01*
Y197939D01*
X103584D01*
Y197730D01*
X103514D01*
Y197452D01*
X103445D01*
Y197244D01*
X103375D01*
Y196966D01*
X103306D01*
Y196688D01*
X103236D01*
Y196410D01*
X103167D01*
Y196202D01*
X103097D01*
Y195854D01*
X103028D01*
Y195507D01*
X102958D01*
Y195229D01*
X102889D01*
Y194812D01*
X102819D01*
Y194465D01*
X102750D01*
Y194048D01*
X102680D01*
Y193423D01*
X102611D01*
Y193006D01*
X102541D01*
Y220449D01*
X142560D01*
Y212320D01*
D02*
G37*
G36*
X100457Y209889D02*
X100527D01*
Y209819D01*
X100457D01*
Y208985D01*
X100388D01*
Y208916D01*
X100179D01*
Y208846D01*
X99971D01*
Y208777D01*
X99762D01*
Y208707D01*
X99623D01*
Y208638D01*
X99554D01*
Y206762D01*
X99693D01*
Y206693D01*
X99832D01*
Y206623D01*
X100040D01*
Y206554D01*
X100179D01*
Y206484D01*
X100388D01*
Y206415D01*
X100457D01*
Y205581D01*
X100527D01*
Y205512D01*
X100318D01*
Y205581D01*
X100110D01*
Y205650D01*
X99971D01*
Y205720D01*
X99762D01*
Y205789D01*
X99623D01*
Y205859D01*
X99415D01*
Y205928D01*
X99207D01*
Y205998D01*
X99068D01*
Y206067D01*
X98929D01*
Y206137D01*
X98720D01*
Y206206D01*
X98512D01*
Y206276D01*
X98373D01*
Y206345D01*
X98164D01*
Y206415D01*
X98026D01*
Y206484D01*
X97817D01*
Y206554D01*
X97609D01*
Y206623D01*
X97470D01*
Y206693D01*
X97261D01*
Y206762D01*
X97122D01*
Y206832D01*
X96914D01*
Y206901D01*
X96705D01*
Y206971D01*
X96566D01*
Y207040D01*
X96358D01*
Y207109D01*
X96219D01*
Y207179D01*
X96011D01*
Y207248D01*
X95872D01*
Y208152D01*
X95941D01*
Y208221D01*
X96080D01*
Y208291D01*
X96289D01*
Y208360D01*
X96497D01*
Y208430D01*
X96636D01*
Y208499D01*
X96844D01*
Y208569D01*
X96983D01*
Y208638D01*
X97192D01*
Y208707D01*
X97331D01*
Y208777D01*
X97539D01*
Y208846D01*
X97748D01*
Y208916D01*
X97887D01*
Y208985D01*
X98095D01*
Y209055D01*
X98303D01*
Y209124D01*
X98442D01*
Y209194D01*
X98651D01*
Y209263D01*
X98859D01*
Y209333D01*
X98998D01*
Y209402D01*
X99207D01*
Y209472D01*
X99345D01*
Y209541D01*
X99554D01*
Y209611D01*
X99762D01*
Y209680D01*
X99901D01*
Y209750D01*
X100110D01*
Y209819D01*
X100249D01*
Y209889D01*
X100388D01*
Y209958D01*
X100457D01*
Y209889D01*
D02*
G37*
G36*
X169574Y202930D02*
X169515D01*
Y202988D01*
X169574D01*
Y202930D01*
D02*
G37*
G36*
X169632Y202812D02*
X169574D01*
Y202871D01*
X169632D01*
Y202812D01*
D02*
G37*
G36*
X169105Y202754D02*
X169046D01*
Y202812D01*
X169105D01*
Y202754D01*
D02*
G37*
G36*
X98651Y204956D02*
X98998D01*
Y204886D01*
X99137D01*
Y204817D01*
X99345D01*
Y204747D01*
X99415D01*
Y204678D01*
X99554D01*
Y204608D01*
X99623D01*
Y204539D01*
X99762D01*
Y204469D01*
X99832D01*
Y204400D01*
X99901D01*
Y204330D01*
X99971D01*
Y204261D01*
X100040D01*
Y204191D01*
X100110D01*
Y204122D01*
X100179D01*
Y203983D01*
X100249D01*
Y203914D01*
X100318D01*
Y203775D01*
X100388D01*
Y203636D01*
X100457D01*
Y203427D01*
X100527D01*
Y203219D01*
X100596D01*
Y202107D01*
X100527D01*
Y201829D01*
X100457D01*
Y201690D01*
X100388D01*
Y201482D01*
X100318D01*
Y201413D01*
X100249D01*
Y201273D01*
X100179D01*
Y201204D01*
X100110D01*
Y201134D01*
X100040D01*
Y200996D01*
X99971D01*
Y200926D01*
X99901D01*
Y200857D01*
X99762D01*
Y200787D01*
X99693D01*
Y200718D01*
X99623D01*
Y200648D01*
X99484D01*
Y200579D01*
X99415D01*
Y200509D01*
X99276D01*
Y200440D01*
X99068D01*
Y200370D01*
X98859D01*
Y200301D01*
X98512D01*
Y200231D01*
X97817D01*
Y200301D01*
X97470D01*
Y200370D01*
X97261D01*
Y200440D01*
X97122D01*
Y200509D01*
X96983D01*
Y200579D01*
X96844D01*
Y200648D01*
X96775D01*
Y200718D01*
X96636D01*
Y200787D01*
X96566D01*
Y200857D01*
X96497D01*
Y200926D01*
X96428D01*
Y200996D01*
X96358D01*
Y201065D01*
X96289D01*
Y201204D01*
X96219D01*
Y201273D01*
X96150D01*
Y201413D01*
X96080D01*
Y201482D01*
X96011D01*
Y201621D01*
X95941D01*
Y201829D01*
X95872D01*
Y202038D01*
X95802D01*
Y202455D01*
X95733D01*
Y202802D01*
X95802D01*
Y203288D01*
X95872D01*
Y203497D01*
X95941D01*
Y203636D01*
X96011D01*
Y203775D01*
X96080D01*
Y203914D01*
X96150D01*
Y203983D01*
X96219D01*
Y204122D01*
X96289D01*
Y204191D01*
X96358D01*
Y204261D01*
X96428D01*
Y204330D01*
X96497D01*
Y204400D01*
X96566D01*
Y204469D01*
X96636D01*
Y204539D01*
X96775D01*
Y204608D01*
X96844D01*
Y204678D01*
X96983D01*
Y204747D01*
X97122D01*
Y204817D01*
X97261D01*
Y204886D01*
X97400D01*
Y204956D01*
X97748D01*
Y205025D01*
X98651D01*
Y204956D01*
D02*
G37*
G36*
X100527Y199328D02*
X100457D01*
Y198633D01*
X100527D01*
Y198564D01*
X100457D01*
Y198494D01*
X100388D01*
Y198564D01*
X98512D01*
Y198494D01*
X98442D01*
Y197035D01*
X98512D01*
Y196966D01*
X100388D01*
Y197035D01*
X100457D01*
Y196966D01*
X100527D01*
Y196897D01*
X100457D01*
Y196202D01*
X100527D01*
Y196132D01*
X100457D01*
Y196063D01*
X95872D01*
Y196966D01*
X97609D01*
Y198564D01*
X95872D01*
Y199398D01*
X100527D01*
Y199328D01*
D02*
G37*
G36*
X100457Y194534D02*
X100527D01*
Y194465D01*
X100457D01*
Y194395D01*
X100388D01*
Y194326D01*
X100249D01*
Y194256D01*
X100179D01*
Y194187D01*
X100110D01*
Y194117D01*
X99971D01*
Y194048D01*
X99901D01*
Y193979D01*
X99762D01*
Y193909D01*
X99693D01*
Y193840D01*
X99554D01*
Y193770D01*
X99484D01*
Y193701D01*
X99345D01*
Y193631D01*
X99276D01*
Y193562D01*
X99137D01*
Y193492D01*
X99068D01*
Y193423D01*
X98929D01*
Y193353D01*
X98859D01*
Y193284D01*
X98790D01*
Y193214D01*
X98651D01*
Y193145D01*
X98512D01*
Y193006D01*
X100527D01*
Y192936D01*
X100457D01*
Y192242D01*
X100527D01*
Y192172D01*
X95872D01*
Y193006D01*
X97400D01*
Y193145D01*
X97261D01*
Y193214D01*
X97192D01*
Y193284D01*
X97053D01*
Y193353D01*
X96983D01*
Y193423D01*
X96914D01*
Y193492D01*
X96844D01*
Y193562D01*
X96705D01*
Y193631D01*
X96636D01*
Y193701D01*
X96566D01*
Y193770D01*
X96497D01*
Y193840D01*
X96358D01*
Y193909D01*
X96289D01*
Y193979D01*
X96219D01*
Y194048D01*
X96080D01*
Y194117D01*
X96011D01*
Y194187D01*
X95941D01*
Y194256D01*
X95872D01*
Y195299D01*
X96011D01*
Y195229D01*
X96080D01*
Y195160D01*
X96150D01*
Y195090D01*
X96289D01*
Y195021D01*
X96358D01*
Y194951D01*
X96428D01*
Y194882D01*
X96566D01*
Y194812D01*
X96636D01*
Y194743D01*
X96705D01*
Y194673D01*
X96775D01*
Y194604D01*
X96914D01*
Y194534D01*
X96983D01*
Y194465D01*
X97053D01*
Y194395D01*
X97122D01*
Y194326D01*
X97261D01*
Y194256D01*
X97331D01*
Y194187D01*
X97400D01*
Y194117D01*
X97539D01*
Y194048D01*
X97609D01*
Y193979D01*
X97678D01*
Y193909D01*
X97748D01*
Y193840D01*
X97887D01*
Y193770D01*
X98026D01*
Y193840D01*
X98095D01*
Y193909D01*
X98234D01*
Y193979D01*
X98303D01*
Y194048D01*
X98442D01*
Y194117D01*
X98512D01*
Y194187D01*
X98651D01*
Y194256D01*
X98720D01*
Y194326D01*
X98790D01*
Y194395D01*
X98929D01*
Y194465D01*
X98998D01*
Y194534D01*
X99137D01*
Y194604D01*
X99207D01*
Y194673D01*
X99345D01*
Y194743D01*
X99415D01*
Y194812D01*
X99554D01*
Y194882D01*
X99623D01*
Y194951D01*
X99693D01*
Y195021D01*
X99832D01*
Y195090D01*
X99901D01*
Y195160D01*
X100040D01*
Y195229D01*
X100110D01*
Y195299D01*
X100249D01*
Y195368D01*
X100318D01*
Y195438D01*
X100388D01*
Y195507D01*
X100457D01*
Y194534D01*
D02*
G37*
G36*
X100527Y187587D02*
X100457D01*
Y186892D01*
X100527D01*
Y186822D01*
X100457D01*
Y186753D01*
X100388D01*
Y186822D01*
X98512D01*
Y186753D01*
X98442D01*
Y185294D01*
X98512D01*
Y185224D01*
X100388D01*
Y185294D01*
X100457D01*
Y185224D01*
X100527D01*
Y185155D01*
X100457D01*
Y184460D01*
X100527D01*
Y184391D01*
X100457D01*
Y184321D01*
X95872D01*
Y185294D01*
X96011D01*
Y185224D01*
X97609D01*
Y186822D01*
X95872D01*
Y187656D01*
X100527D01*
Y187587D01*
D02*
G37*
G36*
X119980Y204330D02*
X120675D01*
Y204261D01*
X121022D01*
Y204191D01*
X121370D01*
Y204122D01*
X121786D01*
Y204053D01*
X121995D01*
Y203983D01*
X122273D01*
Y203914D01*
X122551D01*
Y203844D01*
X122759D01*
Y203775D01*
X123037D01*
Y203705D01*
X123246D01*
Y203636D01*
X123454D01*
Y203566D01*
X123662D01*
Y203497D01*
X123801D01*
Y203427D01*
X124010D01*
Y203358D01*
X124149D01*
Y203288D01*
X124357D01*
Y203219D01*
X124496D01*
Y203149D01*
X124635D01*
Y203080D01*
X124774D01*
Y203010D01*
X124913D01*
Y202941D01*
X125052D01*
Y202871D01*
X125191D01*
Y202802D01*
X125330D01*
Y202732D01*
X125469D01*
Y202663D01*
X125608D01*
Y202594D01*
X125747D01*
Y202524D01*
X125886D01*
Y202455D01*
X126024D01*
Y202385D01*
X126094D01*
Y202316D01*
X126233D01*
Y202246D01*
X126303D01*
Y202177D01*
X126441D01*
Y202107D01*
X126580D01*
Y202038D01*
X126650D01*
Y201968D01*
X126789D01*
Y201899D01*
X126858D01*
Y201829D01*
X126997D01*
Y201760D01*
X127067D01*
Y201690D01*
X127136D01*
Y201621D01*
X127275D01*
Y201551D01*
X127345D01*
Y201482D01*
X127484D01*
Y201413D01*
X127553D01*
Y201343D01*
X127692D01*
Y201273D01*
X127761D01*
Y201204D01*
X127831D01*
Y201134D01*
X127900D01*
Y201065D01*
X127970D01*
Y200996D01*
X128109D01*
Y200926D01*
X128178D01*
Y200857D01*
X128248D01*
Y200787D01*
X128317D01*
Y200718D01*
X128387D01*
Y200648D01*
X128526D01*
Y200579D01*
X128595D01*
Y200509D01*
X128665D01*
Y200440D01*
X128734D01*
Y200370D01*
X128804D01*
Y200301D01*
X128873D01*
Y200231D01*
X128943D01*
Y200162D01*
X129012D01*
Y200092D01*
X129081D01*
Y200023D01*
X129151D01*
Y199953D01*
X129220D01*
Y199884D01*
X129359D01*
Y199814D01*
X129429D01*
Y199676D01*
X129498D01*
Y199606D01*
X129568D01*
Y199537D01*
X129637D01*
Y199467D01*
X129707D01*
Y199398D01*
X129776D01*
Y199328D01*
X129846D01*
Y199259D01*
X129915D01*
Y199189D01*
X129985D01*
Y199120D01*
X130054D01*
Y198981D01*
X130124D01*
Y198911D01*
X130193D01*
Y198842D01*
X130263D01*
Y198772D01*
X130332D01*
Y198703D01*
X130402D01*
Y198633D01*
X130471D01*
Y198494D01*
X130541D01*
Y198425D01*
X130610D01*
Y198355D01*
X130680D01*
Y198286D01*
X130749D01*
Y198147D01*
X130818D01*
Y198078D01*
X130888D01*
Y197939D01*
X130957D01*
Y197869D01*
X131027D01*
Y197800D01*
X131096D01*
Y197661D01*
X131166D01*
Y197591D01*
X131235D01*
Y197452D01*
X131305D01*
Y197383D01*
X131374D01*
Y197313D01*
X131444D01*
Y197174D01*
X131513D01*
Y197105D01*
X131583D01*
Y196966D01*
X131652D01*
Y196827D01*
X131722D01*
Y196757D01*
X131791D01*
Y196619D01*
X131861D01*
Y196480D01*
X131930D01*
Y196410D01*
X132000D01*
Y196271D01*
X132069D01*
Y196132D01*
X132139D01*
Y196063D01*
X132208D01*
Y195924D01*
X132277D01*
Y195785D01*
X132347D01*
Y195646D01*
X132416D01*
Y195507D01*
X132486D01*
Y195368D01*
X132555D01*
Y195229D01*
X132625D01*
Y195090D01*
X132694D01*
Y194951D01*
X132764D01*
Y194812D01*
X132833D01*
Y194673D01*
X132903D01*
Y194534D01*
X132972D01*
Y194326D01*
X133042D01*
Y194187D01*
X133111D01*
Y194048D01*
X133181D01*
Y193840D01*
X133250D01*
Y193631D01*
X133320D01*
Y193492D01*
X133389D01*
Y193353D01*
X133458D01*
Y193145D01*
X133528D01*
Y192936D01*
X133598D01*
Y192658D01*
X133667D01*
Y192519D01*
X133737D01*
Y192311D01*
X133806D01*
Y192033D01*
X133875D01*
Y191825D01*
X133945D01*
Y191477D01*
X134014D01*
Y191269D01*
X134084D01*
Y190991D01*
X134153D01*
Y190644D01*
X134223D01*
Y190366D01*
X134292D01*
Y189949D01*
X134362D01*
Y189532D01*
X134431D01*
Y189115D01*
X134501D01*
Y189046D01*
X134431D01*
Y188907D01*
X134501D01*
Y188420D01*
X134570D01*
Y187587D01*
X134640D01*
Y186475D01*
X142560D01*
Y180500D01*
X102541D01*
Y186822D01*
X102611D01*
Y188004D01*
X102680D01*
Y188142D01*
X102611D01*
Y188351D01*
X102680D01*
Y188837D01*
X102750D01*
Y189393D01*
X102819D01*
Y189879D01*
X102889D01*
Y190296D01*
X102958D01*
Y190574D01*
X103028D01*
Y190921D01*
X103097D01*
Y191199D01*
X103167D01*
Y191477D01*
X103236D01*
Y191755D01*
X103306D01*
Y192033D01*
X103375D01*
Y192242D01*
X103445D01*
Y192450D01*
X103514D01*
Y192658D01*
X103584D01*
Y192867D01*
X103653D01*
Y193075D01*
X103723D01*
Y193284D01*
X103792D01*
Y193423D01*
X103861D01*
Y193631D01*
X103931D01*
Y193840D01*
X104000D01*
Y193979D01*
X104070D01*
Y194187D01*
X104139D01*
Y194326D01*
X104209D01*
Y194465D01*
X104278D01*
Y194604D01*
X104348D01*
Y194743D01*
X104417D01*
Y194951D01*
X104487D01*
Y195090D01*
X104556D01*
Y195229D01*
X104626D01*
Y195368D01*
X104695D01*
Y195507D01*
X104765D01*
Y195576D01*
X104834D01*
Y195785D01*
X104904D01*
Y195924D01*
X104973D01*
Y195993D01*
X105043D01*
Y196132D01*
X105112D01*
Y196202D01*
X105182D01*
Y196341D01*
X105251D01*
Y196480D01*
X105321D01*
Y196619D01*
X105390D01*
Y196688D01*
X105459D01*
Y196827D01*
X105529D01*
Y196966D01*
X105598D01*
Y197035D01*
X105668D01*
Y197174D01*
X105737D01*
Y197244D01*
X105807D01*
Y197383D01*
X105876D01*
Y197452D01*
X105946D01*
Y197522D01*
X106015D01*
Y197661D01*
X106085D01*
Y197730D01*
X106154D01*
Y197869D01*
X106224D01*
Y197939D01*
X106293D01*
Y198008D01*
X106363D01*
Y198147D01*
X106432D01*
Y198216D01*
X106502D01*
Y198286D01*
X106571D01*
Y198425D01*
X106641D01*
Y198494D01*
X106710D01*
Y198564D01*
X106780D01*
Y198703D01*
X106849D01*
Y198772D01*
X106919D01*
Y198842D01*
X106988D01*
Y198911D01*
X107057D01*
Y198981D01*
X107127D01*
Y199050D01*
X107196D01*
Y199120D01*
X107266D01*
Y199189D01*
X107335D01*
Y199328D01*
X107405D01*
Y199398D01*
X107474D01*
Y199467D01*
X107544D01*
Y199537D01*
X107613D01*
Y199606D01*
X107683D01*
Y199676D01*
X107752D01*
Y199745D01*
X107822D01*
Y199814D01*
X107891D01*
Y199884D01*
X107961D01*
Y199953D01*
X108030D01*
Y200023D01*
X108100D01*
Y200092D01*
X108169D01*
Y200162D01*
X108238D01*
Y200231D01*
X108308D01*
Y200301D01*
X108378D01*
Y200370D01*
X108447D01*
Y200440D01*
X108586D01*
Y200509D01*
X108655D01*
Y200579D01*
X108725D01*
Y200648D01*
X108794D01*
Y200718D01*
X108864D01*
Y200787D01*
X108933D01*
Y200857D01*
X109003D01*
Y200926D01*
X109142D01*
Y200996D01*
X109211D01*
Y201065D01*
X109281D01*
Y201134D01*
X109350D01*
Y201204D01*
X109420D01*
Y201273D01*
X109559D01*
Y201343D01*
X109628D01*
Y201413D01*
X109698D01*
Y201482D01*
X109836D01*
Y201551D01*
X109906D01*
Y201621D01*
X110045D01*
Y201690D01*
X110114D01*
Y201760D01*
X110253D01*
Y201829D01*
X110323D01*
Y201899D01*
X110462D01*
Y201968D01*
X110531D01*
Y202038D01*
X110670D01*
Y202107D01*
X110740D01*
Y202177D01*
X110879D01*
Y202246D01*
X110948D01*
Y202316D01*
X111087D01*
Y202385D01*
X111226D01*
Y202455D01*
X111365D01*
Y202524D01*
X111434D01*
Y202594D01*
X111573D01*
Y202663D01*
X111712D01*
Y202732D01*
X111851D01*
Y202802D01*
X111990D01*
Y202871D01*
X112129D01*
Y202941D01*
X112268D01*
Y203010D01*
X112407D01*
Y203080D01*
X112546D01*
Y203149D01*
X112685D01*
Y203219D01*
X112824D01*
Y203288D01*
X113032D01*
Y203358D01*
X113171D01*
Y203427D01*
X113380D01*
Y203497D01*
X113588D01*
Y203566D01*
X113797D01*
Y203636D01*
X113936D01*
Y203705D01*
X114144D01*
Y203775D01*
X114422D01*
Y203844D01*
X114630D01*
Y203914D01*
X114908D01*
Y203983D01*
X115186D01*
Y204053D01*
X115395D01*
Y204122D01*
X115812D01*
Y204191D01*
X116159D01*
Y204261D01*
X116506D01*
Y204330D01*
X117201D01*
Y204400D01*
X119980D01*
Y204330D01*
D02*
G37*
G36*
X99762Y183557D02*
X99832D01*
Y183487D01*
X99901D01*
Y183418D01*
X99971D01*
Y183279D01*
X100040D01*
Y183210D01*
X100110D01*
Y183140D01*
X100179D01*
Y183001D01*
X100249D01*
Y182932D01*
X100318D01*
Y182793D01*
X100388D01*
Y182654D01*
X100457D01*
Y182445D01*
X100527D01*
Y182167D01*
X100596D01*
Y180986D01*
X100527D01*
Y180708D01*
X100457D01*
Y180570D01*
X100388D01*
Y180430D01*
X100318D01*
Y180292D01*
X100249D01*
Y180153D01*
X100179D01*
Y180083D01*
X100110D01*
Y179944D01*
X100040D01*
Y179875D01*
X99971D01*
Y179805D01*
X99901D01*
Y179736D01*
X99832D01*
Y179666D01*
X99693D01*
Y179597D01*
X99623D01*
Y179527D01*
X99484D01*
Y179458D01*
X99415D01*
Y179388D01*
X99207D01*
Y179319D01*
X99068D01*
Y179249D01*
X98790D01*
Y179180D01*
X97609D01*
Y179249D01*
X97331D01*
Y179319D01*
X97192D01*
Y179388D01*
X96983D01*
Y179458D01*
X96914D01*
Y179527D01*
X96775D01*
Y179597D01*
X96705D01*
Y179666D01*
X96636D01*
Y179736D01*
X96497D01*
Y179805D01*
X96428D01*
Y179875D01*
X96358D01*
Y180014D01*
X96289D01*
Y180083D01*
X96219D01*
Y180153D01*
X96150D01*
Y180292D01*
X96080D01*
Y180430D01*
X96011D01*
Y180570D01*
X95941D01*
Y180778D01*
X95872D01*
Y180986D01*
X95802D01*
Y181403D01*
X95733D01*
Y181820D01*
X95802D01*
Y182237D01*
X95872D01*
Y182445D01*
X95941D01*
Y182654D01*
X96011D01*
Y182793D01*
X96080D01*
Y182932D01*
X96150D01*
Y183071D01*
X96219D01*
Y183140D01*
X96289D01*
Y183279D01*
X96358D01*
Y183349D01*
X96428D01*
Y183418D01*
X96497D01*
Y183487D01*
X96566D01*
Y183557D01*
X96636D01*
Y183626D01*
X96705D01*
Y183557D01*
X96775D01*
Y183487D01*
X96844D01*
Y183418D01*
X96914D01*
Y183349D01*
X96983D01*
Y183279D01*
X97053D01*
Y183210D01*
X97122D01*
Y183140D01*
X97192D01*
Y183071D01*
X97261D01*
Y182932D01*
X97192D01*
Y182862D01*
X97122D01*
Y182793D01*
X97053D01*
Y182723D01*
X96983D01*
Y182584D01*
X96914D01*
Y182515D01*
X96844D01*
Y182376D01*
X96775D01*
Y182237D01*
X96705D01*
Y182028D01*
X96636D01*
Y181195D01*
X96705D01*
Y180986D01*
X96775D01*
Y180847D01*
X96844D01*
Y180708D01*
X96914D01*
Y180639D01*
X96983D01*
Y180570D01*
X97053D01*
Y180500D01*
X97122D01*
Y180430D01*
X97192D01*
Y180361D01*
X97261D01*
Y180292D01*
X97331D01*
Y180222D01*
X97470D01*
Y180153D01*
X97678D01*
Y180083D01*
X97956D01*
Y180014D01*
X98442D01*
Y180083D01*
X98720D01*
Y180153D01*
X98859D01*
Y180222D01*
X98998D01*
Y180292D01*
X99137D01*
Y180361D01*
X99207D01*
Y180430D01*
X99276D01*
Y180500D01*
X99345D01*
Y180570D01*
X99415D01*
Y180639D01*
X99484D01*
Y180778D01*
X99554D01*
Y180847D01*
X99623D01*
Y181056D01*
X99693D01*
Y181334D01*
X99762D01*
Y181889D01*
X99693D01*
Y182167D01*
X99623D01*
Y182376D01*
X99554D01*
Y182445D01*
X99484D01*
Y182584D01*
X99415D01*
Y182654D01*
X99345D01*
Y182723D01*
X99276D01*
Y182793D01*
X99207D01*
Y182932D01*
X99137D01*
Y183071D01*
X99207D01*
Y183140D01*
X99276D01*
Y183210D01*
X99345D01*
Y183279D01*
X99415D01*
Y183349D01*
X99484D01*
Y183418D01*
X99554D01*
Y183487D01*
X99623D01*
Y183557D01*
X99693D01*
Y183626D01*
X99762D01*
Y183557D01*
D02*
G37*
G36*
X92050Y177790D02*
X92259D01*
Y177721D01*
X92467D01*
Y177652D01*
X92606D01*
Y177582D01*
X92745D01*
Y177513D01*
X92815D01*
Y177443D01*
X92954D01*
Y177374D01*
X93023D01*
Y177304D01*
X93093D01*
Y177235D01*
X93162D01*
Y177165D01*
X93232D01*
Y177096D01*
X93301D01*
Y176957D01*
X93371D01*
Y176887D01*
X93440D01*
Y176748D01*
X93510D01*
Y176540D01*
X93579D01*
Y176331D01*
X93648D01*
Y175776D01*
X93718D01*
Y174039D01*
X93648D01*
Y173969D01*
X89132D01*
Y174039D01*
X89063D01*
Y175637D01*
X89132D01*
Y176192D01*
X89202D01*
Y176470D01*
X89271D01*
Y176609D01*
X89341D01*
Y176748D01*
X89410D01*
Y176887D01*
X89480D01*
Y177026D01*
X89549D01*
Y177096D01*
X89619D01*
Y177165D01*
X89688D01*
Y177235D01*
X89758D01*
Y177304D01*
X89827D01*
Y177374D01*
X89897D01*
Y177443D01*
X89966D01*
Y177513D01*
X90105D01*
Y177582D01*
X90244D01*
Y177652D01*
X90383D01*
Y177721D01*
X90592D01*
Y177790D01*
X90869D01*
Y177860D01*
X91912D01*
Y177790D01*
X91981D01*
Y177860D01*
X92050D01*
Y177790D01*
D02*
G37*
G36*
X195059Y221648D02*
X195669D01*
Y221601D01*
X196185D01*
Y221554D01*
X196513D01*
Y221507D01*
X196889D01*
Y221460D01*
X197217D01*
Y221413D01*
X197499D01*
Y221367D01*
X197780D01*
Y221320D01*
X198015D01*
Y221273D01*
X198296D01*
Y221226D01*
X198484D01*
Y221179D01*
X198719D01*
Y221132D01*
X198906D01*
Y221085D01*
X199094D01*
Y221038D01*
X199328D01*
Y220991D01*
X199516D01*
Y220944D01*
X199657D01*
Y220897D01*
X199845D01*
Y220850D01*
X199985D01*
Y220804D01*
X200173D01*
Y220757D01*
X200314D01*
Y220710D01*
X200501D01*
Y220663D01*
X200642D01*
Y220616D01*
X200783D01*
Y220569D01*
X200923D01*
Y220522D01*
X201064D01*
Y220475D01*
X201205D01*
Y220428D01*
X201346D01*
Y220381D01*
X201486D01*
Y220335D01*
X201580D01*
Y220288D01*
X201721D01*
Y220241D01*
X201862D01*
Y220194D01*
X201956D01*
Y220147D01*
X202096D01*
Y220100D01*
X202190D01*
Y220053D01*
X202331D01*
Y220006D01*
X202425D01*
Y219959D01*
X202566D01*
Y219912D01*
X202659D01*
Y219865D01*
X202800D01*
Y219818D01*
X202894D01*
Y219772D01*
X202988D01*
Y219725D01*
X203082D01*
Y219678D01*
X203175D01*
Y219631D01*
X203316D01*
Y219584D01*
X203410D01*
Y219537D01*
X203504D01*
Y219490D01*
X203598D01*
Y219443D01*
X203692D01*
Y219396D01*
X203785D01*
Y219349D01*
X203879D01*
Y219302D01*
X203973D01*
Y219255D01*
X204067D01*
Y219209D01*
X204161D01*
Y219162D01*
X204255D01*
Y219115D01*
X204348D01*
Y219068D01*
X204442D01*
Y219021D01*
X204536D01*
Y218974D01*
X204630D01*
Y218927D01*
X204724D01*
Y218880D01*
X204818D01*
Y218833D01*
X204865D01*
Y218786D01*
X204958D01*
Y218739D01*
X205052D01*
Y218692D01*
X205146D01*
Y218646D01*
X205193D01*
Y218599D01*
X205287D01*
Y218552D01*
X205381D01*
Y218505D01*
X205474D01*
Y218458D01*
X205521D01*
Y218411D01*
X205615D01*
Y218364D01*
X205709D01*
Y218317D01*
X205756D01*
Y218270D01*
X205850D01*
Y218223D01*
X205897D01*
Y218176D01*
X205990D01*
Y218129D01*
X206037D01*
Y218082D01*
X206131D01*
Y218036D01*
X206225D01*
Y217989D01*
X206272D01*
Y217942D01*
X206366D01*
Y217895D01*
X206413D01*
Y217848D01*
X206506D01*
Y217801D01*
X206553D01*
Y217754D01*
X206647D01*
Y217707D01*
X206694D01*
Y217660D01*
X206788D01*
Y217613D01*
X206835D01*
Y217566D01*
X206929D01*
Y217519D01*
X206976D01*
Y217473D01*
X207023D01*
Y217426D01*
X207116D01*
Y217379D01*
X207163D01*
Y217332D01*
X207257D01*
Y217285D01*
X207304D01*
Y217238D01*
X207351D01*
Y217191D01*
X207445D01*
Y217144D01*
X207492D01*
Y217097D01*
X207539D01*
Y217050D01*
X207632D01*
Y217003D01*
X207679D01*
Y216956D01*
X207726D01*
Y216910D01*
X207820D01*
Y216863D01*
X207867D01*
Y216816D01*
X207914D01*
Y216769D01*
X207961D01*
Y216722D01*
X208055D01*
Y216675D01*
X208102D01*
Y216628D01*
X208149D01*
Y216581D01*
X208242D01*
Y216534D01*
X208289D01*
Y216487D01*
X208336D01*
Y216441D01*
X208383D01*
Y216394D01*
X208477D01*
Y216347D01*
X208524D01*
Y216300D01*
X208571D01*
Y216253D01*
X208618D01*
Y216206D01*
X208665D01*
Y216159D01*
X208712D01*
Y216112D01*
X208758D01*
Y216065D01*
X208852D01*
Y216018D01*
X208899D01*
Y215971D01*
X208946D01*
Y215924D01*
X208993D01*
Y215878D01*
X209040D01*
Y215831D01*
X209087D01*
Y215784D01*
X209134D01*
Y215737D01*
X209228D01*
Y215690D01*
X209275D01*
Y215643D01*
X209321D01*
Y215596D01*
X209368D01*
Y215549D01*
X209415D01*
Y215502D01*
X209462D01*
Y215455D01*
X209509D01*
Y215408D01*
X209556D01*
Y215361D01*
X209603D01*
Y215315D01*
X209650D01*
Y215268D01*
X209697D01*
Y215221D01*
X209744D01*
Y215174D01*
X209791D01*
Y215127D01*
X209838D01*
Y215080D01*
X209884D01*
Y215033D01*
X209931D01*
Y214986D01*
X209978D01*
Y214939D01*
X210025D01*
Y214892D01*
X210072D01*
Y214845D01*
X210119D01*
Y214798D01*
X210166D01*
Y214752D01*
X210213D01*
Y214705D01*
X210260D01*
Y214658D01*
X210307D01*
Y214611D01*
X210354D01*
Y214564D01*
X210401D01*
Y214517D01*
X210447D01*
Y214470D01*
X210494D01*
Y214423D01*
X210541D01*
Y214376D01*
X210588D01*
Y214329D01*
X210635D01*
Y214282D01*
X210682D01*
Y214235D01*
X210729D01*
Y214189D01*
X210776D01*
Y214142D01*
X210823D01*
Y214095D01*
X210870D01*
Y214001D01*
X210917D01*
Y213954D01*
X210964D01*
Y213907D01*
X211010D01*
Y213860D01*
X211057D01*
Y213813D01*
X211104D01*
Y213766D01*
X211151D01*
Y213719D01*
X211198D01*
Y213626D01*
X211245D01*
Y213579D01*
X211292D01*
Y213532D01*
X211339D01*
Y213485D01*
X211386D01*
Y213438D01*
X211433D01*
Y213391D01*
X211480D01*
Y213297D01*
X211526D01*
Y213250D01*
X211573D01*
Y213203D01*
X211620D01*
Y213156D01*
X211667D01*
Y213109D01*
X211714D01*
Y213016D01*
X211761D01*
Y212969D01*
X211808D01*
Y212922D01*
X211855D01*
Y212828D01*
X211902D01*
Y212781D01*
X211949D01*
Y212734D01*
X211996D01*
Y212687D01*
X212043D01*
Y212593D01*
X212089D01*
Y212546D01*
X212136D01*
Y212499D01*
X212183D01*
Y212453D01*
X212230D01*
Y212359D01*
X212277D01*
Y212312D01*
X212324D01*
Y212218D01*
X212371D01*
Y212171D01*
X212418D01*
Y212124D01*
X212465D01*
Y212030D01*
X212512D01*
Y211983D01*
X212559D01*
Y211890D01*
X212606D01*
Y211843D01*
X212652D01*
Y211796D01*
X212699D01*
Y211702D01*
X212746D01*
Y211655D01*
X212793D01*
Y211561D01*
X212840D01*
Y211514D01*
X212887D01*
Y211420D01*
X212934D01*
Y211374D01*
X212981D01*
Y211280D01*
X213028D01*
Y211233D01*
X213075D01*
Y211139D01*
X213122D01*
Y211092D01*
X213169D01*
Y210998D01*
X213215D01*
Y210951D01*
X213262D01*
Y210858D01*
X213309D01*
Y210764D01*
X213356D01*
Y210717D01*
X213403D01*
Y210623D01*
X213450D01*
Y210576D01*
X213497D01*
Y210482D01*
X213544D01*
Y210388D01*
X213591D01*
Y210341D01*
X213638D01*
Y210248D01*
X213685D01*
Y210154D01*
X213732D01*
Y210060D01*
X213778D01*
Y210013D01*
X213825D01*
Y209919D01*
X213872D01*
Y209825D01*
X213919D01*
Y209732D01*
X213966D01*
Y209685D01*
X214013D01*
Y209591D01*
X214060D01*
Y209497D01*
X214107D01*
Y209403D01*
X214154D01*
Y209309D01*
X214201D01*
Y209215D01*
X214248D01*
Y209122D01*
X214295D01*
Y209028D01*
X214341D01*
Y208934D01*
X214388D01*
Y208840D01*
X214435D01*
Y208746D01*
X214482D01*
Y208652D01*
X214529D01*
Y208606D01*
X214576D01*
Y208465D01*
X214623D01*
Y208371D01*
X214670D01*
Y208277D01*
X214717D01*
Y208183D01*
X214764D01*
Y208089D01*
X214811D01*
Y207949D01*
X214858D01*
Y207855D01*
X214904D01*
Y207761D01*
X214951D01*
Y207667D01*
X214998D01*
Y207526D01*
X215045D01*
Y207433D01*
X215092D01*
Y207292D01*
X215139D01*
Y207198D01*
X215186D01*
Y207057D01*
X215233D01*
Y206963D01*
X215280D01*
Y206823D01*
X215327D01*
Y206729D01*
X215374D01*
Y206588D01*
X215421D01*
Y206494D01*
X215467D01*
Y206354D01*
X215514D01*
Y206213D01*
X215561D01*
Y206072D01*
X215608D01*
Y205931D01*
X215655D01*
Y205791D01*
X215702D01*
Y205650D01*
X215749D01*
Y205509D01*
X215796D01*
Y205368D01*
X215843D01*
Y205181D01*
X215890D01*
Y205040D01*
X215937D01*
Y204852D01*
X215984D01*
Y204712D01*
X216030D01*
Y204524D01*
X216077D01*
Y204383D01*
X216124D01*
Y204195D01*
X216171D01*
Y204008D01*
X216218D01*
Y203773D01*
X216265D01*
Y203586D01*
X216312D01*
Y203351D01*
X216359D01*
Y203163D01*
X216406D01*
Y202882D01*
X216453D01*
Y202647D01*
X216499D01*
Y202366D01*
X216547D01*
Y202131D01*
X216593D01*
Y201756D01*
X216640D01*
Y201427D01*
X216687D01*
Y201052D01*
X216734D01*
Y200583D01*
X216781D01*
Y199973D01*
X216828D01*
Y197064D01*
X216781D01*
Y196407D01*
X216734D01*
Y195938D01*
X216687D01*
Y195563D01*
X216640D01*
Y195188D01*
X216593D01*
Y194859D01*
X216547D01*
Y194625D01*
X216499D01*
Y194343D01*
X216453D01*
Y194109D01*
X216406D01*
Y193827D01*
X216359D01*
Y193639D01*
X216312D01*
Y193405D01*
X216265D01*
Y193217D01*
X216218D01*
Y192983D01*
X216171D01*
Y192795D01*
X216124D01*
Y192607D01*
X216077D01*
Y192467D01*
X216030D01*
Y192279D01*
X215984D01*
Y192138D01*
X215937D01*
Y191951D01*
X215890D01*
Y191810D01*
X215843D01*
Y191622D01*
X215796D01*
Y191481D01*
X215749D01*
Y191341D01*
X215702D01*
Y191200D01*
X215655D01*
Y191059D01*
X215608D01*
Y190918D01*
X215561D01*
Y190778D01*
X215514D01*
Y190637D01*
X215467D01*
Y190496D01*
X215421D01*
Y190402D01*
X215374D01*
Y190261D01*
X215327D01*
Y190168D01*
X215280D01*
Y190027D01*
X215233D01*
Y189933D01*
X215186D01*
Y189792D01*
X215139D01*
Y189652D01*
X215092D01*
Y189558D01*
X215045D01*
Y189417D01*
X214998D01*
Y189323D01*
X214951D01*
Y189229D01*
X214904D01*
Y189136D01*
X214858D01*
Y189042D01*
X214811D01*
Y188901D01*
X214764D01*
Y188807D01*
X214717D01*
Y188713D01*
X214670D01*
Y188619D01*
X214623D01*
Y188526D01*
X214576D01*
Y188385D01*
X214529D01*
Y188291D01*
X214482D01*
Y188197D01*
X214435D01*
Y188150D01*
X214388D01*
Y188057D01*
X214341D01*
Y187963D01*
X214295D01*
Y187869D01*
X214248D01*
Y187775D01*
X214201D01*
Y187681D01*
X214154D01*
Y187587D01*
X214107D01*
Y187494D01*
X214060D01*
Y187400D01*
X214013D01*
Y187306D01*
X213966D01*
Y187259D01*
X213919D01*
Y187165D01*
X213872D01*
Y187071D01*
X213825D01*
Y186977D01*
X213778D01*
Y186931D01*
X213732D01*
Y186837D01*
X213685D01*
Y186743D01*
X213638D01*
Y186649D01*
X213591D01*
Y186602D01*
X213544D01*
Y186508D01*
X213497D01*
Y186414D01*
X213450D01*
Y186367D01*
X213403D01*
Y186274D01*
X213356D01*
Y186227D01*
X213309D01*
Y186133D01*
X213262D01*
Y186039D01*
X213215D01*
Y185992D01*
X213169D01*
Y185898D01*
X213122D01*
Y185851D01*
X213075D01*
Y185758D01*
X213028D01*
Y185711D01*
X212981D01*
Y185617D01*
X212934D01*
Y185523D01*
X212887D01*
Y185476D01*
X212840D01*
Y185429D01*
X212793D01*
Y185335D01*
X212746D01*
Y185288D01*
X212699D01*
Y185195D01*
X212652D01*
Y185148D01*
X212606D01*
Y185101D01*
X212559D01*
Y185007D01*
X212512D01*
Y184960D01*
X212465D01*
Y184866D01*
X212418D01*
Y184819D01*
X212371D01*
Y184772D01*
X212324D01*
Y184678D01*
X212277D01*
Y184632D01*
X212230D01*
Y184538D01*
X212183D01*
Y184491D01*
X212136D01*
Y184444D01*
X212089D01*
Y184397D01*
X212043D01*
Y184303D01*
X211996D01*
Y184256D01*
X211949D01*
Y184209D01*
X211902D01*
Y184162D01*
X211855D01*
Y184069D01*
X211808D01*
Y184022D01*
X211761D01*
Y183975D01*
X211714D01*
Y183881D01*
X211667D01*
Y183834D01*
X211620D01*
Y183787D01*
X211573D01*
Y183740D01*
X211526D01*
Y183646D01*
X211480D01*
Y183599D01*
X211433D01*
Y183553D01*
X211386D01*
Y183506D01*
X211339D01*
Y183459D01*
X211292D01*
Y183412D01*
X211245D01*
Y183365D01*
X211198D01*
Y183271D01*
X211151D01*
Y183224D01*
X211104D01*
Y183177D01*
X211057D01*
Y183130D01*
X211010D01*
Y183083D01*
X210964D01*
Y183036D01*
X210917D01*
Y182943D01*
X210870D01*
Y182896D01*
X210823D01*
Y182849D01*
X210776D01*
Y182802D01*
X210729D01*
Y182755D01*
X210682D01*
Y182708D01*
X210635D01*
Y182661D01*
X210588D01*
Y182614D01*
X210541D01*
Y182567D01*
X210494D01*
Y182520D01*
X210447D01*
Y182474D01*
X210401D01*
Y182427D01*
X210354D01*
Y182380D01*
X210307D01*
Y182333D01*
X210260D01*
Y182286D01*
X210213D01*
Y182239D01*
X210166D01*
Y182145D01*
X210119D01*
Y182098D01*
X210072D01*
Y182051D01*
X210025D01*
Y182004D01*
X209978D01*
Y181957D01*
X209884D01*
Y181911D01*
X209838D01*
Y181864D01*
X209791D01*
Y181817D01*
X209744D01*
Y181770D01*
X209697D01*
Y181723D01*
X209650D01*
Y181676D01*
X209603D01*
Y181629D01*
X209556D01*
Y181582D01*
X209509D01*
Y181535D01*
X209462D01*
Y181488D01*
X209415D01*
Y181441D01*
X209368D01*
Y181395D01*
X209321D01*
Y181348D01*
X209275D01*
Y181301D01*
X209228D01*
Y181254D01*
X209181D01*
Y181207D01*
X209087D01*
Y181160D01*
X209040D01*
Y181113D01*
X208993D01*
Y181066D01*
X208946D01*
Y181019D01*
X208899D01*
Y180972D01*
X208852D01*
Y180925D01*
X208758D01*
Y180878D01*
X208712D01*
Y180832D01*
X208665D01*
Y180784D01*
X208618D01*
Y180738D01*
X208571D01*
Y180691D01*
X208524D01*
Y180644D01*
X208477D01*
Y180597D01*
X208383D01*
Y180550D01*
X208336D01*
Y180503D01*
X208289D01*
Y180456D01*
X208242D01*
Y180409D01*
X208149D01*
Y180362D01*
X208102D01*
Y180315D01*
X208055D01*
Y180269D01*
X208008D01*
Y180222D01*
X207914D01*
Y180175D01*
X207867D01*
Y180128D01*
X207820D01*
Y180081D01*
X207726D01*
Y180034D01*
X207679D01*
Y179987D01*
X207632D01*
Y179940D01*
X207586D01*
Y179893D01*
X207492D01*
Y179846D01*
X207445D01*
Y179799D01*
X207351D01*
Y179752D01*
X207304D01*
Y179706D01*
X207257D01*
Y179659D01*
X207163D01*
Y179612D01*
X207116D01*
Y179565D01*
X207023D01*
Y179518D01*
X206976D01*
Y179471D01*
X206929D01*
Y179424D01*
X206835D01*
Y179377D01*
X206788D01*
Y179330D01*
X206694D01*
Y179283D01*
X206647D01*
Y179236D01*
X206600D01*
Y179189D01*
X206506D01*
Y179142D01*
X206413D01*
Y179096D01*
X206366D01*
Y179049D01*
X206272D01*
Y179002D01*
X206225D01*
Y178955D01*
X206131D01*
Y178908D01*
X206084D01*
Y178861D01*
X205990D01*
Y178814D01*
X205897D01*
Y178767D01*
X205850D01*
Y178720D01*
X205756D01*
Y178673D01*
X205709D01*
Y178626D01*
X205615D01*
Y178579D01*
X205521D01*
Y178533D01*
X205474D01*
Y178486D01*
X205381D01*
Y178439D01*
X205287D01*
Y178392D01*
X205193D01*
Y178345D01*
X205146D01*
Y178298D01*
X205052D01*
Y178251D01*
X204958D01*
Y178204D01*
X204865D01*
Y178157D01*
X204818D01*
Y178110D01*
X204724D01*
Y178063D01*
X204630D01*
Y178016D01*
X204536D01*
Y177970D01*
X204442D01*
Y177923D01*
X204348D01*
Y177876D01*
X204255D01*
Y177829D01*
X204161D01*
Y177782D01*
X204067D01*
Y177735D01*
X203973D01*
Y177688D01*
X203926D01*
Y177641D01*
X203832D01*
Y177594D01*
X203738D01*
Y177547D01*
X203645D01*
Y177500D01*
X203504D01*
Y177453D01*
X203410D01*
Y177407D01*
X203316D01*
Y177360D01*
X203222D01*
Y177313D01*
X203082D01*
Y177266D01*
X202988D01*
Y177219D01*
X202894D01*
Y177172D01*
X202800D01*
Y177125D01*
X202706D01*
Y177078D01*
X202566D01*
Y177031D01*
X202472D01*
Y176984D01*
X202331D01*
Y176937D01*
X202190D01*
Y176891D01*
X202096D01*
Y176844D01*
X201956D01*
Y176797D01*
X201862D01*
Y176750D01*
X201721D01*
Y176703D01*
X201627D01*
Y176656D01*
X201486D01*
Y176609D01*
X201346D01*
Y176562D01*
X201205D01*
Y176515D01*
X201064D01*
Y176468D01*
X200923D01*
Y176421D01*
X200783D01*
Y176374D01*
X200642D01*
Y176328D01*
X200501D01*
Y176281D01*
X200314D01*
Y176234D01*
X200173D01*
Y176187D01*
X199985D01*
Y176140D01*
X199845D01*
Y176093D01*
X199657D01*
Y176046D01*
X199516D01*
Y175999D01*
X199328D01*
Y175952D01*
X199141D01*
Y175905D01*
X198906D01*
Y175858D01*
X198719D01*
Y175812D01*
X198531D01*
Y175765D01*
X198296D01*
Y175718D01*
X198062D01*
Y175671D01*
X197780D01*
Y175624D01*
X197499D01*
Y175577D01*
X197264D01*
Y175530D01*
X196889D01*
Y175483D01*
X196560D01*
Y175436D01*
X196185D01*
Y175389D01*
X195716D01*
Y175342D01*
X195106D01*
Y175295D01*
X192197D01*
Y175342D01*
X191587D01*
Y175389D01*
X191071D01*
Y175436D01*
X190696D01*
Y175483D01*
X190321D01*
Y175530D01*
X189992D01*
Y175577D01*
X189758D01*
Y175624D01*
X189476D01*
Y175671D01*
X189242D01*
Y175718D01*
X188960D01*
Y175765D01*
X188772D01*
Y175812D01*
X188538D01*
Y175858D01*
X188350D01*
Y175905D01*
X188163D01*
Y175952D01*
X187928D01*
Y175999D01*
X187740D01*
Y176046D01*
X187600D01*
Y176093D01*
X187412D01*
Y176140D01*
X187271D01*
Y176187D01*
X187083D01*
Y176234D01*
X186943D01*
Y176281D01*
X186755D01*
Y176328D01*
X186614D01*
Y176374D01*
X186474D01*
Y176421D01*
X186333D01*
Y176468D01*
X186192D01*
Y176515D01*
X186051D01*
Y176562D01*
X185910D01*
Y176609D01*
X185770D01*
Y176656D01*
X185629D01*
Y176703D01*
X185535D01*
Y176750D01*
X185395D01*
Y176797D01*
X185301D01*
Y176844D01*
X185160D01*
Y176891D01*
X185066D01*
Y176937D01*
X184925D01*
Y176984D01*
X184832D01*
Y177031D01*
X184691D01*
Y177078D01*
X184550D01*
Y177125D01*
X184456D01*
Y177172D01*
X184362D01*
Y177219D01*
X184268D01*
Y177266D01*
X184175D01*
Y177313D01*
X184034D01*
Y177360D01*
X183940D01*
Y177407D01*
X183846D01*
Y177453D01*
X183752D01*
Y177500D01*
X183659D01*
Y177547D01*
X183565D01*
Y177594D01*
X183471D01*
Y177641D01*
X183377D01*
Y177688D01*
X183283D01*
Y177735D01*
X183189D01*
Y177782D01*
X183096D01*
Y177829D01*
X183002D01*
Y177876D01*
X182908D01*
Y177923D01*
X182814D01*
Y177970D01*
X182720D01*
Y178016D01*
X182626D01*
Y178063D01*
X182533D01*
Y178110D01*
X182439D01*
Y178157D01*
X182392D01*
Y178204D01*
X182298D01*
Y178251D01*
X182204D01*
Y178298D01*
X182110D01*
Y178345D01*
X182063D01*
Y178392D01*
X181970D01*
Y178439D01*
X181876D01*
Y178486D01*
X181782D01*
Y178533D01*
X181735D01*
Y178579D01*
X181641D01*
Y178626D01*
X181547D01*
Y178673D01*
X181500D01*
Y178720D01*
X181407D01*
Y178767D01*
X181360D01*
Y178814D01*
X181266D01*
Y178861D01*
X181172D01*
Y178908D01*
X181125D01*
Y178955D01*
X181031D01*
Y179002D01*
X180984D01*
Y179049D01*
X180891D01*
Y179096D01*
X180844D01*
Y179142D01*
X180750D01*
Y179189D01*
X180656D01*
Y179236D01*
X180609D01*
Y179283D01*
X180562D01*
Y179330D01*
X180468D01*
Y179377D01*
X180421D01*
Y179424D01*
X180328D01*
Y179471D01*
X180281D01*
Y179518D01*
X180234D01*
Y179565D01*
X180140D01*
Y179612D01*
X180093D01*
Y179659D01*
X179999D01*
Y179706D01*
X179952D01*
Y179752D01*
X179905D01*
Y179799D01*
X179812D01*
Y179846D01*
X179765D01*
Y179893D01*
X179718D01*
Y179940D01*
X179624D01*
Y179987D01*
X179577D01*
Y180034D01*
X179530D01*
Y180081D01*
X179436D01*
Y180128D01*
X179389D01*
Y180175D01*
X179342D01*
Y180222D01*
X179295D01*
Y180269D01*
X179202D01*
Y180315D01*
X179155D01*
Y180362D01*
X179108D01*
Y180409D01*
X179061D01*
Y180456D01*
X178967D01*
Y180503D01*
X178920D01*
Y180550D01*
X178873D01*
Y180597D01*
X178826D01*
Y180644D01*
X178732D01*
Y180691D01*
X178685D01*
Y180738D01*
X178639D01*
Y180784D01*
X178592D01*
Y180832D01*
X178545D01*
Y180878D01*
X178498D01*
Y180925D01*
X178404D01*
Y180972D01*
X178357D01*
Y181019D01*
X178310D01*
Y181066D01*
X178263D01*
Y181113D01*
X178216D01*
Y181160D01*
X178169D01*
Y181207D01*
X178122D01*
Y181254D01*
X178029D01*
Y181301D01*
X177982D01*
Y181348D01*
X177935D01*
Y181395D01*
X177888D01*
Y181441D01*
X177841D01*
Y181488D01*
X177794D01*
Y181535D01*
X177747D01*
Y181582D01*
X177700D01*
Y181629D01*
X177653D01*
Y181676D01*
X177606D01*
Y181723D01*
X177559D01*
Y181770D01*
X177513D01*
Y181817D01*
X177466D01*
Y181864D01*
X177419D01*
Y181911D01*
X177372D01*
Y181957D01*
X177325D01*
Y182004D01*
X177278D01*
Y182051D01*
X177184D01*
Y182145D01*
X177137D01*
Y182192D01*
X177090D01*
Y182239D01*
X177043D01*
Y182286D01*
X176997D01*
Y182333D01*
X176950D01*
Y182380D01*
X176903D01*
Y182427D01*
X176856D01*
Y182474D01*
X176809D01*
Y182520D01*
X176762D01*
Y182567D01*
X176715D01*
Y182614D01*
X176668D01*
Y182661D01*
X176621D01*
Y182708D01*
X176574D01*
Y182755D01*
X176527D01*
Y182802D01*
X176480D01*
Y182849D01*
X176434D01*
Y182896D01*
X176387D01*
Y182990D01*
X176340D01*
Y183036D01*
X176293D01*
Y183083D01*
X176246D01*
Y183130D01*
X176199D01*
Y183177D01*
X176152D01*
Y183224D01*
X176105D01*
Y183271D01*
X176058D01*
Y183365D01*
X176011D01*
Y183412D01*
X175964D01*
Y183459D01*
X175917D01*
Y183506D01*
X175871D01*
Y183553D01*
X175824D01*
Y183599D01*
X175777D01*
Y183646D01*
X175730D01*
Y183740D01*
X175683D01*
Y183787D01*
X175636D01*
Y183834D01*
X175589D01*
Y183881D01*
X175542D01*
Y183975D01*
X175495D01*
Y184022D01*
X175448D01*
Y184069D01*
X175401D01*
Y184162D01*
X175355D01*
Y184209D01*
X175308D01*
Y184256D01*
X175261D01*
Y184303D01*
X175214D01*
Y184397D01*
X175167D01*
Y184444D01*
X175120D01*
Y184491D01*
X175073D01*
Y184538D01*
X175026D01*
Y184632D01*
X174979D01*
Y184678D01*
X174932D01*
Y184772D01*
X174885D01*
Y184819D01*
X174838D01*
Y184866D01*
X174792D01*
Y184960D01*
X174745D01*
Y185007D01*
X174698D01*
Y185101D01*
X174651D01*
Y185148D01*
X174604D01*
Y185241D01*
X174557D01*
Y185288D01*
X174510D01*
Y185335D01*
X174463D01*
Y185429D01*
X174416D01*
Y185476D01*
X174369D01*
Y185570D01*
X174322D01*
Y185617D01*
X174275D01*
Y185711D01*
X174229D01*
Y185758D01*
X174182D01*
Y185851D01*
X174135D01*
Y185898D01*
X174088D01*
Y185992D01*
X174041D01*
Y186086D01*
X173994D01*
Y186133D01*
X173947D01*
Y186227D01*
X173900D01*
Y186274D01*
X173853D01*
Y186367D01*
X173806D01*
Y186414D01*
X173759D01*
Y186508D01*
X173712D01*
Y186602D01*
X173665D01*
Y186649D01*
X173619D01*
Y186743D01*
X173572D01*
Y186837D01*
X173525D01*
Y186931D01*
X173478D01*
Y186977D01*
X173431D01*
Y187071D01*
X173384D01*
Y187165D01*
X173337D01*
Y187259D01*
X173290D01*
Y187306D01*
X173243D01*
Y187400D01*
X173196D01*
Y187494D01*
X173150D01*
Y187587D01*
X173102D01*
Y187681D01*
X173056D01*
Y187775D01*
X173009D01*
Y187869D01*
X172962D01*
Y187963D01*
X172915D01*
Y188057D01*
X172868D01*
Y188150D01*
X172821D01*
Y188244D01*
X172774D01*
Y188338D01*
X172727D01*
Y188385D01*
X172680D01*
Y188526D01*
X172633D01*
Y188619D01*
X172587D01*
Y188713D01*
X172540D01*
Y188807D01*
X172493D01*
Y188901D01*
X172446D01*
Y189042D01*
X172399D01*
Y189136D01*
X172352D01*
Y189229D01*
X172305D01*
Y189323D01*
X172258D01*
Y189464D01*
X172211D01*
Y189558D01*
X172164D01*
Y189699D01*
X172117D01*
Y189792D01*
X172070D01*
Y189933D01*
X172023D01*
Y190027D01*
X171977D01*
Y190168D01*
X171930D01*
Y190261D01*
X171883D01*
Y190402D01*
X171836D01*
Y190496D01*
X171789D01*
Y190637D01*
X171742D01*
Y190778D01*
X171695D01*
Y190918D01*
X171648D01*
Y191059D01*
X171601D01*
Y191200D01*
X171554D01*
Y191341D01*
X171507D01*
Y191481D01*
X171460D01*
Y191622D01*
X171414D01*
Y191810D01*
X171367D01*
Y191951D01*
X171320D01*
Y192138D01*
X171273D01*
Y192279D01*
X171226D01*
Y192467D01*
X171179D01*
Y192607D01*
X171132D01*
Y192795D01*
X171085D01*
Y193029D01*
X171038D01*
Y193217D01*
X170991D01*
Y193405D01*
X170944D01*
Y193639D01*
X170897D01*
Y193827D01*
X170851D01*
Y194109D01*
X170804D01*
Y194343D01*
X170757D01*
Y194625D01*
X170710D01*
Y194859D01*
X170663D01*
Y195235D01*
X170616D01*
Y195610D01*
X170569D01*
Y195985D01*
X170522D01*
Y196454D01*
X170475D01*
Y197064D01*
X170428D01*
Y199926D01*
X170475D01*
Y200536D01*
X170522D01*
Y201052D01*
X170569D01*
Y201380D01*
X170616D01*
Y201756D01*
X170663D01*
Y202084D01*
X170710D01*
Y202366D01*
X170757D01*
Y202647D01*
X170804D01*
Y202882D01*
X170851D01*
Y203163D01*
X170897D01*
Y203351D01*
X170944D01*
Y203586D01*
X170991D01*
Y203773D01*
X171038D01*
Y203961D01*
X171085D01*
Y204195D01*
X171132D01*
Y204383D01*
X171179D01*
Y204524D01*
X171226D01*
Y204712D01*
X171273D01*
Y204852D01*
X171320D01*
Y205040D01*
X171367D01*
Y205181D01*
X171414D01*
Y205368D01*
X171460D01*
Y205509D01*
X171507D01*
Y205650D01*
X171554D01*
Y205791D01*
X171601D01*
Y205931D01*
X171648D01*
Y206072D01*
X171695D01*
Y206166D01*
X171742D01*
Y206307D01*
X171789D01*
Y206447D01*
X171836D01*
Y206588D01*
X171883D01*
Y206729D01*
X171930D01*
Y206823D01*
X171977D01*
Y206963D01*
X172023D01*
Y207057D01*
X172070D01*
Y207198D01*
X172117D01*
Y207292D01*
X172164D01*
Y207433D01*
X172211D01*
Y207526D01*
X172258D01*
Y207667D01*
X172305D01*
Y207761D01*
X172352D01*
Y207855D01*
X172399D01*
Y207949D01*
X172446D01*
Y208043D01*
X172493D01*
Y208183D01*
X172540D01*
Y208277D01*
X172587D01*
Y208371D01*
X172633D01*
Y208465D01*
X172680D01*
Y208512D01*
Y208559D01*
X172727D01*
Y208652D01*
X172774D01*
Y208746D01*
X172821D01*
Y208840D01*
X172868D01*
Y208934D01*
X172915D01*
Y209028D01*
X172962D01*
Y209122D01*
X173009D01*
Y209215D01*
X173056D01*
Y209309D01*
X173102D01*
Y209403D01*
X173150D01*
Y209497D01*
X173196D01*
Y209591D01*
X173243D01*
Y209685D01*
X173290D01*
Y209732D01*
X173337D01*
Y209825D01*
X173384D01*
Y209919D01*
X173431D01*
Y209966D01*
X173478D01*
Y210060D01*
X173525D01*
Y210154D01*
X173572D01*
Y210248D01*
X173619D01*
Y210295D01*
X173665D01*
Y210388D01*
X173712D01*
Y210482D01*
X173759D01*
Y210576D01*
X173806D01*
Y210623D01*
X173853D01*
Y210717D01*
X173900D01*
Y210764D01*
X173947D01*
Y210858D01*
X173994D01*
Y210904D01*
X174041D01*
Y210998D01*
X174088D01*
Y211092D01*
X174135D01*
Y211139D01*
X174182D01*
Y211233D01*
X174229D01*
Y211280D01*
X174275D01*
Y211374D01*
X174322D01*
Y211420D01*
X174369D01*
Y211514D01*
X174416D01*
Y211561D01*
X174463D01*
Y211655D01*
X174510D01*
Y211702D01*
X174557D01*
Y211749D01*
X174604D01*
Y211843D01*
X174651D01*
Y211890D01*
X174698D01*
Y211983D01*
X174745D01*
Y212030D01*
X174792D01*
Y212124D01*
X174838D01*
Y212171D01*
X174885D01*
Y212218D01*
X174932D01*
Y212312D01*
X174979D01*
Y212359D01*
X175026D01*
Y212406D01*
X175073D01*
Y212499D01*
X175120D01*
Y212546D01*
X175167D01*
Y212593D01*
X175214D01*
Y212687D01*
X175261D01*
Y212734D01*
X175308D01*
Y212781D01*
X175355D01*
Y212828D01*
X175401D01*
Y212922D01*
X175448D01*
Y212969D01*
X175495D01*
Y213016D01*
X175542D01*
Y213063D01*
X175589D01*
Y213156D01*
X175636D01*
Y213203D01*
X175683D01*
Y213250D01*
X175730D01*
Y213297D01*
X175777D01*
Y213391D01*
X175824D01*
Y213438D01*
X175871D01*
Y213485D01*
X175917D01*
Y213532D01*
X175964D01*
Y213579D01*
X176011D01*
Y213626D01*
X176058D01*
Y213672D01*
X176105D01*
Y213766D01*
X176152D01*
Y213813D01*
X176199D01*
Y213860D01*
X176246D01*
Y213907D01*
X176293D01*
Y213954D01*
X176340D01*
Y214001D01*
X176387D01*
Y214095D01*
X176434D01*
Y214142D01*
X176480D01*
Y214189D01*
X176527D01*
Y214235D01*
X176574D01*
Y214282D01*
X176621D01*
Y214329D01*
X176668D01*
Y214376D01*
X176715D01*
Y214423D01*
X176762D01*
Y214470D01*
X176809D01*
Y214517D01*
X176856D01*
Y214564D01*
X176903D01*
Y214611D01*
X176950D01*
Y214658D01*
X176997D01*
Y214705D01*
X177043D01*
Y214752D01*
X177090D01*
Y214798D01*
X177137D01*
Y214845D01*
X177184D01*
Y214892D01*
X177231D01*
Y214939D01*
X177278D01*
Y214986D01*
X177325D01*
Y215033D01*
X177372D01*
Y215080D01*
X177419D01*
Y215127D01*
X177466D01*
Y215174D01*
X177513D01*
Y215221D01*
X177559D01*
Y215268D01*
X177606D01*
Y215315D01*
X177653D01*
Y215361D01*
X177700D01*
Y215408D01*
X177747D01*
Y215455D01*
X177794D01*
Y215502D01*
X177841D01*
Y215549D01*
X177888D01*
Y215596D01*
X177935D01*
Y215643D01*
X177982D01*
Y215690D01*
X178029D01*
Y215737D01*
X178122D01*
Y215784D01*
X178169D01*
Y215831D01*
X178216D01*
Y215878D01*
X178263D01*
Y215924D01*
X178310D01*
Y215971D01*
X178357D01*
Y216018D01*
X178451D01*
Y216065D01*
X178498D01*
Y216112D01*
X178545D01*
Y216159D01*
X178592D01*
Y216206D01*
X178639D01*
Y216253D01*
X178685D01*
Y216300D01*
X178732D01*
Y216347D01*
X178826D01*
Y216394D01*
X178873D01*
Y216441D01*
X178920D01*
Y216487D01*
X178967D01*
Y216534D01*
X179061D01*
Y216581D01*
X179108D01*
Y216628D01*
X179155D01*
Y216675D01*
X179202D01*
Y216722D01*
X179295D01*
Y216769D01*
X179342D01*
Y216816D01*
X179389D01*
Y216863D01*
X179436D01*
Y216910D01*
X179530D01*
Y216956D01*
X179577D01*
Y217003D01*
X179624D01*
Y217050D01*
X179718D01*
Y217097D01*
X179765D01*
Y217144D01*
X179812D01*
Y217191D01*
X179905D01*
Y217238D01*
X179952D01*
Y217285D01*
X180046D01*
Y217332D01*
X180093D01*
Y217379D01*
X180140D01*
Y217426D01*
X180234D01*
Y217473D01*
X180281D01*
Y217519D01*
X180375D01*
Y217566D01*
X180421D01*
Y217613D01*
X180468D01*
Y217660D01*
X180562D01*
Y217707D01*
X180609D01*
Y217754D01*
X180703D01*
Y217801D01*
X180750D01*
Y217848D01*
X180844D01*
Y217895D01*
X180891D01*
Y217942D01*
X180984D01*
Y217989D01*
X181031D01*
Y218036D01*
X181125D01*
Y218082D01*
X181219D01*
Y218129D01*
X181266D01*
Y218176D01*
X181360D01*
Y218223D01*
X181407D01*
Y218270D01*
X181500D01*
Y218317D01*
X181547D01*
Y218364D01*
X181641D01*
Y218411D01*
X181735D01*
Y218458D01*
X181829D01*
Y218505D01*
X181876D01*
Y218552D01*
X181970D01*
Y218599D01*
X182063D01*
Y218646D01*
X182110D01*
Y218692D01*
X182204D01*
Y218739D01*
X182298D01*
Y218786D01*
X182392D01*
Y218833D01*
X182439D01*
Y218880D01*
X182533D01*
Y218927D01*
X182626D01*
Y218974D01*
X182720D01*
Y219021D01*
X182814D01*
Y219068D01*
X182908D01*
Y219115D01*
X183002D01*
Y219162D01*
X183096D01*
Y219209D01*
X183189D01*
Y219255D01*
X183283D01*
Y219302D01*
X183377D01*
Y219349D01*
X183471D01*
Y219396D01*
X183565D01*
Y219443D01*
X183659D01*
Y219490D01*
X183752D01*
Y219537D01*
X183846D01*
Y219584D01*
X183940D01*
Y219631D01*
X184081D01*
Y219678D01*
X184175D01*
Y219725D01*
X184268D01*
Y219772D01*
X184362D01*
Y219818D01*
X184456D01*
Y219865D01*
X184597D01*
Y219912D01*
X184691D01*
Y219959D01*
X184832D01*
Y220006D01*
X184925D01*
Y220053D01*
X185066D01*
Y220100D01*
X185160D01*
Y220147D01*
X185301D01*
Y220194D01*
X185395D01*
Y220241D01*
X185535D01*
Y220288D01*
X185629D01*
Y220335D01*
X185770D01*
Y220381D01*
X185910D01*
Y220428D01*
X186051D01*
Y220475D01*
X186192D01*
Y220522D01*
X186333D01*
Y220569D01*
X186474D01*
Y220616D01*
X186614D01*
Y220663D01*
X186755D01*
Y220710D01*
X186943D01*
Y220757D01*
X187083D01*
Y220804D01*
X187271D01*
Y220850D01*
X187412D01*
Y220897D01*
X187600D01*
Y220944D01*
X187740D01*
Y220991D01*
X187928D01*
Y221038D01*
X188163D01*
Y221085D01*
X188350D01*
Y221132D01*
X188538D01*
Y221179D01*
X188772D01*
Y221226D01*
X188960D01*
Y221273D01*
X189242D01*
Y221320D01*
X189476D01*
Y221367D01*
X189758D01*
Y221413D01*
X190039D01*
Y221460D01*
X190367D01*
Y221507D01*
X190743D01*
Y221554D01*
X191118D01*
Y221601D01*
X191587D01*
Y221648D01*
X192197D01*
Y221695D01*
X195059D01*
Y221648D01*
D02*
G37*
G36*
X124496Y177582D02*
X124357D01*
Y177513D01*
X124288D01*
Y177443D01*
X124218D01*
Y177374D01*
X124149D01*
Y177304D01*
X124079D01*
Y177235D01*
X124010D01*
Y177165D01*
X123940D01*
Y177096D01*
X123801D01*
Y177026D01*
X123732D01*
Y176957D01*
X123662D01*
Y176887D01*
X123593D01*
Y176818D01*
X123523D01*
Y176748D01*
X123454D01*
Y176679D01*
X123384D01*
Y176609D01*
X123315D01*
Y176540D01*
X123176D01*
Y176470D01*
X123107D01*
Y176401D01*
X123037D01*
Y176331D01*
X122968D01*
Y176262D01*
X122898D01*
Y176192D01*
X122829D01*
Y176123D01*
X122690D01*
Y176054D01*
X122620D01*
Y175984D01*
X122551D01*
Y175915D01*
X122481D01*
Y175845D01*
X122412D01*
Y175776D01*
X122342D01*
Y175706D01*
X122273D01*
Y175637D01*
X122203D01*
Y175567D01*
X122064D01*
Y175498D01*
X121995D01*
Y175428D01*
X121925D01*
Y175359D01*
X121856D01*
Y175289D01*
X121786D01*
Y175220D01*
X121717D01*
Y175150D01*
X121578D01*
Y175081D01*
X121509D01*
Y175011D01*
X121439D01*
Y174942D01*
X121370D01*
Y174872D01*
X121300D01*
Y174803D01*
X121231D01*
Y174733D01*
X121092D01*
Y174594D01*
X124496D01*
Y174108D01*
X119841D01*
Y174247D01*
X119911D01*
Y174317D01*
X119980D01*
Y174386D01*
X120050D01*
Y174455D01*
X120119D01*
Y174525D01*
X120258D01*
Y174594D01*
X120327D01*
Y174664D01*
X120397D01*
Y174733D01*
X120466D01*
Y174803D01*
X120536D01*
Y174872D01*
X120605D01*
Y174942D01*
X120744D01*
Y175011D01*
X120814D01*
Y175081D01*
X120883D01*
Y175150D01*
X120953D01*
Y175220D01*
X121022D01*
Y175289D01*
X121092D01*
Y175359D01*
X121161D01*
Y175428D01*
X121300D01*
Y175498D01*
X121370D01*
Y175567D01*
X121439D01*
Y175637D01*
X121509D01*
Y175706D01*
X121578D01*
Y175776D01*
X121648D01*
Y175845D01*
X121786D01*
Y175915D01*
X121856D01*
Y175984D01*
X121925D01*
Y176054D01*
X121995D01*
Y176123D01*
X122064D01*
Y176192D01*
X122134D01*
Y176262D01*
X122273D01*
Y176331D01*
X122342D01*
Y176401D01*
X122412D01*
Y176470D01*
X122481D01*
Y176540D01*
X122551D01*
Y176609D01*
X122620D01*
Y176679D01*
X122690D01*
Y176748D01*
X122759D01*
Y176818D01*
X122898D01*
Y176887D01*
X122968D01*
Y176957D01*
X123037D01*
Y177026D01*
X123107D01*
Y177096D01*
X123176D01*
Y177165D01*
X123246D01*
Y177235D01*
X123315D01*
Y177304D01*
X123176D01*
Y177235D01*
X119911D01*
Y177304D01*
X119841D01*
Y177721D01*
X124496D01*
Y177582D01*
D02*
G37*
G36*
X109072D02*
X109003D01*
Y177513D01*
X108933D01*
Y177443D01*
X108864D01*
Y177374D01*
X108725D01*
Y177304D01*
X108655D01*
Y177235D01*
X108586D01*
Y177165D01*
X108517D01*
Y177096D01*
X108447D01*
Y177026D01*
X108378D01*
Y176957D01*
X108308D01*
Y176887D01*
X108169D01*
Y176818D01*
X108100D01*
Y176748D01*
X108030D01*
Y176679D01*
X107961D01*
Y176609D01*
X107891D01*
Y176540D01*
X107822D01*
Y176470D01*
X107752D01*
Y176401D01*
X107683D01*
Y176331D01*
X107544D01*
Y176262D01*
X107474D01*
Y176192D01*
X107405D01*
Y176123D01*
X107335D01*
Y176054D01*
X107266D01*
Y175984D01*
X107196D01*
Y175915D01*
X107057D01*
Y175845D01*
X106988D01*
Y175776D01*
X106919D01*
Y175706D01*
X106849D01*
Y175637D01*
X106780D01*
Y175567D01*
X106710D01*
Y175498D01*
X106641D01*
Y175428D01*
X106571D01*
Y175359D01*
X106432D01*
Y175289D01*
X106363D01*
Y175220D01*
X106293D01*
Y175150D01*
X106224D01*
Y175081D01*
X106154D01*
Y175011D01*
X106085D01*
Y174942D01*
X105946D01*
Y174872D01*
X105876D01*
Y174803D01*
X105807D01*
Y174733D01*
X105737D01*
Y174664D01*
X105668D01*
Y174594D01*
X109072D01*
Y174108D01*
X104487D01*
Y174317D01*
X104626D01*
Y174386D01*
X104695D01*
Y174455D01*
X104765D01*
Y174525D01*
X104834D01*
Y174594D01*
X104904D01*
Y174664D01*
X105043D01*
Y174733D01*
X105112D01*
Y174803D01*
X105182D01*
Y174872D01*
X105251D01*
Y174942D01*
X105321D01*
Y175011D01*
X105390D01*
Y175081D01*
X105459D01*
Y175150D01*
X105598D01*
Y175220D01*
X105668D01*
Y175289D01*
X105737D01*
Y175359D01*
X105807D01*
Y175428D01*
X105876D01*
Y175498D01*
X105946D01*
Y175567D01*
X106015D01*
Y175637D01*
X106085D01*
Y175706D01*
X106224D01*
Y175776D01*
X106293D01*
Y175845D01*
X106363D01*
Y175915D01*
X106432D01*
Y175984D01*
X106502D01*
Y176054D01*
X106641D01*
Y176123D01*
X106710D01*
Y176192D01*
X106780D01*
Y176262D01*
X106849D01*
Y176331D01*
X106919D01*
Y176401D01*
X106988D01*
Y176470D01*
X107057D01*
Y176540D01*
X107127D01*
Y176609D01*
X107266D01*
Y176679D01*
X107335D01*
Y176748D01*
X107405D01*
Y176818D01*
X107474D01*
Y176887D01*
X107544D01*
Y176957D01*
X107613D01*
Y177026D01*
X107752D01*
Y177096D01*
X107822D01*
Y177165D01*
X107891D01*
Y177304D01*
X107822D01*
Y177235D01*
X104487D01*
Y177721D01*
X109072D01*
Y177582D01*
D02*
G37*
G36*
X130471Y178346D02*
X130749D01*
Y178277D01*
X131027D01*
Y178207D01*
X131166D01*
Y178138D01*
X131305D01*
Y178068D01*
X131444D01*
Y177999D01*
X131513D01*
Y177929D01*
X131652D01*
Y177860D01*
X131722D01*
Y177790D01*
X131791D01*
Y177721D01*
X131861D01*
Y177652D01*
X131930D01*
Y177513D01*
X132000D01*
Y177443D01*
X132069D01*
Y177374D01*
X132139D01*
Y177165D01*
X132208D01*
Y177026D01*
X132277D01*
Y176818D01*
X132347D01*
Y176331D01*
X132416D01*
Y175845D01*
X132347D01*
Y175289D01*
X132277D01*
Y175081D01*
X132208D01*
Y174872D01*
X132139D01*
Y174733D01*
X132069D01*
Y174594D01*
X132000D01*
Y174525D01*
X131930D01*
Y174455D01*
X131861D01*
Y174317D01*
X131791D01*
Y174247D01*
X131722D01*
Y174178D01*
X131652D01*
Y174108D01*
X131583D01*
Y174039D01*
X131513D01*
Y173969D01*
X131374D01*
Y173900D01*
X131305D01*
Y173830D01*
X131166D01*
Y173761D01*
X131096D01*
Y173691D01*
X130957D01*
Y173622D01*
X130749D01*
Y173552D01*
X130471D01*
Y173483D01*
X129498D01*
Y173552D01*
X129220D01*
Y173622D01*
X129012D01*
Y173691D01*
X128873D01*
Y173761D01*
X128734D01*
Y173830D01*
X128665D01*
Y173900D01*
X128526D01*
Y173969D01*
X128456D01*
Y174039D01*
X128387D01*
Y174108D01*
X128317D01*
Y174178D01*
X128248D01*
Y174247D01*
X128178D01*
Y174317D01*
X128109D01*
Y174386D01*
X128039D01*
Y174455D01*
X127970D01*
Y174594D01*
X127900D01*
Y174664D01*
X127831D01*
Y174803D01*
X127761D01*
Y175011D01*
X127692D01*
Y175150D01*
X127622D01*
Y175498D01*
X127553D01*
Y176401D01*
X127622D01*
Y176470D01*
X127553D01*
Y176540D01*
X127622D01*
Y176818D01*
X127692D01*
Y177026D01*
X127761D01*
Y177235D01*
X127831D01*
Y177374D01*
X127900D01*
Y177513D01*
X127970D01*
Y177582D01*
X128039D01*
Y177721D01*
X128109D01*
Y177790D01*
X128178D01*
Y177860D01*
X128248D01*
Y177999D01*
X128317D01*
Y178068D01*
X128387D01*
Y178138D01*
X128456D01*
Y178068D01*
X128526D01*
Y177999D01*
X128595D01*
Y177929D01*
X128665D01*
Y177860D01*
X128734D01*
Y177790D01*
X128804D01*
Y177721D01*
X128734D01*
Y177652D01*
X128665D01*
Y177582D01*
X128595D01*
Y177513D01*
X128526D01*
Y177443D01*
X128456D01*
Y177304D01*
X128387D01*
Y177165D01*
X128317D01*
Y177096D01*
X128248D01*
Y176957D01*
X128178D01*
Y176748D01*
X128109D01*
Y176540D01*
X128039D01*
Y175498D01*
X128109D01*
Y175289D01*
X128178D01*
Y175150D01*
X128248D01*
Y174942D01*
X128317D01*
Y174872D01*
X128387D01*
Y174733D01*
X128456D01*
Y174664D01*
X128526D01*
Y174594D01*
X128595D01*
Y174525D01*
X128665D01*
Y174455D01*
X128734D01*
Y174386D01*
X128804D01*
Y174317D01*
X128943D01*
Y174247D01*
X129012D01*
Y174178D01*
X129151D01*
Y174108D01*
X129290D01*
Y174039D01*
X129568D01*
Y173969D01*
X130332D01*
Y174039D01*
X130610D01*
Y174108D01*
X130749D01*
Y174178D01*
X130888D01*
Y174247D01*
X131027D01*
Y174317D01*
X131096D01*
Y174386D01*
X131166D01*
Y174455D01*
X131305D01*
Y174525D01*
X131374D01*
Y174594D01*
X131444D01*
Y174733D01*
X131513D01*
Y174803D01*
X131583D01*
Y174942D01*
X131652D01*
Y175081D01*
X131722D01*
Y175220D01*
X131791D01*
Y175359D01*
X131861D01*
Y175567D01*
X131930D01*
Y176540D01*
X131861D01*
Y176748D01*
X131791D01*
Y176957D01*
X131722D01*
Y177026D01*
X131652D01*
Y177165D01*
X131583D01*
Y177235D01*
X131513D01*
Y177304D01*
X131444D01*
Y177374D01*
X131374D01*
Y177443D01*
X131305D01*
Y177513D01*
X131235D01*
Y177582D01*
X131166D01*
Y177652D01*
X131027D01*
Y177721D01*
X130888D01*
Y177790D01*
X130749D01*
Y177860D01*
X130541D01*
Y176401D01*
X130054D01*
Y178416D01*
X130471D01*
Y178346D01*
D02*
G37*
G36*
X100527Y177999D02*
X100457D01*
Y176401D01*
X100527D01*
Y176331D01*
X100457D01*
Y176262D01*
X100318D01*
Y176192D01*
X100110D01*
Y176123D01*
X99901D01*
Y176054D01*
X99762D01*
Y175984D01*
X99623D01*
Y175915D01*
X99762D01*
Y175845D01*
X99901D01*
Y175776D01*
X100110D01*
Y175706D01*
X100318D01*
Y175637D01*
X100457D01*
Y175567D01*
X100527D01*
Y175498D01*
X100457D01*
Y173900D01*
X100527D01*
Y173830D01*
X100249D01*
Y173900D01*
X100110D01*
Y173969D01*
X99901D01*
Y174039D01*
X99693D01*
Y174108D01*
X99554D01*
Y174178D01*
X99345D01*
Y174247D01*
X99137D01*
Y174317D01*
X98998D01*
Y174386D01*
X98720D01*
Y174108D01*
X98651D01*
Y173830D01*
X98720D01*
Y173413D01*
X98581D01*
Y173344D01*
X98303D01*
Y173274D01*
X98164D01*
Y173483D01*
X98095D01*
Y174455D01*
X98164D01*
Y174664D01*
X98026D01*
Y174733D01*
X97817D01*
Y174803D01*
X97609D01*
Y174872D01*
X97470D01*
Y174942D01*
X97261D01*
Y175011D01*
X97053D01*
Y175081D01*
X96844D01*
Y175150D01*
X96636D01*
Y175220D01*
X96497D01*
Y175289D01*
X96289D01*
Y175359D01*
X96080D01*
Y175428D01*
X95872D01*
Y175498D01*
X95802D01*
Y175567D01*
X95872D01*
Y176401D01*
X95941D01*
Y176470D01*
X96080D01*
Y176540D01*
X96289D01*
Y176609D01*
X96497D01*
Y176679D01*
X96636D01*
Y176748D01*
X96914D01*
Y176818D01*
X97053D01*
Y176887D01*
X97261D01*
Y176957D01*
X97470D01*
Y177026D01*
X97609D01*
Y177096D01*
X97817D01*
Y177165D01*
X98026D01*
Y177235D01*
X98164D01*
Y177304D01*
X98373D01*
Y177374D01*
X98581D01*
Y177443D01*
X98790D01*
Y177513D01*
X98998D01*
Y177582D01*
X99137D01*
Y177652D01*
X99345D01*
Y177721D01*
X99554D01*
Y177790D01*
X99693D01*
Y177860D01*
X99901D01*
Y177929D01*
X100110D01*
Y177999D01*
X100249D01*
Y178068D01*
X100527D01*
Y177999D01*
D02*
G37*
G36*
X116784Y177652D02*
X116715D01*
Y177582D01*
X116645D01*
Y177513D01*
X116437D01*
Y177443D01*
X116298D01*
Y177374D01*
X116159D01*
Y177304D01*
X116020D01*
Y177235D01*
X115881D01*
Y177165D01*
X115742D01*
Y177096D01*
X115603D01*
Y177026D01*
X115464D01*
Y176957D01*
X115325D01*
Y176887D01*
X115256D01*
Y174942D01*
X115325D01*
Y174872D01*
X115464D01*
Y174803D01*
X115603D01*
Y174733D01*
X115812D01*
Y174664D01*
X115950D01*
Y174594D01*
X116089D01*
Y174525D01*
X116228D01*
Y174455D01*
X116367D01*
Y174386D01*
X116506D01*
Y174317D01*
X116645D01*
Y174247D01*
X116784D01*
Y173691D01*
X116715D01*
Y173761D01*
X116576D01*
Y173830D01*
X116437D01*
Y173900D01*
X116228D01*
Y173969D01*
X116089D01*
Y174039D01*
X115950D01*
Y174108D01*
X115812D01*
Y174178D01*
X115673D01*
Y174247D01*
X115534D01*
Y174317D01*
X115395D01*
Y174386D01*
X115186D01*
Y174455D01*
X115047D01*
Y174525D01*
X114908D01*
Y174594D01*
X114769D01*
Y174664D01*
X114630D01*
Y174733D01*
X114491D01*
Y174803D01*
X114353D01*
Y174872D01*
X114214D01*
Y174942D01*
X114075D01*
Y175011D01*
X113936D01*
Y175081D01*
X113797D01*
Y175150D01*
X113588D01*
Y175220D01*
X113449D01*
Y175289D01*
X113310D01*
Y175359D01*
X113171D01*
Y175428D01*
X113032D01*
Y175498D01*
X112893D01*
Y175567D01*
X112754D01*
Y175637D01*
X112616D01*
Y175706D01*
X112407D01*
Y175776D01*
X112268D01*
Y175845D01*
X112199D01*
Y175915D01*
X112129D01*
Y175984D01*
X112199D01*
Y176054D01*
X112338D01*
Y176123D01*
X112477D01*
Y176192D01*
X112616D01*
Y176262D01*
X112824D01*
Y176331D01*
X112893D01*
Y176401D01*
X113032D01*
Y176470D01*
X113241D01*
Y176540D01*
X113380D01*
Y176609D01*
X113519D01*
Y176679D01*
X113658D01*
Y176748D01*
X113797D01*
Y176818D01*
X113936D01*
Y176887D01*
X114144D01*
Y176957D01*
X114283D01*
Y177026D01*
X114422D01*
Y177096D01*
X114561D01*
Y177165D01*
X114700D01*
Y177235D01*
X114839D01*
Y177304D01*
X115047D01*
Y177374D01*
X115186D01*
Y177443D01*
X115325D01*
Y177513D01*
X115464D01*
Y177582D01*
X115603D01*
Y177652D01*
X115742D01*
Y177721D01*
X115881D01*
Y177790D01*
X116020D01*
Y177860D01*
X116228D01*
Y177929D01*
X116367D01*
Y177999D01*
X116506D01*
Y178068D01*
X116645D01*
Y178138D01*
X116784D01*
Y177652D01*
D02*
G37*
G36*
X99415Y172858D02*
X99693D01*
Y172788D01*
X99832D01*
Y172719D01*
X99901D01*
Y172649D01*
X100040D01*
Y172580D01*
X100110D01*
Y172510D01*
X100179D01*
Y172441D01*
X100249D01*
Y172302D01*
X100318D01*
Y172163D01*
X100388D01*
Y172024D01*
X100457D01*
Y171677D01*
X100527D01*
Y171607D01*
X100457D01*
Y170009D01*
X95872D01*
Y171468D01*
X95941D01*
Y171746D01*
X96011D01*
Y171954D01*
X96080D01*
Y172024D01*
X96150D01*
Y172163D01*
X96219D01*
Y172232D01*
X96289D01*
Y172302D01*
X96358D01*
Y172371D01*
X96428D01*
Y172441D01*
X96566D01*
Y172510D01*
X96775D01*
Y172580D01*
X97400D01*
Y172510D01*
X97539D01*
Y172441D01*
X97678D01*
Y172371D01*
X97748D01*
Y172302D01*
X97817D01*
Y172232D01*
X97887D01*
Y172163D01*
X98026D01*
Y172302D01*
X98095D01*
Y172441D01*
X98164D01*
Y172510D01*
X98234D01*
Y172580D01*
X98303D01*
Y172649D01*
X98373D01*
Y172719D01*
X98442D01*
Y172788D01*
X98581D01*
Y172858D01*
X98859D01*
Y172927D01*
X99415D01*
Y172858D01*
D02*
G37*
G36*
X287865Y227946D02*
X288149D01*
Y227378D01*
X288432D01*
Y226243D01*
X288716D01*
Y225392D01*
X289000D01*
Y223973D01*
X289284D01*
Y222838D01*
X289568D01*
Y221703D01*
X289851D01*
Y218581D01*
X290135D01*
Y211770D01*
X289851D01*
Y208365D01*
X289568D01*
Y206378D01*
X289284D01*
Y204960D01*
X289000D01*
Y202689D01*
X288716D01*
Y201270D01*
X288432D01*
Y199568D01*
X288149D01*
Y198149D01*
X287865D01*
Y197013D01*
X287581D01*
Y195027D01*
X287297D01*
Y193892D01*
X287014D01*
Y191905D01*
X286730D01*
Y190487D01*
X286446D01*
Y187932D01*
X286162D01*
Y186230D01*
X285878D01*
Y183392D01*
X285595D01*
Y176297D01*
X285878D01*
Y174311D01*
X286162D01*
Y172608D01*
X286446D01*
Y170905D01*
X286730D01*
Y170054D01*
X287014D01*
Y168919D01*
X287297D01*
Y168068D01*
X287581D01*
Y166932D01*
X287865D01*
Y166649D01*
X248987D01*
Y167500D01*
X248703D01*
Y168351D01*
X248419D01*
Y169203D01*
X248135D01*
Y170338D01*
X247851D01*
Y171473D01*
X247568D01*
Y172608D01*
X247284D01*
Y174878D01*
X247000D01*
Y178000D01*
X246716D01*
Y181689D01*
X247000D01*
Y185378D01*
X247284D01*
Y188216D01*
X247568D01*
Y189635D01*
X247851D01*
Y191338D01*
X248135D01*
Y193324D01*
X248419D01*
Y194743D01*
X248703D01*
Y196446D01*
X248987D01*
Y197581D01*
X249270D01*
Y199000D01*
X249554D01*
Y200987D01*
X249838D01*
Y202122D01*
X250122D01*
Y204108D01*
X250405D01*
Y205811D01*
X250689D01*
Y208649D01*
X250973D01*
Y210635D01*
X251257D01*
Y219716D01*
X250973D01*
Y221419D01*
X250689D01*
Y223405D01*
X250405D01*
Y224540D01*
X250122D01*
Y225676D01*
X249838D01*
Y226527D01*
X249554D01*
Y227662D01*
X249270D01*
Y228230D01*
X287865D01*
Y227946D01*
D02*
G37*
G36*
X529787Y361751D02*
X529860Y361742D01*
X529933Y361733D01*
X530024Y361714D01*
X530124Y361687D01*
X530334Y361623D01*
X530452Y361578D01*
X530562Y361523D01*
X530671Y361459D01*
X530780Y361377D01*
X530890Y361295D01*
X530990Y361195D01*
X530999Y361186D01*
X531008Y361168D01*
X531035Y361140D01*
X531072Y361095D01*
X531108Y361031D01*
X531154Y360967D01*
X531199Y360885D01*
X531245Y360794D01*
X531290Y360694D01*
X531336Y360576D01*
X531382Y360448D01*
X531418Y360311D01*
X531454Y360166D01*
X531482Y360011D01*
X531491Y359847D01*
X531500Y359674D01*
Y359546D01*
X531491Y359473D01*
Y359400D01*
X531482Y359309D01*
X531473Y359218D01*
X531445Y359009D01*
X531400Y358790D01*
X531345Y358562D01*
X531272Y358353D01*
X530252D01*
Y358362D01*
X530270Y358380D01*
X530279Y358407D01*
X530307Y358453D01*
X530334Y358499D01*
X530361Y358562D01*
X530425Y358708D01*
X530489Y358890D01*
X530544Y359091D01*
X530580Y359309D01*
X530598Y359537D01*
Y359619D01*
X530589Y359701D01*
X530571Y359810D01*
X530544Y359929D01*
X530498Y360047D01*
X530443Y360166D01*
X530370Y360275D01*
X530361Y360284D01*
X530325Y360320D01*
X530279Y360366D01*
X530206Y360412D01*
X530124Y360466D01*
X530015Y360503D01*
X529897Y360539D01*
X529760Y360548D01*
X529751D01*
X529724D01*
X529687Y360539D01*
X529632Y360530D01*
X529578Y360512D01*
X529505Y360485D01*
X529432Y360457D01*
X529359Y360402D01*
X529286Y360348D01*
X529213Y360275D01*
X529141Y360175D01*
X529086Y360065D01*
X529031Y359938D01*
X528995Y359783D01*
X528967Y359610D01*
X528958Y359409D01*
Y359264D01*
X528967Y359154D01*
X528976Y359027D01*
X528986Y358872D01*
X529004Y358699D01*
X529022Y358508D01*
X525998D01*
Y361514D01*
X526972D01*
Y359528D01*
X528056D01*
Y359537D01*
X528047Y359574D01*
Y359619D01*
X528038Y359674D01*
Y359747D01*
X528029Y359829D01*
Y360065D01*
X528038Y360120D01*
Y360193D01*
X528056Y360275D01*
X528084Y360457D01*
X528138Y360667D01*
X528220Y360885D01*
X528266Y360995D01*
X528330Y361095D01*
X528394Y361195D01*
X528476Y361286D01*
X528485Y361295D01*
X528494Y361304D01*
X528521Y361332D01*
X528557Y361359D01*
X528603Y361396D01*
X528649Y361432D01*
X528785Y361523D01*
X528958Y361614D01*
X529159Y361687D01*
X529387Y361742D01*
X529514Y361751D01*
X529651Y361760D01*
X529660D01*
X529687D01*
X529733D01*
X529787Y361751D01*
D02*
G37*
G36*
X527546Y357314D02*
X527619Y357305D01*
X527701Y357287D01*
X527810Y357260D01*
X527929Y357232D01*
X528056Y357178D01*
X528193Y357123D01*
X528348Y357050D01*
X528512Y356950D01*
X528685Y356840D01*
X528858Y356713D01*
X529040Y356558D01*
X529222Y356385D01*
X529414Y356185D01*
X530398Y355073D01*
X530425D01*
Y357269D01*
X531409D01*
Y353707D01*
X530489D01*
X529004Y355255D01*
X528995Y355264D01*
X528986Y355274D01*
X528931Y355328D01*
X528840Y355410D01*
X528740Y355510D01*
X528621Y355620D01*
X528494Y355729D01*
X528366Y355829D01*
X528248Y355911D01*
X528230Y355920D01*
X528193Y355939D01*
X528138Y355975D01*
X528056Y356012D01*
X527956Y356039D01*
X527856Y356075D01*
X527738Y356094D01*
X527610Y356103D01*
X527601D01*
X527574D01*
X527537Y356094D01*
X527492D01*
X527373Y356057D01*
X527309Y356039D01*
X527237Y356002D01*
X527164Y355957D01*
X527100Y355911D01*
X527036Y355838D01*
X526981Y355766D01*
X526936Y355674D01*
X526890Y355565D01*
X526872Y355447D01*
X526863Y355301D01*
Y355228D01*
X526872Y355183D01*
X526881Y355119D01*
X526890Y355046D01*
X526909Y354964D01*
X526927Y354873D01*
X527000Y354663D01*
X527036Y354554D01*
X527091Y354445D01*
X527154Y354326D01*
X527227Y354199D01*
X527309Y354080D01*
X527410Y353962D01*
X526362D01*
X526353Y353971D01*
X526344Y353998D01*
X526316Y354035D01*
X526289Y354089D01*
X526253Y354153D01*
X526216Y354235D01*
X526180Y354326D01*
X526134Y354426D01*
X526089Y354545D01*
X526052Y354663D01*
X525979Y354937D01*
X525925Y355237D01*
X525916Y355392D01*
X525907Y355556D01*
Y355638D01*
X525916Y355693D01*
Y355766D01*
X525925Y355848D01*
X525961Y356030D01*
X526007Y356239D01*
X526080Y356449D01*
X526189Y356658D01*
X526253Y356758D01*
X526326Y356850D01*
X526335Y356859D01*
X526344Y356868D01*
X526371Y356895D01*
X526398Y356923D01*
X526499Y356995D01*
X526626Y357086D01*
X526781Y357178D01*
X526981Y357250D01*
X527200Y357305D01*
X527328Y357314D01*
X527455Y357323D01*
X527464D01*
X527501D01*
X527546Y357314D01*
D02*
G37*
G36*
X528895Y353032D02*
X529004Y353023D01*
X529141Y353014D01*
X529286Y352996D01*
X529441Y352978D01*
X529787Y352914D01*
X529960Y352878D01*
X530133Y352823D01*
X530307Y352759D01*
X530471Y352695D01*
X530625Y352613D01*
X530771Y352522D01*
X530780Y352513D01*
X530798Y352495D01*
X530835Y352468D01*
X530880Y352422D01*
X530944Y352377D01*
X530999Y352304D01*
X531072Y352231D01*
X531136Y352140D01*
X531199Y352049D01*
X531272Y351930D01*
X531327Y351812D01*
X531382Y351684D01*
X531436Y351538D01*
X531473Y351384D01*
X531491Y351220D01*
X531500Y351046D01*
Y351001D01*
X531491Y350965D01*
X531482Y350864D01*
X531454Y350746D01*
X531418Y350600D01*
X531354Y350436D01*
X531272Y350263D01*
X531163Y350081D01*
X531017Y349899D01*
X530935Y349817D01*
X530835Y349726D01*
X530735Y349644D01*
X530616Y349562D01*
X530498Y349489D01*
X530361Y349416D01*
X530206Y349352D01*
X530052Y349297D01*
X529878Y349243D01*
X529687Y349197D01*
X529487Y349161D01*
X529268Y349133D01*
X529040Y349124D01*
X528794Y349115D01*
X528776D01*
X528731D01*
X528658D01*
X528557Y349124D01*
X528448Y349133D01*
X528311Y349143D01*
X528157Y349161D01*
X527993Y349179D01*
X527646Y349243D01*
X527473Y349288D01*
X527291Y349334D01*
X527118Y349398D01*
X526945Y349461D01*
X526790Y349543D01*
X526644Y349635D01*
X526635Y349644D01*
X526608Y349662D01*
X526572Y349689D01*
X526526Y349735D01*
X526471Y349789D01*
X526407Y349853D01*
X526344Y349926D01*
X526271Y350017D01*
X526207Y350117D01*
X526143Y350236D01*
X526080Y350354D01*
X526025Y350491D01*
X525970Y350637D01*
X525934Y350801D01*
X525916Y350965D01*
X525907Y351147D01*
Y351192D01*
X525916Y351229D01*
X525925Y351320D01*
X525952Y351447D01*
X525988Y351584D01*
X526052Y351748D01*
X526134Y351921D01*
X526253Y352094D01*
X526398Y352267D01*
X526480Y352358D01*
X526581Y352440D01*
X526690Y352522D01*
X526799Y352604D01*
X526927Y352677D01*
X527072Y352750D01*
X527218Y352814D01*
X527382Y352869D01*
X527564Y352914D01*
X527756Y352960D01*
X527956Y352996D01*
X528184Y353023D01*
X528412Y353032D01*
X528667Y353042D01*
X528685D01*
X528731D01*
X528794D01*
X528895Y353032D01*
D02*
G37*
G36*
X527546Y348423D02*
X527619Y348414D01*
X527701Y348395D01*
X527810Y348368D01*
X527929Y348341D01*
X528056Y348286D01*
X528193Y348232D01*
X528348Y348159D01*
X528512Y348059D01*
X528685Y347949D01*
X528858Y347822D01*
X529040Y347667D01*
X529222Y347494D01*
X529414Y347293D01*
X530398Y346182D01*
X530425D01*
Y348377D01*
X531409D01*
Y344815D01*
X530489D01*
X529004Y346364D01*
X528995Y346373D01*
X528986Y346382D01*
X528931Y346437D01*
X528840Y346519D01*
X528740Y346619D01*
X528621Y346728D01*
X528494Y346838D01*
X528366Y346938D01*
X528248Y347020D01*
X528230Y347029D01*
X528193Y347047D01*
X528138Y347084D01*
X528056Y347120D01*
X527956Y347147D01*
X527856Y347184D01*
X527738Y347202D01*
X527610Y347211D01*
X527601D01*
X527574D01*
X527537Y347202D01*
X527492D01*
X527373Y347166D01*
X527309Y347147D01*
X527237Y347111D01*
X527164Y347065D01*
X527100Y347020D01*
X527036Y346947D01*
X526981Y346874D01*
X526936Y346783D01*
X526890Y346674D01*
X526872Y346555D01*
X526863Y346410D01*
Y346337D01*
X526872Y346291D01*
X526881Y346227D01*
X526890Y346154D01*
X526909Y346073D01*
X526927Y345981D01*
X527000Y345772D01*
X527036Y345662D01*
X527091Y345553D01*
X527154Y345435D01*
X527227Y345307D01*
X527309Y345189D01*
X527410Y345070D01*
X526362D01*
X526353Y345079D01*
X526344Y345107D01*
X526316Y345143D01*
X526289Y345198D01*
X526253Y345262D01*
X526216Y345344D01*
X526180Y345435D01*
X526134Y345535D01*
X526089Y345653D01*
X526052Y345772D01*
X525979Y346045D01*
X525925Y346346D01*
X525916Y346501D01*
X525907Y346665D01*
Y346747D01*
X525916Y346801D01*
Y346874D01*
X525925Y346956D01*
X525961Y347138D01*
X526007Y347348D01*
X526080Y347557D01*
X526189Y347767D01*
X526253Y347867D01*
X526326Y347958D01*
X526335Y347967D01*
X526344Y347976D01*
X526371Y348004D01*
X526398Y348031D01*
X526499Y348104D01*
X526626Y348195D01*
X526781Y348286D01*
X526981Y348359D01*
X527200Y348414D01*
X527328Y348423D01*
X527455Y348432D01*
X527464D01*
X527501D01*
X527546Y348423D01*
D02*
G37*
G36*
X530972Y344041D02*
X531035Y344023D01*
X531108Y344005D01*
X531181Y343968D01*
X531254Y343913D01*
X531327Y343850D01*
X531336Y343841D01*
X531354Y343813D01*
X531382Y343777D01*
X531409Y343713D01*
X531445Y343640D01*
X531473Y343558D01*
X531491Y343449D01*
X531500Y343339D01*
Y343294D01*
X531491Y343239D01*
X531482Y343166D01*
X531454Y343093D01*
X531427Y343011D01*
X531382Y342930D01*
X531327Y342847D01*
X531318Y342838D01*
X531290Y342820D01*
X531254Y342784D01*
X531199Y342756D01*
X531136Y342720D01*
X531063Y342684D01*
X530972Y342665D01*
X530880Y342656D01*
X530871D01*
X530835D01*
X530780Y342665D01*
X530726Y342684D01*
X530653Y342702D01*
X530580Y342738D01*
X530507Y342793D01*
X530434Y342857D01*
X530425Y342866D01*
X530407Y342893D01*
X530379Y342939D01*
X530343Y342993D01*
X530316Y343066D01*
X530288Y343157D01*
X530270Y343248D01*
X530261Y343358D01*
Y343412D01*
X530270Y343467D01*
X530279Y343540D01*
X530307Y343613D01*
X530334Y343704D01*
X530379Y343786D01*
X530443Y343859D01*
X530452Y343868D01*
X530471Y343886D01*
X530516Y343922D01*
X530562Y343959D01*
X530625Y343986D01*
X530698Y344023D01*
X530789Y344041D01*
X530880Y344050D01*
X530890D01*
X530926D01*
X530972Y344041D01*
D02*
G37*
G36*
X531409Y340078D02*
Y338821D01*
X526972Y340743D01*
Y338220D01*
X525998D01*
Y341991D01*
X526553D01*
X531409Y340078D01*
D02*
G37*
G36*
Y333874D02*
X528011Y331642D01*
X528002Y331633D01*
X527965Y331615D01*
X527911Y331578D01*
X527838Y331533D01*
X527692Y331451D01*
X527628Y331405D01*
X527564Y331369D01*
Y331360D01*
X527574D01*
X527619Y331369D01*
X527683D01*
X527783Y331378D01*
X527902D01*
X528056Y331387D01*
X528230D01*
X528439D01*
X531409D01*
Y330230D01*
X525998D01*
Y331551D01*
X529295Y333701D01*
X529305Y333710D01*
X529332Y333728D01*
X529377Y333756D01*
X529432Y333792D01*
X529496Y333829D01*
X529569Y333874D01*
X529733Y333965D01*
Y333983D01*
X529724D01*
X529696D01*
X529642Y333974D01*
X529569D01*
X529468Y333965D01*
X529341D01*
X529186Y333956D01*
X528995D01*
X525998D01*
Y335104D01*
X531409D01*
Y333874D01*
D02*
G37*
G36*
Y327725D02*
Y326340D01*
X525998Y324500D01*
Y325812D01*
X529769Y326941D01*
X529778D01*
X529824Y326960D01*
X529878Y326969D01*
X529951Y326987D01*
X530033Y327005D01*
X530124Y327024D01*
X530307Y327051D01*
Y327069D01*
X530298D01*
X530261Y327078D01*
X530206Y327087D01*
X530143Y327096D01*
X530061Y327115D01*
X529960Y327133D01*
X529860Y327160D01*
X529751Y327187D01*
X525998Y328308D01*
Y329583D01*
X531409Y327725D01*
D02*
G37*
G36*
X531500Y315412D02*
X528102Y313180D01*
X528093Y313171D01*
X528056Y313153D01*
X528002Y313116D01*
X527929Y313071D01*
X527783Y312989D01*
X527719Y312943D01*
X527656Y312907D01*
Y312898D01*
X527665D01*
X527710Y312907D01*
X527774D01*
X527874Y312916D01*
X527993D01*
X528148Y312925D01*
X528321D01*
X528530D01*
X531500D01*
Y311768D01*
X526089D01*
Y313089D01*
X529387Y315239D01*
X529396Y315248D01*
X529423Y315266D01*
X529468Y315294D01*
X529523Y315330D01*
X529587Y315366D01*
X529660Y315412D01*
X529824Y315503D01*
Y315521D01*
X529815D01*
X529787D01*
X529733Y315512D01*
X529660D01*
X529560Y315503D01*
X529432D01*
X529277Y315494D01*
X529086D01*
X526089D01*
Y316642D01*
X531500D01*
Y315412D01*
D02*
G37*
G36*
Y307650D02*
X526089D01*
Y310775D01*
X527082D01*
Y308871D01*
X528284D01*
Y310647D01*
X529277D01*
Y308871D01*
X530516D01*
Y310903D01*
X531500D01*
Y307650D01*
D02*
G37*
G36*
Y304753D02*
X530562D01*
Y305200D01*
X527036D01*
Y304753D01*
X526089D01*
Y306876D01*
X527036D01*
Y306420D01*
X530562D01*
Y306876D01*
X531500D01*
Y304753D01*
D02*
G37*
G36*
Y302694D02*
Y301310D01*
X526089Y299469D01*
Y300781D01*
X529860Y301911D01*
X529869D01*
X529915Y301929D01*
X529970Y301938D01*
X530042Y301957D01*
X530124Y301975D01*
X530216Y301993D01*
X530398Y302020D01*
Y302039D01*
X530389D01*
X530352Y302048D01*
X530298Y302057D01*
X530234Y302066D01*
X530152Y302084D01*
X530052Y302102D01*
X529951Y302130D01*
X529842Y302157D01*
X526089Y303277D01*
Y304553D01*
X531500Y302694D01*
D02*
G37*
G36*
X529860Y294714D02*
X529022D01*
Y296782D01*
X529860D01*
Y294714D01*
D02*
G37*
G36*
X531500Y290205D02*
X529295D01*
Y287954D01*
X531500D01*
Y286734D01*
X526089D01*
Y287954D01*
X528248D01*
Y290205D01*
X526089D01*
Y291425D01*
X531500D01*
Y290205D01*
D02*
G37*
G36*
Y284265D02*
X528102Y282033D01*
X528093Y282024D01*
X528056Y282006D01*
X528002Y281969D01*
X527929Y281924D01*
X527783Y281842D01*
X527719Y281796D01*
X527656Y281760D01*
Y281750D01*
X527665D01*
X527710Y281760D01*
X527774D01*
X527874Y281769D01*
X527993D01*
X528148Y281778D01*
X528321D01*
X528530D01*
X531500D01*
Y280621D01*
X526089D01*
Y281942D01*
X529387Y284092D01*
X529396Y284101D01*
X529423Y284119D01*
X529468Y284146D01*
X529523Y284183D01*
X529587Y284219D01*
X529660Y284265D01*
X529824Y284356D01*
Y284374D01*
X529815D01*
X529787D01*
X529733Y284365D01*
X529660D01*
X529560Y284356D01*
X529432D01*
X529277Y284347D01*
X529086D01*
X526089D01*
Y285495D01*
X531500D01*
Y284265D01*
D02*
G37*
G36*
Y278617D02*
X530298Y278234D01*
Y276312D01*
X531500Y275929D01*
Y274608D01*
X526089Y276576D01*
Y278025D01*
X531500Y279947D01*
Y278617D01*
D02*
G37*
G36*
Y272732D02*
X529295D01*
Y270481D01*
X531500D01*
Y269261D01*
X526089D01*
Y270481D01*
X528248D01*
Y272732D01*
X526089D01*
Y273952D01*
X531500D01*
Y272732D01*
D02*
G37*
G36*
X529860Y263931D02*
X529022D01*
Y265999D01*
X529860D01*
Y263931D01*
D02*
G37*
G36*
X531500Y259868D02*
X530298Y259486D01*
Y257563D01*
X531500Y257181D01*
Y255860D01*
Y254530D01*
X530115Y253692D01*
X530106D01*
X530088Y253674D01*
X530061Y253655D01*
X530015Y253637D01*
X529924Y253573D01*
X529833Y253509D01*
X529824D01*
X529815Y253491D01*
X529760Y253455D01*
X529687Y253400D01*
X529614Y253336D01*
X529596Y253318D01*
X529560Y253282D01*
X529514Y253218D01*
X529478Y253145D01*
X529468Y253127D01*
X529450Y253081D01*
X529441Y253018D01*
X529432Y252936D01*
Y252608D01*
X531500D01*
Y251387D01*
X526089D01*
Y253409D01*
X526098Y253509D01*
X526107Y253637D01*
X526134Y253783D01*
X526171Y253947D01*
X526216Y254129D01*
X526271Y254311D01*
X526353Y254493D01*
X526453Y254676D01*
X526572Y254840D01*
X526708Y254985D01*
X526881Y255113D01*
X527072Y255213D01*
X527191Y255250D01*
X527300Y255277D01*
X527428Y255286D01*
X527564Y255295D01*
X527574D01*
X527610D01*
X527665D01*
X527738Y255286D01*
X527819Y255277D01*
X527902Y255259D01*
X528084Y255204D01*
X528093D01*
X528120Y255186D01*
X528166Y255168D01*
X528230Y255140D01*
X528293Y255104D01*
X528366Y255067D01*
X528521Y254958D01*
X528530Y254949D01*
X528548Y254931D01*
X528585Y254894D01*
X528630Y254849D01*
X528685Y254794D01*
X528740Y254730D01*
X528849Y254575D01*
X528858Y254566D01*
X528867Y254539D01*
X528895Y254493D01*
X528931Y254430D01*
X528958Y254357D01*
X528995Y254275D01*
X529068Y254083D01*
X529086D01*
Y254093D01*
X529095Y254102D01*
X529113Y254156D01*
X529159Y254229D01*
X529213Y254311D01*
Y254320D01*
X529232Y254329D01*
X529268Y254384D01*
X529332Y254457D01*
X529405Y254530D01*
X529414Y254539D01*
X529423Y254548D01*
X529478Y254594D01*
X529551Y254657D01*
X529651Y254730D01*
X529660Y254739D01*
X529669Y254749D01*
X529733Y254794D01*
X529815Y254849D01*
X529906Y254912D01*
X531427Y255886D01*
X526089Y257828D01*
Y259276D01*
X531500Y261198D01*
Y259868D01*
D02*
G37*
G36*
X527082Y249118D02*
X531500D01*
Y247898D01*
X527082D01*
Y246358D01*
X526089D01*
Y250667D01*
X527082D01*
Y249118D01*
D02*
G37*
%LPC*%
G36*
X98720Y208291D02*
X98512D01*
Y208221D01*
X98303D01*
Y208152D01*
X98164D01*
Y208082D01*
X97956D01*
Y208013D01*
X97817D01*
Y207943D01*
X97609D01*
Y207874D01*
X97400D01*
Y207804D01*
X97261D01*
Y207735D01*
X97192D01*
Y207665D01*
X97331D01*
Y207596D01*
X97539D01*
Y207526D01*
X97748D01*
Y207457D01*
X97887D01*
Y207387D01*
X98095D01*
Y207318D01*
X98234D01*
Y207248D01*
X98442D01*
Y207179D01*
X98581D01*
Y207109D01*
X98720D01*
Y208291D01*
D02*
G37*
G36*
X98303Y204191D02*
X98234D01*
Y204122D01*
X98164D01*
Y204191D01*
X98095D01*
Y204122D01*
X97748D01*
Y204053D01*
X97539D01*
Y203983D01*
X97400D01*
Y203914D01*
X97331D01*
Y203844D01*
X97192D01*
Y203775D01*
X97122D01*
Y203705D01*
X97053D01*
Y203636D01*
X96983D01*
Y203566D01*
X96914D01*
Y203497D01*
X96844D01*
Y203358D01*
X96775D01*
Y203219D01*
X96705D01*
Y203010D01*
X96636D01*
Y202246D01*
X96705D01*
Y202038D01*
X96775D01*
Y201899D01*
X96844D01*
Y201760D01*
X96914D01*
Y201690D01*
X96983D01*
Y201621D01*
X97053D01*
Y201551D01*
X97122D01*
Y201482D01*
X97192D01*
Y201413D01*
X97331D01*
Y201343D01*
X97400D01*
Y201273D01*
X97609D01*
Y201204D01*
X97817D01*
Y201134D01*
X98581D01*
Y201204D01*
X98790D01*
Y201273D01*
X98929D01*
Y201343D01*
X99068D01*
Y201413D01*
X99137D01*
Y201482D01*
X99276D01*
Y201551D01*
X99345D01*
Y201690D01*
X99415D01*
Y201760D01*
X99484D01*
Y201829D01*
X99554D01*
Y201968D01*
X99623D01*
Y202107D01*
X99693D01*
Y202385D01*
X99762D01*
Y202871D01*
X99693D01*
Y203149D01*
X99623D01*
Y203358D01*
X99554D01*
Y203427D01*
X99484D01*
Y203497D01*
X99415D01*
Y203636D01*
X99345D01*
Y203705D01*
X99276D01*
Y203775D01*
X99207D01*
Y203844D01*
X99068D01*
Y203914D01*
X98998D01*
Y203983D01*
X98790D01*
Y204053D01*
X98651D01*
Y204122D01*
X98303D01*
Y204191D01*
D02*
G37*
G36*
X91981Y177374D02*
X90939D01*
Y177304D01*
X90730D01*
Y177235D01*
X90522D01*
Y177165D01*
X90383D01*
Y177096D01*
X90314D01*
Y177026D01*
X90244D01*
Y176957D01*
X90175D01*
Y176887D01*
X90105D01*
Y176818D01*
X90036D01*
Y176748D01*
X89966D01*
Y176679D01*
X89897D01*
Y176609D01*
X89827D01*
Y176470D01*
X89758D01*
Y176331D01*
X89688D01*
Y176123D01*
X89619D01*
Y175637D01*
X89549D01*
Y174455D01*
X93232D01*
Y175845D01*
X93162D01*
Y176262D01*
X93093D01*
Y176470D01*
X93023D01*
Y176609D01*
X92954D01*
Y176679D01*
X92884D01*
Y176818D01*
X92815D01*
Y176887D01*
X92745D01*
Y176957D01*
X92676D01*
Y177026D01*
X92537D01*
Y177096D01*
X92467D01*
Y177165D01*
X92328D01*
Y177235D01*
X92189D01*
Y177304D01*
X91981D01*
Y177374D01*
D02*
G37*
G36*
X188772Y216816D02*
X187271D01*
Y216769D01*
X186990D01*
Y216722D01*
X186755D01*
Y216675D01*
X186520D01*
Y216628D01*
X186380D01*
Y216581D01*
X186239D01*
Y216534D01*
X186098D01*
Y216487D01*
X185957D01*
Y216441D01*
X185864D01*
Y216394D01*
X185770D01*
Y216347D01*
X185676D01*
Y216300D01*
X185582D01*
Y216253D01*
X185488D01*
Y216206D01*
X185395D01*
Y216159D01*
X185347D01*
Y216112D01*
X185254D01*
Y216065D01*
X185207D01*
Y216018D01*
X185113D01*
Y215971D01*
X185066D01*
Y215924D01*
X184972D01*
Y215878D01*
X184925D01*
Y215831D01*
X184878D01*
Y215784D01*
X184832D01*
Y215737D01*
X184784D01*
Y215690D01*
X184738D01*
Y215643D01*
X184691D01*
Y215596D01*
X184644D01*
Y215549D01*
X184597D01*
Y215502D01*
X184550D01*
Y215455D01*
X184503D01*
Y215408D01*
X184456D01*
Y215361D01*
X184409D01*
Y215315D01*
X184362D01*
Y215221D01*
X184315D01*
Y215174D01*
X184268D01*
Y215127D01*
X184222D01*
Y215033D01*
X184175D01*
Y214986D01*
X184128D01*
Y214892D01*
X184081D01*
Y214845D01*
X184034D01*
Y214752D01*
X183987D01*
Y214658D01*
X183940D01*
Y214564D01*
X183893D01*
Y214470D01*
X183846D01*
Y214376D01*
X183799D01*
Y214282D01*
X183752D01*
Y214142D01*
X183705D01*
Y214048D01*
X183659D01*
Y213907D01*
X183612D01*
Y213766D01*
X183565D01*
Y213626D01*
X183518D01*
Y213485D01*
X183471D01*
Y213344D01*
X183424D01*
Y213203D01*
X183377D01*
Y213016D01*
X183330D01*
Y212875D01*
X183283D01*
Y212687D01*
X183236D01*
Y212546D01*
X183189D01*
Y212359D01*
X183142D01*
Y212077D01*
X183096D01*
Y211843D01*
X183049D01*
Y211467D01*
X183002D01*
Y210998D01*
X182955D01*
Y209544D01*
X183002D01*
Y208981D01*
X183049D01*
Y208512D01*
X183096D01*
Y208136D01*
X183142D01*
Y207761D01*
X183189D01*
Y207386D01*
X183236D01*
Y207104D01*
X183283D01*
Y206823D01*
X183330D01*
Y206682D01*
X183471D01*
Y206729D01*
X183705D01*
Y206776D01*
X183940D01*
Y206823D01*
X184175D01*
Y206870D01*
X184409D01*
Y206917D01*
X184550D01*
Y207339D01*
X184503D01*
Y208089D01*
X184550D01*
Y209028D01*
X184597D01*
Y209544D01*
X184644D01*
Y209872D01*
X184691D01*
Y210201D01*
X184738D01*
Y210529D01*
X184784D01*
Y210811D01*
X184832D01*
Y211092D01*
X184878D01*
Y211374D01*
X184925D01*
Y211608D01*
X184972D01*
Y211796D01*
X185019D01*
Y211983D01*
X185066D01*
Y212171D01*
X185113D01*
Y212312D01*
X185160D01*
Y212453D01*
X185207D01*
Y212593D01*
X185254D01*
Y212687D01*
X185301D01*
Y212828D01*
X185347D01*
Y212922D01*
X185395D01*
Y213016D01*
X185441D01*
Y213109D01*
X185488D01*
Y213203D01*
X185535D01*
Y213297D01*
X185582D01*
Y213344D01*
X185629D01*
Y213438D01*
X185676D01*
Y213485D01*
X185723D01*
Y213579D01*
X185770D01*
Y213626D01*
X185817D01*
Y213719D01*
X185864D01*
Y213766D01*
X185910D01*
Y213813D01*
X185957D01*
Y213907D01*
X186051D01*
Y214001D01*
X186098D01*
Y214048D01*
X186145D01*
Y214095D01*
X186192D01*
Y214142D01*
X186239D01*
Y214189D01*
X186286D01*
Y214235D01*
X186333D01*
Y214282D01*
X186380D01*
Y214329D01*
X186427D01*
Y214376D01*
X186474D01*
Y214423D01*
X186520D01*
Y214470D01*
X186567D01*
Y214517D01*
X186661D01*
Y214564D01*
X186708D01*
Y214611D01*
X186755D01*
Y214658D01*
X186849D01*
Y214705D01*
X186896D01*
Y214752D01*
X186943D01*
Y214798D01*
X187037D01*
Y214845D01*
X187130D01*
Y214892D01*
X187177D01*
Y214939D01*
X187271D01*
Y214986D01*
X187318D01*
Y215033D01*
X187412D01*
Y215080D01*
X187506D01*
Y215127D01*
X187646D01*
Y215174D01*
X187740D01*
Y215221D01*
X187834D01*
Y215268D01*
X187975D01*
Y215315D01*
X188116D01*
Y215361D01*
X188256D01*
Y215408D01*
X188444D01*
Y215455D01*
X188679D01*
Y215502D01*
X188960D01*
Y215549D01*
X189898D01*
Y215502D01*
X190227D01*
Y215455D01*
X190461D01*
Y215408D01*
X190696D01*
Y215361D01*
X190884D01*
Y215315D01*
X191071D01*
Y215268D01*
X191212D01*
Y215221D01*
X191400D01*
Y215174D01*
X191540D01*
Y215127D01*
X191681D01*
Y215080D01*
X191869D01*
Y215033D01*
X191963D01*
Y214986D01*
X192103D01*
Y214939D01*
X192244D01*
Y214892D01*
X192338D01*
Y214845D01*
X192432D01*
Y214798D01*
X192573D01*
Y214752D01*
X192666D01*
Y214705D01*
X192760D01*
Y214658D01*
X192854D01*
Y214611D01*
X192948D01*
Y214564D01*
X193042D01*
Y214517D01*
X193135D01*
Y214470D01*
X193229D01*
Y214423D01*
X193276D01*
Y214376D01*
X193370D01*
Y214329D01*
X193464D01*
Y214282D01*
X193558D01*
Y214235D01*
X193652D01*
Y214189D01*
X193699D01*
Y214142D01*
X193792D01*
Y214095D01*
X193886D01*
Y214048D01*
X193980D01*
Y214001D01*
X194074D01*
Y213954D01*
X194121D01*
Y213907D01*
X194215D01*
Y213860D01*
X194308D01*
Y213813D01*
X194402D01*
Y213766D01*
X194449D01*
Y213719D01*
X194543D01*
Y213672D01*
X194637D01*
Y213626D01*
X194684D01*
Y213579D01*
X194778D01*
Y213532D01*
X194871D01*
Y213485D01*
X194918D01*
Y213438D01*
X195012D01*
Y213391D01*
X195106D01*
Y213344D01*
X195153D01*
Y213297D01*
X195247D01*
Y213250D01*
X195294D01*
Y213203D01*
X195387D01*
Y213156D01*
X195434D01*
Y213109D01*
X195528D01*
Y213063D01*
X195575D01*
Y213016D01*
X195669D01*
Y212969D01*
X195716D01*
Y212922D01*
X195810D01*
Y212875D01*
X195857D01*
Y212828D01*
X195950D01*
Y212781D01*
X195997D01*
Y212734D01*
X196044D01*
Y212687D01*
X196138D01*
Y212640D01*
X196185D01*
Y212593D01*
X196279D01*
Y212546D01*
X196326D01*
Y212499D01*
X196420D01*
Y212453D01*
X196467D01*
Y212499D01*
X196420D01*
Y212546D01*
X196326D01*
Y212640D01*
X196232D01*
Y212687D01*
X196185D01*
Y212734D01*
X196138D01*
Y212781D01*
X196091D01*
Y212828D01*
X196044D01*
Y212875D01*
X195997D01*
Y212922D01*
X195904D01*
Y212969D01*
X195857D01*
Y213016D01*
X195810D01*
Y213063D01*
X195763D01*
Y213109D01*
X195669D01*
Y213156D01*
X195622D01*
Y213203D01*
X195575D01*
Y213250D01*
X195528D01*
Y213297D01*
X195481D01*
Y213344D01*
X195387D01*
Y213391D01*
X195341D01*
Y213438D01*
X195294D01*
Y213485D01*
X195200D01*
Y213532D01*
X195153D01*
Y213579D01*
X195106D01*
Y213626D01*
X195012D01*
Y213672D01*
X194965D01*
Y213719D01*
X194918D01*
Y213766D01*
X194825D01*
Y213813D01*
X194778D01*
Y213860D01*
X194731D01*
Y213907D01*
X194637D01*
Y213954D01*
X194590D01*
Y214001D01*
X194496D01*
Y214048D01*
X194449D01*
Y214095D01*
X194355D01*
Y214142D01*
X194308D01*
Y214189D01*
X194215D01*
Y214235D01*
X194168D01*
Y214282D01*
X194121D01*
Y214329D01*
X194027D01*
Y214376D01*
X193980D01*
Y214423D01*
X193886D01*
Y214470D01*
X193839D01*
Y214517D01*
X193745D01*
Y214564D01*
X193699D01*
Y214611D01*
X193605D01*
Y214658D01*
X193511D01*
Y214705D01*
X193464D01*
Y214752D01*
X193370D01*
Y214798D01*
X193323D01*
Y214845D01*
X193229D01*
Y214892D01*
X193135D01*
Y214939D01*
X193089D01*
Y214986D01*
X192995D01*
Y215033D01*
X192901D01*
Y215080D01*
X192854D01*
Y215127D01*
X192760D01*
Y215174D01*
X192713D01*
Y215221D01*
X192620D01*
Y215268D01*
X192526D01*
Y215315D01*
X192479D01*
Y215361D01*
X192385D01*
Y215408D01*
X192291D01*
Y215455D01*
X192197D01*
Y215502D01*
X192150D01*
Y215549D01*
X192057D01*
Y215596D01*
X192010D01*
Y215643D01*
X191869D01*
Y215690D01*
X191822D01*
Y215737D01*
X191728D01*
Y215784D01*
X191681D01*
Y215831D01*
X191587D01*
Y215878D01*
X191493D01*
Y215924D01*
X191400D01*
Y215971D01*
X191306D01*
Y216018D01*
X191212D01*
Y216065D01*
X191118D01*
Y216112D01*
X191024D01*
Y216159D01*
X190930D01*
Y216206D01*
X190837D01*
Y216253D01*
X190743D01*
Y216300D01*
X190602D01*
Y216347D01*
X190508D01*
Y216394D01*
X190414D01*
Y216441D01*
X190274D01*
Y216487D01*
X190133D01*
Y216534D01*
X189992D01*
Y216581D01*
X189851D01*
Y216628D01*
X189664D01*
Y216675D01*
X189429D01*
Y216722D01*
X189195D01*
Y216769D01*
X188772D01*
Y216816D01*
D02*
G37*
G36*
X191353Y207151D02*
X189992D01*
Y207104D01*
X188679D01*
Y207057D01*
X187975D01*
Y207010D01*
X187412D01*
Y206963D01*
X186896D01*
Y206917D01*
X186520D01*
Y206870D01*
X186098D01*
Y206823D01*
X185770D01*
Y206776D01*
X185395D01*
Y206729D01*
X185019D01*
Y206682D01*
X184784D01*
Y206635D01*
X184550D01*
Y206588D01*
X184268D01*
Y206541D01*
X183987D01*
Y206494D01*
X183705D01*
Y206447D01*
X183518D01*
Y206400D01*
X183236D01*
Y206354D01*
X183002D01*
Y206307D01*
X182767D01*
Y206260D01*
X182626D01*
Y206213D01*
X182392D01*
Y206166D01*
X182157D01*
Y206119D01*
X181970D01*
Y206072D01*
X181782D01*
Y206025D01*
X181594D01*
Y205978D01*
X181407D01*
Y205931D01*
X181219D01*
Y205884D01*
X181078D01*
Y205837D01*
X180844D01*
Y205791D01*
X180703D01*
Y205744D01*
X180515D01*
Y205697D01*
X180421D01*
Y205650D01*
X180234D01*
Y205603D01*
X180046D01*
Y205556D01*
X179905D01*
Y205509D01*
X179765D01*
Y205462D01*
X179577D01*
Y205415D01*
X179436D01*
Y205368D01*
X179295D01*
Y205322D01*
X179155D01*
Y205275D01*
X179014D01*
Y205228D01*
X178873D01*
Y205181D01*
X178732D01*
Y205134D01*
X178592D01*
Y205087D01*
X178451D01*
Y205040D01*
X178310D01*
Y204993D01*
X178169D01*
Y204946D01*
X178029D01*
Y204899D01*
X177935D01*
Y204852D01*
X177794D01*
Y204805D01*
X177700D01*
Y204759D01*
X177606D01*
Y204712D01*
X177419D01*
Y204665D01*
X177325D01*
Y204618D01*
X177231D01*
Y204571D01*
X177137D01*
Y204524D01*
X176950D01*
Y204477D01*
X176856D01*
Y204430D01*
X176715D01*
Y204383D01*
X176621D01*
Y204336D01*
X176480D01*
Y204289D01*
X176387D01*
Y204242D01*
X176293D01*
Y204195D01*
X176152D01*
Y204149D01*
X176058D01*
Y204102D01*
X175964D01*
Y204055D01*
X175824D01*
Y204008D01*
X175777D01*
Y203961D01*
X175589D01*
Y203914D01*
X175495D01*
Y203867D01*
X175401D01*
Y203820D01*
X175308D01*
Y203773D01*
X175214D01*
Y203726D01*
X175073D01*
Y203679D01*
X174979D01*
Y203632D01*
X174885D01*
Y203586D01*
X175026D01*
Y203632D01*
X175167D01*
Y203679D01*
X175355D01*
Y203726D01*
X175495D01*
Y203773D01*
X175683D01*
Y203820D01*
X175871D01*
Y203867D01*
X176058D01*
Y203914D01*
X176199D01*
Y203961D01*
X176387D01*
Y204008D01*
X176527D01*
Y204055D01*
X176762D01*
Y204102D01*
X176950D01*
Y204149D01*
X177137D01*
Y204195D01*
X177278D01*
Y204242D01*
X177513D01*
Y204289D01*
X177653D01*
Y204336D01*
X177888D01*
Y204383D01*
X178029D01*
Y204430D01*
X178263D01*
Y204477D01*
X178451D01*
Y204524D01*
X178639D01*
Y204571D01*
X178826D01*
Y204618D01*
X179061D01*
Y204665D01*
X179248D01*
Y204712D01*
X179483D01*
Y204759D01*
X179624D01*
Y204805D01*
X179858D01*
Y204852D01*
X180140D01*
Y204899D01*
X180281D01*
Y204946D01*
X180375D01*
Y204993D01*
X180703D01*
Y205040D01*
X180891D01*
Y205087D01*
X181125D01*
Y205134D01*
X181360D01*
Y205181D01*
X181641D01*
Y205228D01*
X181829D01*
Y205275D01*
X182110D01*
Y205322D01*
X182298D01*
Y205368D01*
X182580D01*
Y205415D01*
X182814D01*
Y205462D01*
X183142D01*
Y205509D01*
X183377D01*
Y205556D01*
X183612D01*
Y205603D01*
X183893D01*
Y205650D01*
X184175D01*
Y205697D01*
X184409D01*
Y205744D01*
X184738D01*
Y205791D01*
X185019D01*
Y205837D01*
X185395D01*
Y205884D01*
X185676D01*
Y205931D01*
X186051D01*
Y205978D01*
X186427D01*
Y206025D01*
X186802D01*
Y206072D01*
X187130D01*
Y206119D01*
X187646D01*
Y206166D01*
X188209D01*
Y206213D01*
X188772D01*
Y206260D01*
X189523D01*
Y206307D01*
X191963D01*
Y206260D01*
X192713D01*
Y206213D01*
X193370D01*
Y206166D01*
X194027D01*
Y206119D01*
X194496D01*
Y206072D01*
X194965D01*
Y206025D01*
X195434D01*
Y205978D01*
X195904D01*
Y205931D01*
X196373D01*
Y205884D01*
X196795D01*
Y205837D01*
X197217D01*
Y205791D01*
X197592D01*
Y205744D01*
X197968D01*
Y205697D01*
X198296D01*
Y205650D01*
X198625D01*
Y205603D01*
X198953D01*
Y205556D01*
X199282D01*
Y205509D01*
X199469D01*
Y205462D01*
X199751D01*
Y205415D01*
X199938D01*
Y205368D01*
X200267D01*
Y205322D01*
X200408D01*
Y205275D01*
X200642D01*
Y205228D01*
X200877D01*
Y205181D01*
X201064D01*
Y205134D01*
X201252D01*
Y205087D01*
X201393D01*
Y205040D01*
X201533D01*
Y204993D01*
X201721D01*
Y204946D01*
X201909D01*
Y204899D01*
X202049D01*
Y204852D01*
X202190D01*
Y204805D01*
X202331D01*
Y204759D01*
X202472D01*
Y204712D01*
X202612D01*
Y204665D01*
X202753D01*
Y204618D01*
X202894D01*
Y204571D01*
X202988D01*
Y204524D01*
X203082D01*
Y204477D01*
X203222D01*
Y204430D01*
X203410D01*
Y204383D01*
X203457D01*
Y204336D01*
X203551D01*
Y204430D01*
X203598D01*
Y204524D01*
X203645D01*
Y204618D01*
X203692D01*
Y204759D01*
X203738D01*
Y204852D01*
X203785D01*
Y204946D01*
X203832D01*
Y205040D01*
X203879D01*
Y205181D01*
X203926D01*
Y205368D01*
X203785D01*
Y205415D01*
X203645D01*
Y205462D01*
X203504D01*
Y205509D01*
X203410D01*
Y205462D01*
X203316D01*
Y205556D01*
X203222D01*
Y205603D01*
X203035D01*
Y205650D01*
X202847D01*
Y205697D01*
X202706D01*
Y205744D01*
X202519D01*
Y205791D01*
X202378D01*
Y205837D01*
X202190D01*
Y205884D01*
X202049D01*
Y205931D01*
X201909D01*
Y205978D01*
X201627D01*
Y206025D01*
X201393D01*
Y206072D01*
X201252D01*
Y206119D01*
X201064D01*
Y206166D01*
X200877D01*
Y206213D01*
X200595D01*
Y206260D01*
X200408D01*
Y206307D01*
X200173D01*
Y206354D01*
X199938D01*
Y206400D01*
X199657D01*
Y206447D01*
X199375D01*
Y206494D01*
X199094D01*
Y206541D01*
X198765D01*
Y206588D01*
X198390D01*
Y206635D01*
X198062D01*
Y206682D01*
X197780D01*
Y206729D01*
X197264D01*
Y206776D01*
X196748D01*
Y206823D01*
X196185D01*
Y206870D01*
X195575D01*
Y206917D01*
X194965D01*
Y206963D01*
X194308D01*
Y207010D01*
X193558D01*
Y207057D01*
X192760D01*
Y207104D01*
X191353D01*
Y207151D01*
D02*
G37*
G36*
X174885Y203586D02*
X174838D01*
Y203539D01*
X174885D01*
Y203586D01*
D02*
G37*
G36*
X204958Y204993D02*
X204771D01*
Y204805D01*
X204724D01*
Y204618D01*
X204677D01*
Y204383D01*
X204630D01*
Y204195D01*
X204583D01*
Y204008D01*
X204536D01*
Y203820D01*
X204630D01*
Y203773D01*
X204724D01*
Y203726D01*
X204818D01*
Y203679D01*
X204911D01*
Y203632D01*
X205005D01*
Y203586D01*
X205099D01*
Y203539D01*
X205146D01*
Y203492D01*
X205287D01*
Y203398D01*
X205427D01*
Y203351D01*
X205521D01*
Y203304D01*
X205615D01*
Y203257D01*
X205662D01*
Y203210D01*
X205850D01*
Y203163D01*
X205803D01*
Y203116D01*
X205897D01*
Y203069D01*
X205990D01*
Y203023D01*
X206037D01*
Y202976D01*
X206131D01*
Y202929D01*
X206225D01*
Y202882D01*
X206272D01*
Y202835D01*
X206366D01*
Y202788D01*
X206460D01*
Y202741D01*
X206506D01*
Y202694D01*
X206600D01*
Y202647D01*
X206647D01*
Y202600D01*
X206741D01*
Y202553D01*
X206788D01*
Y202506D01*
X206835D01*
Y202553D01*
X206882D01*
Y202460D01*
X206929D01*
Y202413D01*
X206976D01*
Y202366D01*
X207069D01*
Y202319D01*
X207116D01*
Y202272D01*
X207163D01*
Y202225D01*
X207257D01*
Y202178D01*
X207351D01*
Y202131D01*
X207398D01*
Y202084D01*
X207492D01*
Y202037D01*
X207539D01*
Y201990D01*
X207586D01*
Y201943D01*
X207679D01*
Y201897D01*
X207726D01*
Y201850D01*
X207773D01*
Y201803D01*
X207867D01*
Y201756D01*
X207914D01*
Y201709D01*
X207961D01*
Y201662D01*
X208008D01*
Y201615D01*
X208102D01*
Y201568D01*
X208149D01*
Y201521D01*
X208195D01*
Y201474D01*
X208289D01*
Y201427D01*
X208336D01*
Y201380D01*
X208383D01*
Y201334D01*
X208430D01*
Y201287D01*
X208477D01*
Y201240D01*
X208524D01*
Y201193D01*
X208618D01*
Y201146D01*
X208665D01*
Y201099D01*
X208712D01*
Y201052D01*
X208805D01*
Y200958D01*
X208852D01*
Y200911D01*
X208899D01*
Y200865D01*
X208993D01*
Y200771D01*
X209040D01*
Y200724D01*
X209134D01*
Y200677D01*
X209181D01*
Y200630D01*
X209228D01*
Y200583D01*
X209321D01*
Y200536D01*
X209275D01*
Y200489D01*
X209368D01*
Y200395D01*
X209415D01*
Y200348D01*
X209462D01*
Y200302D01*
X209509D01*
Y200255D01*
X209556D01*
Y200208D01*
X209650D01*
Y200067D01*
X209697D01*
Y200020D01*
X209744D01*
Y199926D01*
X209791D01*
Y199879D01*
X209838D01*
Y199832D01*
X209884D01*
Y199739D01*
X209931D01*
Y199645D01*
X209978D01*
Y199551D01*
X210025D01*
Y199457D01*
X210072D01*
Y199363D01*
X210119D01*
Y199269D01*
X210166D01*
Y199176D01*
X210213D01*
Y199082D01*
X210260D01*
Y198988D01*
X210307D01*
Y198847D01*
X210354D01*
Y198753D01*
X210401D01*
Y198566D01*
X210447D01*
Y198425D01*
X210494D01*
Y198190D01*
X210541D01*
Y197909D01*
X210588D01*
Y196736D01*
X210541D01*
Y196501D01*
X210494D01*
Y196267D01*
X210447D01*
Y196126D01*
X210401D01*
Y195938D01*
X210354D01*
Y195844D01*
X210307D01*
Y195704D01*
X210260D01*
Y195610D01*
X210213D01*
Y195516D01*
X210166D01*
Y195422D01*
X210119D01*
Y195282D01*
X210072D01*
Y195235D01*
X210025D01*
Y195094D01*
X209978D01*
Y195000D01*
X209931D01*
Y194906D01*
X209884D01*
Y194859D01*
X209838D01*
Y194812D01*
X209791D01*
Y194719D01*
X209744D01*
Y194625D01*
X209650D01*
Y194437D01*
X209603D01*
Y194484D01*
X209556D01*
Y194390D01*
X209509D01*
Y194343D01*
X209462D01*
Y194249D01*
X209415D01*
Y194202D01*
X209368D01*
Y194156D01*
X209321D01*
Y194109D01*
X209275D01*
Y194062D01*
X209228D01*
Y194015D01*
X209181D01*
Y193968D01*
X209134D01*
Y193874D01*
X209087D01*
Y193827D01*
X209040D01*
Y193780D01*
X208993D01*
Y193733D01*
X208946D01*
Y193686D01*
X208899D01*
Y193639D01*
X208805D01*
Y193593D01*
X208758D01*
Y193546D01*
X208712D01*
Y193499D01*
X208665D01*
Y193452D01*
X208618D01*
Y193358D01*
X208571D01*
Y193311D01*
X208524D01*
Y193264D01*
X208430D01*
Y193217D01*
X208383D01*
Y193170D01*
X208336D01*
Y193123D01*
X208289D01*
Y193076D01*
X208242D01*
Y193029D01*
X208149D01*
Y192983D01*
X208102D01*
Y192936D01*
X208055D01*
Y192889D01*
X208008D01*
Y192842D01*
X207914D01*
Y192795D01*
X207867D01*
Y192748D01*
X207820D01*
Y192701D01*
X207726D01*
Y192654D01*
X207679D01*
Y192607D01*
X207632D01*
Y192560D01*
X207539D01*
Y192514D01*
X207492D01*
Y192467D01*
X207398D01*
Y192373D01*
X207304D01*
Y192326D01*
X207210D01*
Y192279D01*
X207163D01*
Y192232D01*
X207116D01*
Y192185D01*
X207023D01*
Y192138D01*
X206929D01*
Y192091D01*
X206882D01*
Y192044D01*
X206788D01*
Y191951D01*
X206647D01*
Y191904D01*
X206600D01*
Y191857D01*
X206506D01*
Y191810D01*
X206413D01*
Y191763D01*
X206366D01*
Y191716D01*
X206272D01*
Y191669D01*
X206178D01*
Y191622D01*
X206131D01*
Y191575D01*
X205990D01*
Y191481D01*
X205850D01*
Y191434D01*
X205756D01*
Y191387D01*
X205662D01*
Y191341D01*
X205568D01*
Y191294D01*
X205474D01*
Y191247D01*
X205427D01*
Y191200D01*
X205287D01*
Y191153D01*
X205240D01*
Y191106D01*
X205099D01*
Y191059D01*
X205005D01*
Y191012D01*
X204911D01*
Y190965D01*
X204818D01*
Y190918D01*
X204771D01*
Y190871D01*
X204583D01*
Y190824D01*
X204489D01*
Y190778D01*
X204395D01*
Y190731D01*
X204302D01*
Y190684D01*
X204161D01*
Y190637D01*
X204348D01*
Y190684D01*
X204583D01*
Y190731D01*
X204724D01*
Y190778D01*
X204865D01*
Y190824D01*
X205052D01*
Y190871D01*
X205193D01*
Y190918D01*
X205334D01*
Y190965D01*
X205474D01*
Y191012D01*
X205615D01*
Y191059D01*
X205756D01*
Y191106D01*
X205850D01*
Y191153D01*
X205990D01*
Y191200D01*
X206131D01*
Y191247D01*
X206272D01*
Y191294D01*
X206366D01*
Y191341D01*
X206506D01*
Y191387D01*
X206600D01*
Y191434D01*
X206694D01*
Y191481D01*
X206835D01*
Y191528D01*
X206882D01*
Y191575D01*
X207023D01*
Y191622D01*
X207069D01*
Y191669D01*
X207210D01*
Y191716D01*
X207351D01*
Y191763D01*
X207398D01*
Y191810D01*
X207445D01*
Y191857D01*
X207586D01*
Y191904D01*
X207679D01*
Y191951D01*
X207773D01*
Y191997D01*
X207914D01*
Y192044D01*
X207961D01*
Y192091D01*
X208055D01*
Y192138D01*
X208149D01*
Y192185D01*
X208195D01*
Y192232D01*
X208336D01*
Y192279D01*
X208430D01*
Y192326D01*
X208524D01*
Y192373D01*
X208571D01*
Y192420D01*
X208712D01*
Y192467D01*
X208758D01*
Y192514D01*
X208852D01*
Y192560D01*
X208899D01*
Y192607D01*
X209040D01*
Y192701D01*
X209181D01*
Y192748D01*
X209228D01*
Y192795D01*
X209321D01*
Y192842D01*
X209415D01*
Y192889D01*
X209462D01*
Y192936D01*
X209556D01*
Y192983D01*
X209603D01*
Y193029D01*
X209697D01*
Y193076D01*
X209791D01*
Y193123D01*
X209838D01*
Y193170D01*
X209884D01*
Y193217D01*
X209931D01*
Y193264D01*
X210025D01*
Y193311D01*
X210072D01*
Y193358D01*
X210166D01*
Y193405D01*
X210213D01*
Y193452D01*
X210260D01*
Y193499D01*
X210307D01*
Y193546D01*
X210354D01*
Y193593D01*
X210447D01*
Y193686D01*
X210541D01*
Y193733D01*
X210588D01*
Y193780D01*
X210635D01*
Y193827D01*
X210682D01*
Y193874D01*
X210729D01*
Y193921D01*
X210823D01*
Y194015D01*
X210870D01*
Y194062D01*
X210917D01*
Y194109D01*
X210964D01*
Y194156D01*
X211010D01*
Y194202D01*
X211057D01*
Y194249D01*
X211104D01*
Y194296D01*
X211151D01*
Y194343D01*
X211198D01*
Y194437D01*
X211292D01*
Y194531D01*
X211339D01*
Y194578D01*
X211386D01*
Y194625D01*
X211433D01*
Y194719D01*
X211526D01*
Y194812D01*
X211573D01*
Y194906D01*
X211620D01*
Y194953D01*
X211667D01*
Y195047D01*
X211714D01*
Y195094D01*
X211761D01*
Y195188D01*
X211808D01*
Y195235D01*
X211855D01*
Y195375D01*
X211902D01*
Y195469D01*
X211949D01*
Y195516D01*
X211996D01*
Y195610D01*
X212043D01*
Y195704D01*
X212089D01*
Y195844D01*
X212136D01*
Y195938D01*
X212183D01*
Y196032D01*
X212230D01*
Y196173D01*
X212277D01*
Y196314D01*
X212324D01*
Y196407D01*
X212371D01*
Y196595D01*
X212418D01*
Y196783D01*
X212465D01*
Y196970D01*
X212512D01*
Y197158D01*
X212559D01*
Y197440D01*
X212606D01*
Y198612D01*
X212559D01*
Y198941D01*
X212512D01*
Y199129D01*
X212465D01*
Y199176D01*
Y199222D01*
Y199316D01*
X212418D01*
Y199504D01*
X212371D01*
Y199598D01*
X212324D01*
Y199739D01*
X212277D01*
Y199832D01*
X212230D01*
Y199926D01*
X212183D01*
Y200020D01*
X212136D01*
Y200067D01*
X212089D01*
Y200208D01*
X212043D01*
Y200302D01*
X211996D01*
Y200348D01*
X211949D01*
Y200442D01*
X211902D01*
Y200536D01*
X211855D01*
Y200583D01*
X211808D01*
Y200630D01*
X211714D01*
Y200677D01*
X211761D01*
Y200724D01*
X211714D01*
Y200771D01*
X211667D01*
Y200865D01*
X211573D01*
Y200958D01*
X211526D01*
Y201005D01*
X211480D01*
Y201052D01*
X211433D01*
Y201099D01*
X211386D01*
Y201146D01*
X211339D01*
Y201193D01*
X211292D01*
Y201240D01*
X211245D01*
Y201334D01*
X211198D01*
Y201380D01*
X211151D01*
Y201427D01*
X211104D01*
Y201474D01*
X211057D01*
Y201521D01*
X211010D01*
Y201568D01*
X210964D01*
Y201615D01*
X210917D01*
Y201662D01*
X210870D01*
Y201709D01*
X210823D01*
Y201756D01*
X210776D01*
Y201803D01*
X210729D01*
Y201850D01*
X210684D01*
Y201815D01*
X210625D01*
Y201874D01*
X210682D01*
Y201897D01*
X210588D01*
Y201990D01*
X210541D01*
Y202037D01*
X210494D01*
Y202084D01*
X210401D01*
Y202131D01*
X210354D01*
Y202178D01*
X210307D01*
Y202225D01*
X210260D01*
Y202272D01*
X210166D01*
Y202366D01*
X210072D01*
Y202413D01*
X210025D01*
Y202460D01*
X209931D01*
Y202506D01*
X209884D01*
Y202553D01*
X209838D01*
Y202600D01*
X209791D01*
Y202647D01*
X209697D01*
Y202694D01*
X209650D01*
Y202741D01*
X209556D01*
Y202788D01*
X209509D01*
Y202835D01*
X209415D01*
Y202882D01*
X209368D01*
Y202929D01*
X209275D01*
Y202976D01*
X209181D01*
Y203023D01*
X209087D01*
Y203069D01*
X209040D01*
Y203116D01*
X208993D01*
Y203163D01*
X208899D01*
Y203116D01*
X208852D01*
Y203163D01*
X208899D01*
Y203210D01*
X208805D01*
Y203257D01*
X208712D01*
Y203304D01*
X208665D01*
Y203351D01*
X208571D01*
Y203398D01*
X208430D01*
Y203445D01*
X208336D01*
Y203492D01*
X208242D01*
Y203539D01*
X208195D01*
Y203586D01*
X208055D01*
Y203632D01*
X207961D01*
Y203679D01*
X207914D01*
Y203726D01*
X207820D01*
Y203773D01*
X207679D01*
Y203820D01*
X207586D01*
Y203867D01*
X207445D01*
Y203914D01*
X207398D01*
Y203961D01*
X207304D01*
Y204008D01*
X207210D01*
Y204055D01*
X207069D01*
Y204102D01*
X206976D01*
Y204149D01*
X206835D01*
Y204195D01*
X206788D01*
Y204242D01*
X206647D01*
Y204289D01*
X206553D01*
Y204336D01*
X206460D01*
Y204383D01*
X206319D01*
Y204430D01*
X206225D01*
Y204477D01*
X206131D01*
Y204524D01*
X206037D01*
Y204571D01*
X205943D01*
Y204618D01*
X205803D01*
Y204665D01*
X205662D01*
Y204712D01*
X205568D01*
Y204759D01*
X205474D01*
Y204805D01*
X205334D01*
Y204852D01*
X205193D01*
Y204899D01*
X205052D01*
Y204946D01*
X204958D01*
Y204993D01*
D02*
G37*
G36*
X205662Y211983D02*
X205568D01*
Y211233D01*
X205521D01*
Y210670D01*
X205474D01*
Y210295D01*
X205427D01*
Y209919D01*
X205381D01*
Y209638D01*
X205334D01*
Y209309D01*
X205287D01*
Y209075D01*
X205240D01*
Y208840D01*
X205193D01*
Y208606D01*
X205146D01*
Y208418D01*
X205099D01*
Y208230D01*
X205052D01*
Y207949D01*
X205005D01*
Y207761D01*
X204958D01*
Y207620D01*
X204911D01*
Y207386D01*
X204865D01*
Y207198D01*
X204818D01*
Y207057D01*
X204771D01*
Y206870D01*
X204724D01*
Y206729D01*
X204677D01*
Y206541D01*
X204630D01*
Y206400D01*
X204583D01*
Y206213D01*
X204536D01*
Y206072D01*
X204489D01*
Y205884D01*
X204442D01*
Y205744D01*
X204395D01*
Y205603D01*
X204348D01*
Y205509D01*
X204302D01*
Y205322D01*
X204255D01*
Y205228D01*
X204208D01*
Y205040D01*
X204161D01*
Y204946D01*
X204114D01*
Y204805D01*
X204067D01*
Y204712D01*
X204020D01*
Y204571D01*
X203973D01*
Y204430D01*
X203926D01*
Y204289D01*
X203879D01*
Y204195D01*
X203832D01*
Y204102D01*
X203785D01*
Y203961D01*
X203738D01*
Y203820D01*
X203692D01*
Y203726D01*
X203645D01*
Y203586D01*
X203598D01*
Y203492D01*
X203551D01*
Y203351D01*
X203504D01*
Y203257D01*
X203457D01*
Y203116D01*
X203410D01*
Y203023D01*
X203363D01*
Y202929D01*
X203316D01*
Y202835D01*
X203269D01*
Y202694D01*
X203222D01*
Y202600D01*
X203175D01*
Y202460D01*
X203129D01*
Y202366D01*
X203082D01*
Y202272D01*
X203035D01*
Y202178D01*
X202988D01*
Y202037D01*
X202941D01*
Y201943D01*
X202894D01*
Y201850D01*
X202847D01*
Y201756D01*
X202800D01*
Y201615D01*
X202753D01*
Y201521D01*
X202706D01*
Y201427D01*
X202659D01*
Y201334D01*
X202612D01*
Y201240D01*
X202566D01*
Y201099D01*
X202519D01*
Y201005D01*
X202472D01*
Y200865D01*
X202425D01*
Y200771D01*
X202378D01*
Y200724D01*
X202331D01*
Y200583D01*
X202284D01*
Y200489D01*
X202237D01*
Y200395D01*
X202190D01*
Y200255D01*
X202143D01*
Y200161D01*
X202096D01*
Y200067D01*
X202049D01*
Y199926D01*
X202003D01*
Y199832D01*
X201956D01*
Y199739D01*
X201909D01*
Y199645D01*
X201862D01*
Y199504D01*
X201815D01*
Y199457D01*
X201768D01*
Y199363D01*
X201721D01*
Y199269D01*
X201674D01*
Y199129D01*
X201627D01*
Y199035D01*
X201580D01*
Y198941D01*
X201533D01*
Y198847D01*
X201486D01*
Y198800D01*
X201440D01*
Y198706D01*
X201393D01*
Y198612D01*
X201346D01*
Y198519D01*
X201299D01*
Y198425D01*
X201252D01*
Y198378D01*
X201205D01*
Y198284D01*
X201158D01*
Y198190D01*
X201111D01*
Y198096D01*
X201064D01*
Y198049D01*
X201017D01*
Y197956D01*
X200971D01*
Y197909D01*
X200923D01*
Y197815D01*
X200877D01*
Y197768D01*
X200830D01*
Y197674D01*
X200783D01*
Y197580D01*
X200736D01*
Y197486D01*
X200689D01*
Y197440D01*
X200642D01*
Y197393D01*
X200595D01*
Y197299D01*
X200548D01*
Y197252D01*
Y197205D01*
X200501D01*
Y197158D01*
X200454D01*
Y197064D01*
X200408D01*
Y197017D01*
X200361D01*
Y196923D01*
X200314D01*
Y196877D01*
X200267D01*
Y196783D01*
X200220D01*
Y196736D01*
X200173D01*
Y196642D01*
X200126D01*
Y196595D01*
X200079D01*
Y196501D01*
X200032D01*
Y196454D01*
X199985D01*
Y196361D01*
X199938D01*
Y196314D01*
X199891D01*
Y196220D01*
X199845D01*
Y196173D01*
X199798D01*
Y196079D01*
X199751D01*
Y196032D01*
X199704D01*
Y195938D01*
X199657D01*
Y195891D01*
X199610D01*
Y195798D01*
X199563D01*
Y195751D01*
X199516D01*
Y195657D01*
X199469D01*
Y195610D01*
X199422D01*
Y195516D01*
X199375D01*
Y195469D01*
X199328D01*
Y195375D01*
X199282D01*
Y195328D01*
X199235D01*
Y195235D01*
X199188D01*
Y195188D01*
X199141D01*
Y195141D01*
X199094D01*
Y195047D01*
X199047D01*
Y195000D01*
X199000D01*
Y194906D01*
X198953D01*
Y194859D01*
X198906D01*
Y194765D01*
X198859D01*
Y194719D01*
X198812D01*
Y194672D01*
X198765D01*
Y194578D01*
X198719D01*
Y194484D01*
X198672D01*
Y194437D01*
X198625D01*
Y194343D01*
X198578D01*
Y194296D01*
X198531D01*
Y194202D01*
X198484D01*
Y194156D01*
X198437D01*
Y194062D01*
X198390D01*
Y194015D01*
X198343D01*
Y193968D01*
X198296D01*
Y193874D01*
X198249D01*
Y193827D01*
X198202D01*
Y193733D01*
X198155D01*
Y193686D01*
X198109D01*
Y193593D01*
X198062D01*
Y193546D01*
X198015D01*
Y193452D01*
X197968D01*
Y193405D01*
X197921D01*
Y193358D01*
X197874D01*
Y193311D01*
X197827D01*
Y193217D01*
X197780D01*
Y193170D01*
X197733D01*
Y193076D01*
X197686D01*
Y193029D01*
X197640D01*
Y192983D01*
X197592D01*
Y192889D01*
X197546D01*
Y192842D01*
X197499D01*
Y192748D01*
X197452D01*
Y192701D01*
X197405D01*
Y192654D01*
X197358D01*
Y192560D01*
X197311D01*
Y192514D01*
X197264D01*
Y192467D01*
X197217D01*
Y192373D01*
X197170D01*
Y192326D01*
X197123D01*
Y192279D01*
X197076D01*
Y192232D01*
X197029D01*
Y192138D01*
X196983D01*
Y192091D01*
X196936D01*
Y192044D01*
X196889D01*
Y191997D01*
X196842D01*
Y191904D01*
X196795D01*
Y191857D01*
X196748D01*
Y191810D01*
X196701D01*
Y191716D01*
X196654D01*
Y191669D01*
X196607D01*
Y191622D01*
X196560D01*
Y191575D01*
X196513D01*
Y191481D01*
X196467D01*
Y191434D01*
X196420D01*
Y191387D01*
X196373D01*
Y191341D01*
X196326D01*
Y191294D01*
X196279D01*
Y191247D01*
X196232D01*
Y191200D01*
X196185D01*
Y191106D01*
X196138D01*
Y191059D01*
X196091D01*
Y191012D01*
X196044D01*
Y190918D01*
X195997D01*
Y190871D01*
X195950D01*
Y190824D01*
X195904D01*
Y190778D01*
X195857D01*
Y190731D01*
X195810D01*
Y190684D01*
X195763D01*
Y190637D01*
X195716D01*
Y190590D01*
X195669D01*
Y190496D01*
X195622D01*
Y190449D01*
X195575D01*
Y190402D01*
X195528D01*
Y190355D01*
X195481D01*
Y190308D01*
X195434D01*
Y190261D01*
X195387D01*
Y190215D01*
X195341D01*
Y190168D01*
X195294D01*
Y190121D01*
X195247D01*
Y190074D01*
X195200D01*
Y189980D01*
X195153D01*
Y189933D01*
X195106D01*
Y189886D01*
X195059D01*
Y189839D01*
X195012D01*
Y189792D01*
X194965D01*
Y189745D01*
X194918D01*
Y189699D01*
X194871D01*
Y189652D01*
X194825D01*
Y189605D01*
X194778D01*
Y189558D01*
X194731D01*
Y189511D01*
X194684D01*
Y189464D01*
X194637D01*
Y189417D01*
X194590D01*
Y189370D01*
X194543D01*
Y189323D01*
X194496D01*
Y189276D01*
X194449D01*
Y189229D01*
X194402D01*
Y189182D01*
X194355D01*
Y189136D01*
X194308D01*
Y189089D01*
X194262D01*
Y189042D01*
X194215D01*
Y188995D01*
X194168D01*
Y188948D01*
X194121D01*
Y188901D01*
X194074D01*
Y188854D01*
X194027D01*
Y188807D01*
X193980D01*
Y188760D01*
X193886D01*
Y188666D01*
X193792D01*
Y188619D01*
X193745D01*
Y188573D01*
X193699D01*
Y188526D01*
X193652D01*
Y188479D01*
X193605D01*
Y188432D01*
X193558D01*
Y188385D01*
X193511D01*
Y188338D01*
X193464D01*
Y188291D01*
X193417D01*
Y188244D01*
X193370D01*
Y188197D01*
X193276D01*
Y188150D01*
X193229D01*
Y188103D01*
X193183D01*
Y188057D01*
X193135D01*
Y188010D01*
X193089D01*
Y187963D01*
X192995D01*
Y187869D01*
X193042D01*
Y187822D01*
X193089D01*
Y187775D01*
X193135D01*
Y187681D01*
X193183D01*
Y187634D01*
X193229D01*
Y187587D01*
X193276D01*
Y187540D01*
X193323D01*
Y187494D01*
X193370D01*
Y187447D01*
X193417D01*
Y187400D01*
X193464D01*
Y187353D01*
X193511D01*
Y187259D01*
X193558D01*
Y187212D01*
X193605D01*
Y187165D01*
X193652D01*
Y187118D01*
X193699D01*
Y187071D01*
X193792D01*
Y187118D01*
X193839D01*
Y187165D01*
X193886D01*
Y187212D01*
X193980D01*
Y187306D01*
X194027D01*
Y187353D01*
X194121D01*
Y187400D01*
X194168D01*
Y187447D01*
X194215D01*
Y187494D01*
X194262D01*
Y187540D01*
X194308D01*
Y187587D01*
X194355D01*
Y187634D01*
X194402D01*
Y187681D01*
X194449D01*
Y187728D01*
X194496D01*
Y187775D01*
X194543D01*
Y187822D01*
X194590D01*
Y187869D01*
X194637D01*
Y187916D01*
X194684D01*
Y187963D01*
X194731D01*
Y188010D01*
X194778D01*
Y188057D01*
X194825D01*
Y188103D01*
X194871D01*
Y188150D01*
X194918D01*
Y188197D01*
X194965D01*
Y188244D01*
X195012D01*
Y188291D01*
X195059D01*
Y188338D01*
X195106D01*
Y188385D01*
X195153D01*
Y188479D01*
X195200D01*
Y188526D01*
X195247D01*
Y188573D01*
X195294D01*
Y188619D01*
X195341D01*
Y188666D01*
X195387D01*
Y188713D01*
X195434D01*
Y188760D01*
X195481D01*
Y188807D01*
X195528D01*
Y188854D01*
X195575D01*
Y188948D01*
X195622D01*
Y188995D01*
X195669D01*
Y189042D01*
X195716D01*
Y189089D01*
X195763D01*
Y189136D01*
X195810D01*
Y189182D01*
X195857D01*
Y189229D01*
X195904D01*
Y189323D01*
X195950D01*
Y189370D01*
X195997D01*
Y189417D01*
X196044D01*
Y189464D01*
X196091D01*
Y189511D01*
X196138D01*
Y189558D01*
X196185D01*
Y189652D01*
X196232D01*
Y189699D01*
X196279D01*
Y189745D01*
X196326D01*
Y189792D01*
X196373D01*
Y189839D01*
X196420D01*
Y189933D01*
X196467D01*
Y189980D01*
X196513D01*
Y190027D01*
X196560D01*
Y190074D01*
X196607D01*
Y190168D01*
X196654D01*
Y190215D01*
X196701D01*
Y190261D01*
X196748D01*
Y190308D01*
X196795D01*
Y190402D01*
X196842D01*
Y190449D01*
X196889D01*
Y190496D01*
X196936D01*
Y190543D01*
X196983D01*
Y190590D01*
X197029D01*
Y190684D01*
X197076D01*
Y190731D01*
X197123D01*
Y190778D01*
X197170D01*
Y190871D01*
X197217D01*
Y190918D01*
X197264D01*
Y190965D01*
X197311D01*
Y191059D01*
X197358D01*
Y191106D01*
X197405D01*
Y191153D01*
X197452D01*
Y191247D01*
X197499D01*
Y191294D01*
X197546D01*
Y191341D01*
X197592D01*
Y191434D01*
X197640D01*
Y191481D01*
X197686D01*
Y191575D01*
X197733D01*
Y191622D01*
X197780D01*
Y191669D01*
X197827D01*
Y191716D01*
X197874D01*
Y191810D01*
X197921D01*
Y191857D01*
X197968D01*
Y191951D01*
X198015D01*
Y191997D01*
X198062D01*
Y192091D01*
X198109D01*
Y192138D01*
X198155D01*
Y192185D01*
X198202D01*
Y192279D01*
X198249D01*
Y192326D01*
X198296D01*
Y192420D01*
X198343D01*
Y192467D01*
X198390D01*
Y192560D01*
X198437D01*
Y192607D01*
X198484D01*
Y192701D01*
X198531D01*
Y192748D01*
X198578D01*
Y192842D01*
X198625D01*
Y192889D01*
X198672D01*
Y192983D01*
X198719D01*
Y193029D01*
X198765D01*
Y193123D01*
X198812D01*
Y193170D01*
X198859D01*
Y193217D01*
X198906D01*
Y193311D01*
X198953D01*
Y193405D01*
X199000D01*
Y193499D01*
X199047D01*
Y193546D01*
X199094D01*
Y193593D01*
X199141D01*
Y193686D01*
X199188D01*
Y193733D01*
X199235D01*
Y193827D01*
X199282D01*
Y193921D01*
X199328D01*
Y193968D01*
X199375D01*
Y194062D01*
X199422D01*
Y194156D01*
X199469D01*
Y194249D01*
X199516D01*
Y194296D01*
X199563D01*
Y194343D01*
X199610D01*
Y194437D01*
X199657D01*
Y194531D01*
X199704D01*
Y194625D01*
X199751D01*
Y194672D01*
X199798D01*
Y194765D01*
X199845D01*
Y194859D01*
X199891D01*
Y194906D01*
X199938D01*
Y195000D01*
X199985D01*
Y195094D01*
X200032D01*
Y195188D01*
X200079D01*
Y195235D01*
X200126D01*
Y195328D01*
X200173D01*
Y195422D01*
X200220D01*
Y195469D01*
X200267D01*
Y195563D01*
X200314D01*
Y195610D01*
X200361D01*
Y195704D01*
X200408D01*
Y195798D01*
X200454D01*
Y195891D01*
X200501D01*
Y195985D01*
X200548D01*
Y196032D01*
X200595D01*
Y196126D01*
X200642D01*
Y196220D01*
X200689D01*
Y196314D01*
X200736D01*
Y196407D01*
X200783D01*
Y196454D01*
X200830D01*
Y196548D01*
X200877D01*
Y196642D01*
X200923D01*
Y196736D01*
X200971D01*
Y196783D01*
X201017D01*
Y196877D01*
X201064D01*
Y196970D01*
X201111D01*
Y197064D01*
X201158D01*
Y197158D01*
X201205D01*
Y197252D01*
X201252D01*
Y197346D01*
X201299D01*
Y197440D01*
X201346D01*
Y197486D01*
X201393D01*
Y197580D01*
X201440D01*
Y197674D01*
X201486D01*
Y197721D01*
X201533D01*
Y197862D01*
X201580D01*
Y197909D01*
X201627D01*
Y198049D01*
X201674D01*
Y198096D01*
X201721D01*
Y198190D01*
X201768D01*
Y198284D01*
X201815D01*
Y198378D01*
X201862D01*
Y198472D01*
X201909D01*
Y198566D01*
X201956D01*
Y198659D01*
X202003D01*
Y198753D01*
X202049D01*
Y198847D01*
X202096D01*
Y198941D01*
X202143D01*
Y199035D01*
X202190D01*
Y199129D01*
X202237D01*
Y199222D01*
X202284D01*
Y199316D01*
X202331D01*
Y199410D01*
X202378D01*
Y199504D01*
X202425D01*
Y199598D01*
X202472D01*
Y199692D01*
X202519D01*
Y199832D01*
X202566D01*
Y199926D01*
X202612D01*
Y199973D01*
X202659D01*
Y200114D01*
X202706D01*
Y200208D01*
X202753D01*
Y200302D01*
X202800D01*
Y200395D01*
X202847D01*
Y200489D01*
X202894D01*
Y200630D01*
X202941D01*
Y200724D01*
X202988D01*
Y200817D01*
X203035D01*
Y200911D01*
X203082D01*
Y201005D01*
X203129D01*
Y201099D01*
X203175D01*
Y201240D01*
X203222D01*
Y201334D01*
X203269D01*
Y201427D01*
X203316D01*
Y201568D01*
X203363D01*
Y201662D01*
X203410D01*
Y201756D01*
X203457D01*
Y201897D01*
X203504D01*
Y201990D01*
X203551D01*
Y202084D01*
X203598D01*
Y202225D01*
X203645D01*
Y202319D01*
X203692D01*
Y202413D01*
X203738D01*
Y202553D01*
X203785D01*
Y202694D01*
X203832D01*
Y202788D01*
X203879D01*
Y202882D01*
X203926D01*
Y203023D01*
X203973D01*
Y203116D01*
X204020D01*
Y203257D01*
X204067D01*
Y203351D01*
X204114D01*
Y203539D01*
X204161D01*
Y203632D01*
X204208D01*
Y203773D01*
X204255D01*
Y203914D01*
X204302D01*
Y204055D01*
X204348D01*
Y204149D01*
X204395D01*
Y204289D01*
X204442D01*
Y204430D01*
X204489D01*
Y204571D01*
X204536D01*
Y204712D01*
X204583D01*
Y204899D01*
X204630D01*
Y205040D01*
X204677D01*
Y205181D01*
X204724D01*
Y205322D01*
X204771D01*
Y205509D01*
X204818D01*
Y205697D01*
X204865D01*
Y205884D01*
X204911D01*
Y206072D01*
X204958D01*
Y206260D01*
X205005D01*
Y206447D01*
X205052D01*
Y206635D01*
X205099D01*
Y206823D01*
X205146D01*
Y207057D01*
X205193D01*
Y207245D01*
X205240D01*
Y207480D01*
X205287D01*
Y207761D01*
X205334D01*
Y207996D01*
X205381D01*
Y208324D01*
X205427D01*
Y208559D01*
X205474D01*
Y208840D01*
X205521D01*
Y209215D01*
X205568D01*
Y209591D01*
X205615D01*
Y210060D01*
X205662D01*
Y211983D01*
D02*
G37*
G36*
X179952Y193264D02*
X179905D01*
Y193123D01*
X179858D01*
Y192936D01*
X179812D01*
Y192748D01*
X179765D01*
Y192514D01*
X179718D01*
Y192279D01*
X179671D01*
Y191997D01*
X179624D01*
Y191669D01*
X179577D01*
Y191341D01*
X179530D01*
Y190824D01*
X179483D01*
Y190074D01*
X179436D01*
Y188807D01*
X179483D01*
Y188713D01*
X179436D01*
Y188666D01*
X179483D01*
Y188057D01*
X179530D01*
Y187587D01*
X179577D01*
Y187259D01*
X179624D01*
Y186977D01*
X179671D01*
Y186743D01*
X179718D01*
Y186555D01*
X179765D01*
Y186321D01*
X179812D01*
Y186180D01*
X179858D01*
Y185992D01*
X179905D01*
Y185851D01*
X179952D01*
Y185711D01*
X179999D01*
Y185523D01*
X180046D01*
Y185429D01*
X180093D01*
Y185241D01*
X180140D01*
Y185101D01*
X180187D01*
Y184960D01*
X180234D01*
Y184866D01*
X180281D01*
Y184725D01*
X180328D01*
Y184632D01*
X180375D01*
Y184491D01*
X180421D01*
Y184397D01*
X180468D01*
Y184303D01*
X180515D01*
Y184209D01*
X180562D01*
Y184116D01*
X180609D01*
Y184022D01*
X180656D01*
Y183975D01*
X180703D01*
Y183881D01*
X180750D01*
Y183834D01*
X180797D01*
Y183787D01*
X180844D01*
Y183693D01*
X180891D01*
Y183599D01*
X180938D01*
Y183553D01*
X180984D01*
Y183506D01*
X181031D01*
Y183459D01*
X181078D01*
Y183412D01*
X181125D01*
Y183365D01*
X181172D01*
Y183318D01*
X181219D01*
Y183271D01*
X181266D01*
Y183224D01*
X181313D01*
Y183130D01*
X181407D01*
Y183083D01*
X181454D01*
Y183036D01*
X181500D01*
Y182990D01*
X181547D01*
Y182943D01*
X181594D01*
Y182896D01*
X181641D01*
Y182849D01*
X181688D01*
Y182802D01*
X181782D01*
Y182755D01*
X181829D01*
Y182708D01*
X181923D01*
Y182661D01*
X181970D01*
Y182614D01*
X182063D01*
Y182567D01*
X182110D01*
Y182520D01*
X182204D01*
Y182474D01*
X182298D01*
Y182427D01*
X182392D01*
Y182380D01*
X182486D01*
Y182333D01*
X182580D01*
Y182286D01*
X182673D01*
Y182239D01*
X182767D01*
Y182192D01*
X182955D01*
Y182145D01*
X183049D01*
Y182098D01*
X183236D01*
Y182051D01*
X183330D01*
Y182004D01*
X183565D01*
Y181957D01*
X183846D01*
Y181911D01*
X185019D01*
Y181957D01*
X185347D01*
Y182004D01*
X185488D01*
Y182051D01*
X185676D01*
Y182098D01*
X185910D01*
Y182145D01*
X186051D01*
Y182192D01*
X186239D01*
Y182239D01*
X186380D01*
Y182286D01*
X186520D01*
Y182333D01*
X186661D01*
Y182380D01*
X186802D01*
Y182427D01*
X186943D01*
Y182474D01*
X187083D01*
Y182520D01*
X187177D01*
Y182567D01*
X187318D01*
Y182614D01*
X187459D01*
Y182661D01*
X187553D01*
Y182708D01*
X187646D01*
Y182755D01*
X187787D01*
Y182802D01*
X187881D01*
Y182849D01*
X187975D01*
Y182896D01*
X188069D01*
Y182943D01*
X188163D01*
Y182990D01*
X188303D01*
Y183036D01*
X188397D01*
Y183083D01*
X188444D01*
Y183130D01*
X188538D01*
Y183177D01*
X188632D01*
Y183224D01*
X188725D01*
Y183271D01*
X188819D01*
Y183318D01*
X188913D01*
Y183365D01*
X188960D01*
Y183412D01*
X189054D01*
Y183459D01*
X189148D01*
Y183506D01*
X189195D01*
Y183553D01*
X189288D01*
Y183599D01*
X189382D01*
Y183646D01*
X189429D01*
Y183693D01*
X189523D01*
Y183740D01*
X189570D01*
Y183787D01*
X189664D01*
Y183834D01*
X189758D01*
Y183881D01*
X189804D01*
Y183928D01*
X189898D01*
Y183975D01*
X189945D01*
Y184022D01*
X189992D01*
Y184069D01*
X190086D01*
Y184116D01*
X190180D01*
Y184162D01*
X190274D01*
Y184209D01*
X190321D01*
Y184256D01*
X190367D01*
Y184303D01*
X190461D01*
Y184350D01*
X190508D01*
Y184397D01*
X190602D01*
Y184444D01*
X190649D01*
Y184491D01*
X190696D01*
Y184538D01*
X190790D01*
Y184585D01*
X190837D01*
Y184632D01*
X190930D01*
Y184678D01*
X190977D01*
Y184725D01*
X191071D01*
Y184772D01*
X191118D01*
Y184819D01*
X191165D01*
Y184866D01*
X191259D01*
Y184913D01*
X191306D01*
Y184960D01*
X191353D01*
Y185007D01*
X191400D01*
Y185054D01*
X191493D01*
Y185101D01*
X191540D01*
Y185148D01*
X191587D01*
Y185195D01*
X191634D01*
Y185241D01*
X191728D01*
Y185288D01*
X191775D01*
Y185335D01*
X191822D01*
Y185382D01*
X191869D01*
Y185429D01*
X191963D01*
Y185476D01*
X192010D01*
Y185523D01*
X192057D01*
Y185570D01*
X192103D01*
Y185617D01*
X192150D01*
Y185664D01*
X192197D01*
Y185711D01*
X192291D01*
Y185758D01*
X192338D01*
Y185804D01*
X192385D01*
Y185851D01*
X192432D01*
Y185898D01*
X192479D01*
Y185945D01*
X192526D01*
Y185992D01*
X192573D01*
Y186039D01*
X192666D01*
Y186086D01*
X192713D01*
Y186133D01*
X192760D01*
Y186180D01*
X192807D01*
Y186227D01*
X192854D01*
Y186274D01*
X192901D01*
Y186321D01*
X192948D01*
Y186414D01*
X192901D01*
Y186461D01*
X192854D01*
Y186508D01*
X192807D01*
Y186555D01*
X192760D01*
Y186602D01*
X192713D01*
Y186649D01*
X192666D01*
Y186743D01*
X192620D01*
Y186790D01*
X192573D01*
Y186837D01*
X192526D01*
Y186884D01*
X192479D01*
Y186931D01*
X192432D01*
Y186977D01*
X192385D01*
Y187024D01*
X192338D01*
Y187071D01*
X192291D01*
Y187118D01*
X192244D01*
Y187165D01*
X192197D01*
Y187212D01*
X192103D01*
Y187165D01*
X192057D01*
Y187118D01*
X192010D01*
Y187071D01*
X191963D01*
Y187024D01*
X191869D01*
Y186977D01*
X191822D01*
Y186931D01*
X191775D01*
Y186884D01*
X191728D01*
Y186837D01*
X191634D01*
Y186790D01*
X191587D01*
Y186743D01*
X191540D01*
Y186696D01*
X191493D01*
Y186649D01*
X191447D01*
Y186602D01*
X191353D01*
Y186555D01*
X191306D01*
Y186508D01*
X191259D01*
Y186461D01*
X191165D01*
Y186414D01*
X191118D01*
Y186367D01*
X191071D01*
Y186321D01*
X191024D01*
Y186274D01*
X190930D01*
Y186227D01*
X190884D01*
Y186180D01*
X190790D01*
Y186133D01*
X190743D01*
Y186086D01*
X190696D01*
Y186039D01*
X190649D01*
Y185992D01*
X190555D01*
Y185945D01*
X190508D01*
Y185898D01*
X190414D01*
Y185851D01*
X190367D01*
Y185804D01*
X190321D01*
Y185758D01*
X190227D01*
Y185711D01*
X190180D01*
Y185664D01*
X190086D01*
Y185617D01*
X190039D01*
Y185570D01*
X189945D01*
Y185523D01*
X189898D01*
Y185476D01*
X189804D01*
Y185429D01*
X189758D01*
Y185382D01*
X189664D01*
Y185335D01*
X189570D01*
Y185288D01*
X189523D01*
Y185241D01*
X189429D01*
Y185195D01*
X189335D01*
Y185148D01*
X189288D01*
Y185101D01*
X189195D01*
Y185054D01*
X189101D01*
Y185007D01*
X189007D01*
Y184960D01*
X188913D01*
Y184913D01*
X188819D01*
Y184866D01*
X188725D01*
Y184819D01*
X188632D01*
Y184772D01*
X188538D01*
Y184725D01*
X188444D01*
Y184678D01*
X188350D01*
Y184632D01*
X188256D01*
Y184585D01*
X188209D01*
Y184538D01*
X188069D01*
Y184491D01*
X187975D01*
Y184444D01*
X187834D01*
Y184397D01*
X187740D01*
Y184350D01*
X187600D01*
Y184303D01*
X187459D01*
Y184256D01*
X187365D01*
Y184209D01*
X187224D01*
Y184162D01*
X187083D01*
Y184116D01*
X186943D01*
Y184069D01*
X186755D01*
Y184022D01*
X186614D01*
Y183975D01*
X186380D01*
Y183928D01*
X186145D01*
Y183881D01*
X185864D01*
Y183834D01*
X185535D01*
Y183787D01*
X185160D01*
Y183740D01*
X184081D01*
Y183787D01*
X183752D01*
Y183834D01*
X183518D01*
Y183881D01*
X183377D01*
Y183928D01*
X183236D01*
Y183975D01*
X183096D01*
Y184022D01*
X183002D01*
Y184069D01*
X182908D01*
Y184116D01*
X182814D01*
Y184162D01*
X182720D01*
Y184209D01*
X182626D01*
Y184256D01*
X182533D01*
Y184303D01*
X182439D01*
Y184350D01*
X182345D01*
Y184397D01*
X182298D01*
Y184444D01*
X182204D01*
Y184491D01*
X182157D01*
Y184538D01*
X182063D01*
Y184585D01*
X182017D01*
Y184632D01*
X181970D01*
Y184678D01*
X181876D01*
Y184725D01*
X181829D01*
Y184772D01*
X181782D01*
Y184819D01*
X181735D01*
Y184866D01*
X181641D01*
Y184913D01*
X181594D01*
Y184960D01*
X181547D01*
Y185007D01*
X181500D01*
Y185054D01*
X181454D01*
Y185101D01*
X181407D01*
Y185148D01*
X181360D01*
Y185195D01*
X181313D01*
Y185241D01*
X181266D01*
Y185335D01*
X181219D01*
Y185382D01*
X181172D01*
Y185429D01*
X181125D01*
Y185476D01*
X181078D01*
Y185523D01*
X181031D01*
Y185617D01*
X180984D01*
Y185664D01*
X180938D01*
Y185758D01*
X180891D01*
Y185804D01*
X180844D01*
Y185898D01*
X180797D01*
Y185945D01*
X180750D01*
Y186039D01*
X180703D01*
Y186133D01*
X180656D01*
Y186180D01*
Y186227D01*
X180609D01*
Y186321D01*
X180562D01*
Y186461D01*
X180515D01*
Y186508D01*
X180468D01*
Y186649D01*
X180421D01*
Y186743D01*
X180375D01*
Y186931D01*
X180328D01*
Y187024D01*
X180281D01*
Y187165D01*
X180234D01*
Y187306D01*
X180187D01*
Y187494D01*
X180140D01*
Y187634D01*
X180093D01*
Y187822D01*
X180046D01*
Y188010D01*
X179999D01*
Y188197D01*
X179952D01*
Y188385D01*
X179905D01*
Y188713D01*
X179858D01*
Y188948D01*
X179812D01*
Y189464D01*
X179765D01*
Y191247D01*
X179812D01*
Y191951D01*
X179858D01*
Y192560D01*
X179905D01*
Y193029D01*
X179952D01*
Y193264D01*
D02*
G37*
G36*
X184691Y205556D02*
X184550D01*
Y205509D01*
X184315D01*
Y205462D01*
X184081D01*
Y205415D01*
X183893D01*
Y205368D01*
X183659D01*
Y205322D01*
X183612D01*
Y205228D01*
X183659D01*
Y205040D01*
X183705D01*
Y204852D01*
X183752D01*
Y204665D01*
X183799D01*
Y204524D01*
X183846D01*
Y204336D01*
X183893D01*
Y204195D01*
X183940D01*
Y204008D01*
X183987D01*
Y203820D01*
X184034D01*
Y203632D01*
X184081D01*
Y203492D01*
X184128D01*
Y203304D01*
X184175D01*
Y203163D01*
X184222D01*
Y202976D01*
X184268D01*
Y202835D01*
X184315D01*
Y202647D01*
X184362D01*
Y202506D01*
X184409D01*
Y202319D01*
X184456D01*
Y202178D01*
X184503D01*
Y201990D01*
X184550D01*
Y201850D01*
X184597D01*
Y201709D01*
X184644D01*
Y201568D01*
X184691D01*
Y201427D01*
X184738D01*
Y201287D01*
X184784D01*
Y201099D01*
X184832D01*
Y200958D01*
X184878D01*
Y200817D01*
X184925D01*
Y200677D01*
X184972D01*
Y200536D01*
X185019D01*
Y200442D01*
X185066D01*
Y200302D01*
X185113D01*
Y200161D01*
X185160D01*
Y200020D01*
X185207D01*
Y199879D01*
X185254D01*
Y199785D01*
X185301D01*
Y199645D01*
X185347D01*
Y199504D01*
X185395D01*
Y199363D01*
X185441D01*
Y199269D01*
X185488D01*
Y199129D01*
X185535D01*
Y199035D01*
X185582D01*
Y198894D01*
X185629D01*
Y198800D01*
X185676D01*
Y198659D01*
X185723D01*
Y198566D01*
X185770D01*
Y198425D01*
X185817D01*
Y198331D01*
X185864D01*
Y198237D01*
X185910D01*
Y198096D01*
X185957D01*
Y198003D01*
X186004D01*
Y197862D01*
X186051D01*
Y197768D01*
X186098D01*
Y197674D01*
X186145D01*
Y197580D01*
X186192D01*
Y197440D01*
X186239D01*
Y197346D01*
X186286D01*
Y197252D01*
X186333D01*
Y197111D01*
X186380D01*
Y197017D01*
X186427D01*
Y196923D01*
X186474D01*
Y196830D01*
X186520D01*
Y196736D01*
X186567D01*
Y196642D01*
X186614D01*
Y196548D01*
X186661D01*
Y196454D01*
X186708D01*
Y196361D01*
X186755D01*
Y196267D01*
X186802D01*
Y196173D01*
X186849D01*
Y196079D01*
X186896D01*
Y195985D01*
X186943D01*
Y195891D01*
X186990D01*
Y195751D01*
X187037D01*
Y195657D01*
X187083D01*
Y195610D01*
X187130D01*
Y195469D01*
X187177D01*
Y195422D01*
X187224D01*
Y195328D01*
X187271D01*
Y195235D01*
X187318D01*
Y195141D01*
X187365D01*
Y195047D01*
X187412D01*
Y194953D01*
X187459D01*
Y194859D01*
X187506D01*
Y194812D01*
X187553D01*
Y194719D01*
X187600D01*
Y194625D01*
X187646D01*
Y194531D01*
X187693D01*
Y194437D01*
X187740D01*
Y194343D01*
X187787D01*
Y194296D01*
X187834D01*
Y194202D01*
X187881D01*
Y194109D01*
X187928D01*
Y194015D01*
X187975D01*
Y193968D01*
X188022D01*
Y193874D01*
X188069D01*
Y193780D01*
X188116D01*
Y193686D01*
X188163D01*
Y193639D01*
X188209D01*
Y193546D01*
X188256D01*
Y193452D01*
X188303D01*
Y193405D01*
X188350D01*
Y193311D01*
X188397D01*
Y193217D01*
X188444D01*
Y193170D01*
X188491D01*
Y193076D01*
X188538D01*
Y192983D01*
X188585D01*
Y192936D01*
X188632D01*
Y192842D01*
X188679D01*
Y192795D01*
X188725D01*
Y192701D01*
X188772D01*
Y192607D01*
X188819D01*
Y192560D01*
X188866D01*
Y192467D01*
X188913D01*
Y192420D01*
X188960D01*
Y192326D01*
X189007D01*
Y192232D01*
X189054D01*
Y192185D01*
X189101D01*
Y192091D01*
X189148D01*
Y192044D01*
X189195D01*
Y191951D01*
X189242D01*
Y191904D01*
X189288D01*
Y191810D01*
X189335D01*
Y191716D01*
X189382D01*
Y191669D01*
X189429D01*
Y191575D01*
X189476D01*
Y191528D01*
X189523D01*
Y191434D01*
X189570D01*
Y191387D01*
X189617D01*
Y191294D01*
X189664D01*
Y191247D01*
X189711D01*
Y191153D01*
X189758D01*
Y191106D01*
X189804D01*
Y191012D01*
X189851D01*
Y190965D01*
X189898D01*
Y190871D01*
X189945D01*
Y190824D01*
X189992D01*
Y190731D01*
X190039D01*
Y190684D01*
X190086D01*
Y190590D01*
X190133D01*
Y190543D01*
X190180D01*
Y190449D01*
X190227D01*
Y190402D01*
X190274D01*
Y190355D01*
X190321D01*
Y190261D01*
X190367D01*
Y190215D01*
X190414D01*
Y190121D01*
X190461D01*
Y190074D01*
X190508D01*
Y189980D01*
X190555D01*
Y189933D01*
X190602D01*
Y189886D01*
X190649D01*
Y189792D01*
X190696D01*
Y189745D01*
X190743D01*
Y189652D01*
X190790D01*
Y189605D01*
X190837D01*
Y189558D01*
X190884D01*
Y189464D01*
X190930D01*
Y189417D01*
X190977D01*
Y189370D01*
X191024D01*
Y189276D01*
X191071D01*
Y189229D01*
X191118D01*
Y189182D01*
X191165D01*
Y189089D01*
X191212D01*
Y189042D01*
X191259D01*
Y188995D01*
X191306D01*
Y188901D01*
X191353D01*
Y188854D01*
X191400D01*
Y188807D01*
X191447D01*
Y188713D01*
X191493D01*
Y188666D01*
X191540D01*
Y188619D01*
X191587D01*
Y188526D01*
X191634D01*
Y188479D01*
X191681D01*
Y188432D01*
X191728D01*
Y188338D01*
X191775D01*
Y188291D01*
X191822D01*
Y188244D01*
X191869D01*
Y188150D01*
X191916D01*
Y188103D01*
X191963D01*
Y188057D01*
X192010D01*
Y188010D01*
X192057D01*
Y187963D01*
X192103D01*
Y187869D01*
X192150D01*
Y187822D01*
X192197D01*
Y187775D01*
X192244D01*
Y187728D01*
X192291D01*
Y187634D01*
X192338D01*
Y187587D01*
X192385D01*
Y187540D01*
X192432D01*
Y187494D01*
X192479D01*
Y187400D01*
X192526D01*
Y187353D01*
X192573D01*
Y187306D01*
X192620D01*
Y187259D01*
X192666D01*
Y187212D01*
X192713D01*
Y187118D01*
X192760D01*
Y187071D01*
X192807D01*
Y187024D01*
X192854D01*
Y186977D01*
X192901D01*
Y186931D01*
X192948D01*
Y186837D01*
X192995D01*
Y186790D01*
X193042D01*
Y186743D01*
X193089D01*
Y186696D01*
X193135D01*
Y186649D01*
X193183D01*
Y186602D01*
X193229D01*
Y186508D01*
X193276D01*
Y186461D01*
X193323D01*
Y186414D01*
X193370D01*
Y186367D01*
X193417D01*
Y186321D01*
X193464D01*
Y186274D01*
X193511D01*
Y186180D01*
X193558D01*
Y186133D01*
X193605D01*
Y186086D01*
X193652D01*
Y186039D01*
X193699D01*
Y185992D01*
X193745D01*
Y185945D01*
X193792D01*
Y185898D01*
X193839D01*
Y185851D01*
X193886D01*
Y185804D01*
X193933D01*
Y185711D01*
X193980D01*
Y185664D01*
X194027D01*
Y185617D01*
X194074D01*
Y185570D01*
X194121D01*
Y185523D01*
X194168D01*
Y185476D01*
X194215D01*
Y185429D01*
X194262D01*
Y185382D01*
X194308D01*
Y185335D01*
X194355D01*
Y185288D01*
X194402D01*
Y185241D01*
X194449D01*
Y185195D01*
X194496D01*
Y185148D01*
X194543D01*
Y185054D01*
X194637D01*
Y185007D01*
X194684D01*
Y184960D01*
X194731D01*
Y184913D01*
X194778D01*
Y184819D01*
X194825D01*
Y184772D01*
X194871D01*
Y184725D01*
X194918D01*
Y184678D01*
X194965D01*
Y184632D01*
X195012D01*
Y184585D01*
X195059D01*
Y184538D01*
X195106D01*
Y184491D01*
X195153D01*
Y184444D01*
X195200D01*
Y184397D01*
X195247D01*
Y184350D01*
X195294D01*
Y184303D01*
X195387D01*
Y184256D01*
X195434D01*
Y184209D01*
X195481D01*
Y184162D01*
X195528D01*
Y184116D01*
X195575D01*
Y184069D01*
X195622D01*
Y184022D01*
X195669D01*
Y183975D01*
X195716D01*
Y183928D01*
X195763D01*
Y183881D01*
X195810D01*
Y183834D01*
X195857D01*
Y183787D01*
X195904D01*
Y183740D01*
X195950D01*
Y183693D01*
X195997D01*
Y183646D01*
X196044D01*
Y183599D01*
X196091D01*
Y183553D01*
X196185D01*
Y183459D01*
X196279D01*
Y183412D01*
X196326D01*
Y183365D01*
X196373D01*
Y183318D01*
X196420D01*
Y183271D01*
X196467D01*
Y183224D01*
X196513D01*
Y183177D01*
X196607D01*
Y183130D01*
X196654D01*
Y183083D01*
X196701D01*
Y183036D01*
X196748D01*
Y182990D01*
X196795D01*
Y182943D01*
X196842D01*
Y182896D01*
X196936D01*
Y182849D01*
X196983D01*
Y182802D01*
X197029D01*
Y182755D01*
X197076D01*
Y182708D01*
X197170D01*
Y182661D01*
X197217D01*
Y182614D01*
X197264D01*
Y182567D01*
X197311D01*
Y182520D01*
X197358D01*
Y182474D01*
X197452D01*
Y182427D01*
X197499D01*
Y182380D01*
X197592D01*
Y182333D01*
X197640D01*
Y182286D01*
X197686D01*
Y182239D01*
X197780D01*
Y182192D01*
X197827D01*
Y182145D01*
X197874D01*
Y182098D01*
X197968D01*
Y182051D01*
X198015D01*
Y182004D01*
X198062D01*
Y181957D01*
X198155D01*
Y181911D01*
X198202D01*
Y181864D01*
X198296D01*
Y181817D01*
X198343D01*
Y181770D01*
X198437D01*
Y181723D01*
X198484D01*
Y181676D01*
X198578D01*
Y181629D01*
X198625D01*
Y181582D01*
X198719D01*
Y181535D01*
X198765D01*
Y181488D01*
X198859D01*
Y181441D01*
X198906D01*
Y181395D01*
X199000D01*
Y181348D01*
X199047D01*
Y181301D01*
X199141D01*
Y181254D01*
X199188D01*
Y181207D01*
X199282D01*
Y181160D01*
X199375D01*
Y181113D01*
X199422D01*
Y181066D01*
X199516D01*
Y181019D01*
X199610D01*
Y180972D01*
X199704D01*
Y180925D01*
X199798D01*
Y180878D01*
X199891D01*
Y180925D01*
X199845D01*
Y180972D01*
X199798D01*
Y181019D01*
X199751D01*
Y181066D01*
X199704D01*
Y181113D01*
X199657D01*
Y181160D01*
X199563D01*
Y181207D01*
X199516D01*
Y181254D01*
X199469D01*
Y181301D01*
X199375D01*
Y181348D01*
X199328D01*
Y181395D01*
X199282D01*
Y181441D01*
X199235D01*
Y181488D01*
X199188D01*
Y181535D01*
X199094D01*
Y181582D01*
X199047D01*
Y181629D01*
X198953D01*
Y181676D01*
X198906D01*
Y181723D01*
X198859D01*
Y181770D01*
X198812D01*
Y181817D01*
X198765D01*
Y181864D01*
X198672D01*
Y181911D01*
X198625D01*
Y181957D01*
X198578D01*
Y182004D01*
X198531D01*
Y182051D01*
X198437D01*
Y182098D01*
X198390D01*
Y182145D01*
X198343D01*
Y182192D01*
X198296D01*
Y182239D01*
X198202D01*
Y182286D01*
X198155D01*
Y182333D01*
X198109D01*
Y182380D01*
X198062D01*
Y182427D01*
X197968D01*
Y182474D01*
X197921D01*
Y182520D01*
X197874D01*
Y182567D01*
X197827D01*
Y182614D01*
X197780D01*
Y182661D01*
X197686D01*
Y182708D01*
X197640D01*
Y182755D01*
X197592D01*
Y182802D01*
X197546D01*
Y182849D01*
X197499D01*
Y182896D01*
X197452D01*
Y182943D01*
X197405D01*
Y182990D01*
X197311D01*
Y183036D01*
X197264D01*
Y183083D01*
X197217D01*
Y183130D01*
X197170D01*
Y183177D01*
X197123D01*
Y183224D01*
X197076D01*
Y183271D01*
X196983D01*
Y183318D01*
X196936D01*
Y183365D01*
X196889D01*
Y183412D01*
X196842D01*
Y183459D01*
X196795D01*
Y183506D01*
X196748D01*
Y183553D01*
X196701D01*
Y183599D01*
X196607D01*
Y183693D01*
X196513D01*
Y183740D01*
X196467D01*
Y183787D01*
X196420D01*
Y183834D01*
X196373D01*
Y183881D01*
X196326D01*
Y183928D01*
X196279D01*
Y183975D01*
X196232D01*
Y184022D01*
X196185D01*
Y184069D01*
X196138D01*
Y184116D01*
X196091D01*
Y184162D01*
X196044D01*
Y184209D01*
X195950D01*
Y184256D01*
X195904D01*
Y184303D01*
X195857D01*
Y184397D01*
X195763D01*
Y184444D01*
X195716D01*
Y184491D01*
X195669D01*
Y184538D01*
X195622D01*
Y184585D01*
X195575D01*
Y184632D01*
X195528D01*
Y184678D01*
X195481D01*
Y184725D01*
X195434D01*
Y184772D01*
X195387D01*
Y184819D01*
X195341D01*
Y184866D01*
X195294D01*
Y184913D01*
X195247D01*
Y184960D01*
X195200D01*
Y185007D01*
X195153D01*
Y185054D01*
X195106D01*
Y185101D01*
X195059D01*
Y185148D01*
X195012D01*
Y185195D01*
X194965D01*
Y185241D01*
X194918D01*
Y185288D01*
X194871D01*
Y185382D01*
X194778D01*
Y185429D01*
X194731D01*
Y185476D01*
X194684D01*
Y185570D01*
X194637D01*
Y185617D01*
X194590D01*
Y185664D01*
X194543D01*
Y185711D01*
X194496D01*
Y185758D01*
X194449D01*
Y185804D01*
X194402D01*
Y185851D01*
X194355D01*
Y185898D01*
X194308D01*
Y185945D01*
X194262D01*
Y185992D01*
X194215D01*
Y186039D01*
X194168D01*
Y186133D01*
X194121D01*
Y186180D01*
X194074D01*
Y186227D01*
X194027D01*
Y186274D01*
X193980D01*
Y186321D01*
X193933D01*
Y186367D01*
X193886D01*
Y186414D01*
X193839D01*
Y186508D01*
X193792D01*
Y186555D01*
X193745D01*
Y186602D01*
X193699D01*
Y186649D01*
X193652D01*
Y186696D01*
X193605D01*
Y186743D01*
X193558D01*
Y186790D01*
X193511D01*
Y186884D01*
X193464D01*
Y186931D01*
X193417D01*
Y186977D01*
X193370D01*
Y187071D01*
X193323D01*
Y187118D01*
X193276D01*
Y187165D01*
X193229D01*
Y187212D01*
X193183D01*
Y187259D01*
X193135D01*
Y187353D01*
X193089D01*
Y187400D01*
X193042D01*
Y187447D01*
X192995D01*
Y187494D01*
X192948D01*
Y187587D01*
X192901D01*
Y187634D01*
X192854D01*
Y187681D01*
X192807D01*
Y187728D01*
X192760D01*
Y187822D01*
X192713D01*
Y187869D01*
X192666D01*
Y187916D01*
X192620D01*
Y187963D01*
X192573D01*
Y188057D01*
X192526D01*
Y188103D01*
X192479D01*
Y188150D01*
X192432D01*
Y188244D01*
X192385D01*
Y188291D01*
X192338D01*
Y188385D01*
X192291D01*
Y188432D01*
X192244D01*
Y188479D01*
X192197D01*
Y188573D01*
X192150D01*
Y188619D01*
X192103D01*
Y188666D01*
X192057D01*
Y188760D01*
X192010D01*
Y188807D01*
X191963D01*
Y188854D01*
X191916D01*
Y188948D01*
X191869D01*
Y188995D01*
X191822D01*
Y189089D01*
X191775D01*
Y189136D01*
X191728D01*
Y189229D01*
X191681D01*
Y189276D01*
X191634D01*
Y189370D01*
X191587D01*
Y189417D01*
X191540D01*
Y189464D01*
X191493D01*
Y189558D01*
X191447D01*
Y189605D01*
X191400D01*
Y189699D01*
X191353D01*
Y189745D01*
X191306D01*
Y189839D01*
X191259D01*
Y189886D01*
X191212D01*
Y189980D01*
X191165D01*
Y190027D01*
X191118D01*
Y190121D01*
X191071D01*
Y190168D01*
X191024D01*
Y190261D01*
X190977D01*
Y190308D01*
X190930D01*
Y190402D01*
X190884D01*
Y190496D01*
X190837D01*
Y190543D01*
X190790D01*
Y190637D01*
X190743D01*
Y190684D01*
X190696D01*
Y190778D01*
X190649D01*
Y190824D01*
X190602D01*
Y190918D01*
X190555D01*
Y190965D01*
X190508D01*
Y191059D01*
X190461D01*
Y191106D01*
X190414D01*
Y191200D01*
X190367D01*
Y191294D01*
X190321D01*
Y191341D01*
X190274D01*
Y191434D01*
X190227D01*
Y191481D01*
X190180D01*
Y191575D01*
X190133D01*
Y191669D01*
X190086D01*
Y191716D01*
X190039D01*
Y191810D01*
X189992D01*
Y191857D01*
X189945D01*
Y191951D01*
X189898D01*
Y192044D01*
X189851D01*
Y192091D01*
X189804D01*
Y192185D01*
X189758D01*
Y192279D01*
X189711D01*
Y192326D01*
X189664D01*
Y192420D01*
X189617D01*
Y192514D01*
X189570D01*
Y192607D01*
X189523D01*
Y192654D01*
X189476D01*
Y192748D01*
X189429D01*
Y192842D01*
X189382D01*
Y192889D01*
X189335D01*
Y192983D01*
X189288D01*
Y193076D01*
X189242D01*
Y193170D01*
X189195D01*
Y193217D01*
X189148D01*
Y193311D01*
X189101D01*
Y193405D01*
X189054D01*
Y193499D01*
X189007D01*
Y193593D01*
X188960D01*
Y193639D01*
X188913D01*
Y193733D01*
X188866D01*
Y193827D01*
X188819D01*
Y193921D01*
X188772D01*
Y194015D01*
X188725D01*
Y194109D01*
X188679D01*
Y194202D01*
X188632D01*
Y194296D01*
X188585D01*
Y194343D01*
X188538D01*
Y194437D01*
X188491D01*
Y194531D01*
X188444D01*
Y194625D01*
X188397D01*
Y194719D01*
X188350D01*
Y194812D01*
X188303D01*
Y194906D01*
X188256D01*
Y195000D01*
X188209D01*
Y195094D01*
X188163D01*
Y195188D01*
X188116D01*
Y195282D01*
X188069D01*
Y195375D01*
X188022D01*
Y195469D01*
X187975D01*
Y195563D01*
X187928D01*
Y195657D01*
X187881D01*
Y195751D01*
X187834D01*
Y195844D01*
X187787D01*
Y195985D01*
X187740D01*
Y196079D01*
X187693D01*
Y196173D01*
X187646D01*
Y196267D01*
X187600D01*
Y196361D01*
X187553D01*
Y196454D01*
X187506D01*
Y196595D01*
X187459D01*
Y196689D01*
X187412D01*
Y196783D01*
X187365D01*
Y196877D01*
X187318D01*
Y196970D01*
X187271D01*
Y197111D01*
X187224D01*
Y197205D01*
X187177D01*
Y197299D01*
X187130D01*
Y197440D01*
X187083D01*
Y197533D01*
X187037D01*
Y197627D01*
X186990D01*
Y197768D01*
X186943D01*
Y197862D01*
X186896D01*
Y197956D01*
X186849D01*
Y198096D01*
X186802D01*
Y198190D01*
X186755D01*
Y198284D01*
X186708D01*
Y198425D01*
X186661D01*
Y198519D01*
X186614D01*
Y198659D01*
X186567D01*
Y198753D01*
X186520D01*
Y198894D01*
X186474D01*
Y198988D01*
X186427D01*
Y199129D01*
X186380D01*
Y199222D01*
X186333D01*
Y199363D01*
X186286D01*
Y199504D01*
X186239D01*
Y199645D01*
X186192D01*
Y199739D01*
X186145D01*
Y199879D01*
X186098D01*
Y200020D01*
X186051D01*
Y200161D01*
X186004D01*
Y200255D01*
X185957D01*
Y200395D01*
X185910D01*
Y200536D01*
X185864D01*
Y200677D01*
X185817D01*
Y200817D01*
X185770D01*
Y200958D01*
X185723D01*
Y201099D01*
X185676D01*
Y201240D01*
X185629D01*
Y201380D01*
X185582D01*
Y201568D01*
X185535D01*
Y201709D01*
X185488D01*
Y201897D01*
X185441D01*
Y202037D01*
X185395D01*
Y202225D01*
X185347D01*
Y202366D01*
X185301D01*
Y202553D01*
X185254D01*
Y202741D01*
X185207D01*
Y202929D01*
X185160D01*
Y203116D01*
X185113D01*
Y203304D01*
X185066D01*
Y203539D01*
X185019D01*
Y203726D01*
X184972D01*
Y203961D01*
X184925D01*
Y204195D01*
X184878D01*
Y204430D01*
X184832D01*
Y204712D01*
X184784D01*
Y204993D01*
X184738D01*
Y205275D01*
X184691D01*
Y205556D01*
D02*
G37*
%LPD*%
G36*
X198155Y205837D02*
X198109D01*
Y205884D01*
X198155D01*
Y205837D01*
D02*
G37*
G36*
X203879Y205181D02*
X203832D01*
Y205228D01*
X203879D01*
Y205181D01*
D02*
G37*
G36*
X178639Y204946D02*
X178592D01*
Y204993D01*
X178639D01*
Y204946D01*
D02*
G37*
G36*
X178263Y204899D02*
X178169D01*
Y204946D01*
X178263D01*
Y204899D01*
D02*
G37*
G36*
X176011Y204008D02*
X175964D01*
Y204055D01*
X176011D01*
Y204008D01*
D02*
G37*
G36*
X176058Y203914D02*
X176011D01*
Y203961D01*
X176058D01*
Y203914D01*
D02*
G37*
G36*
X175636Y203867D02*
X175589D01*
Y203914D01*
X175636D01*
Y203867D01*
D02*
G37*
G36*
X205334Y204759D02*
X205287D01*
Y204805D01*
X205334D01*
Y204759D01*
D02*
G37*
G36*
X205943Y204524D02*
X205897D01*
Y204571D01*
X205943D01*
Y204524D01*
D02*
G37*
G36*
X206788Y204149D02*
X206741D01*
Y204195D01*
X206788D01*
Y204149D01*
D02*
G37*
G36*
X206227Y203868D02*
X206168D01*
Y203927D01*
X206227D01*
Y203868D01*
D02*
G37*
G36*
X206989Y203575D02*
X206930D01*
Y203633D01*
X206989D01*
Y203575D01*
D02*
G37*
G36*
X208045Y203105D02*
X207986D01*
Y203164D01*
X208045D01*
Y203105D01*
D02*
G37*
G36*
X209368Y202788D02*
X209321D01*
Y202835D01*
X209368D01*
Y202788D01*
D02*
G37*
G36*
X206788Y202647D02*
X206741D01*
Y202694D01*
X206788D01*
Y202647D01*
D02*
G37*
G36*
X206976Y202553D02*
X206929D01*
Y202600D01*
X206976D01*
Y202553D01*
D02*
G37*
G36*
X207773Y201990D02*
X207726D01*
Y202037D01*
X207773D01*
Y201990D01*
D02*
G37*
G36*
X209697Y200255D02*
X209650D01*
Y200302D01*
X209697D01*
Y200255D01*
D02*
G37*
G36*
X211681Y198238D02*
X211622D01*
Y198297D01*
X211681D01*
Y198238D01*
D02*
G37*
G36*
X211855Y195422D02*
X211808D01*
Y195469D01*
X211855D01*
Y195422D01*
D02*
G37*
G36*
X209884Y193499D02*
X209838D01*
Y193546D01*
X209884D01*
Y193499D01*
D02*
G37*
G36*
X209509Y193076D02*
X209462D01*
Y193123D01*
X209509D01*
Y193076D01*
D02*
G37*
G36*
X209462Y192936D02*
X209415D01*
Y192983D01*
X209462D01*
Y192936D01*
D02*
G37*
G36*
X207726Y192467D02*
X207679D01*
Y192514D01*
X207726D01*
Y192467D01*
D02*
G37*
G36*
X206460Y191387D02*
X206413D01*
Y191434D01*
X206460D01*
Y191387D01*
D02*
G37*
G36*
X205427Y191012D02*
X205381D01*
Y191059D01*
X205427D01*
Y191012D01*
D02*
G37*
G36*
X204409Y204396D02*
X204350D01*
Y204454D01*
X204409D01*
Y204396D01*
D02*
G37*
%LPC*%
G36*
X98720Y176540D02*
X98512D01*
Y176470D01*
X98373D01*
Y176401D01*
X98234D01*
Y176192D01*
X98303D01*
Y175984D01*
X98373D01*
Y175845D01*
X98442D01*
Y175706D01*
X98512D01*
Y175359D01*
X98442D01*
Y175220D01*
X98373D01*
Y175081D01*
X98303D01*
Y174872D01*
X98234D01*
Y174664D01*
X98303D01*
Y174594D01*
X98442D01*
Y174525D01*
X98720D01*
Y174664D01*
X98790D01*
Y174872D01*
X98859D01*
Y175011D01*
X98929D01*
Y175150D01*
X98998D01*
Y175289D01*
X99068D01*
Y175359D01*
X99137D01*
Y175498D01*
X99207D01*
Y175567D01*
X99137D01*
Y175637D01*
X99068D01*
Y175776D01*
X98998D01*
Y175915D01*
X98929D01*
Y176054D01*
X98859D01*
Y176192D01*
X98790D01*
Y176401D01*
X98720D01*
Y176540D01*
D02*
G37*
G36*
X114769Y176679D02*
X114700D01*
Y176609D01*
X114491D01*
Y176540D01*
X114353D01*
Y176470D01*
X114214D01*
Y176401D01*
X114075D01*
Y176331D01*
X113936D01*
Y176262D01*
X113797D01*
Y176192D01*
X113658D01*
Y176123D01*
X113519D01*
Y176054D01*
X113310D01*
Y175984D01*
X113241D01*
Y175915D01*
X113310D01*
Y175845D01*
X113449D01*
Y175776D01*
X113588D01*
Y175706D01*
X113727D01*
Y175637D01*
X113866D01*
Y175567D01*
X114005D01*
Y175498D01*
X114214D01*
Y175428D01*
X114353D01*
Y175359D01*
X114491D01*
Y175289D01*
X114630D01*
Y175220D01*
X114769D01*
Y176679D01*
D02*
G37*
G36*
X99345Y172024D02*
X98859D01*
Y171954D01*
X98720D01*
Y171885D01*
X98651D01*
Y171746D01*
X98581D01*
Y171607D01*
X98512D01*
Y171329D01*
X98442D01*
Y170912D01*
X99623D01*
Y171677D01*
X99554D01*
Y171815D01*
X99484D01*
Y171885D01*
X99415D01*
Y171954D01*
X99345D01*
Y172024D01*
D02*
G37*
G36*
X97331Y171746D02*
X97053D01*
Y171677D01*
X96914D01*
Y171607D01*
X96844D01*
Y171537D01*
X96775D01*
Y171260D01*
X96705D01*
Y170912D01*
X97678D01*
Y171399D01*
X97609D01*
Y171537D01*
X97539D01*
Y171607D01*
X97470D01*
Y171677D01*
X97331D01*
Y171746D01*
D02*
G37*
G36*
X280203Y204676D02*
X279919D01*
Y204392D01*
X280203D01*
Y204676D01*
D02*
G37*
G36*
X268284Y208649D02*
X268000D01*
Y208365D01*
X267716D01*
Y206946D01*
X267432D01*
Y205527D01*
X267149D01*
Y203540D01*
X266865D01*
Y202405D01*
X266581D01*
Y200987D01*
X266297D01*
Y200419D01*
X265730D01*
Y200135D01*
X265162D01*
Y199851D01*
X264311D01*
Y199568D01*
X263176D01*
Y199284D01*
X262608D01*
Y199000D01*
X261757D01*
Y198716D01*
X261189D01*
Y198432D01*
X260054D01*
Y198149D01*
X259487D01*
Y197865D01*
X258635D01*
Y197297D01*
X259203D01*
Y197013D01*
X259770D01*
Y196730D01*
X260622D01*
Y196446D01*
X261189D01*
Y196162D01*
X261757D01*
Y195878D01*
X262608D01*
Y195595D01*
X263459D01*
Y195311D01*
X264027D01*
Y195027D01*
X264595D01*
Y194743D01*
X265162D01*
Y193041D01*
X264878D01*
Y191338D01*
X264595D01*
Y188500D01*
X264311D01*
Y186513D01*
X264595D01*
Y186797D01*
X264878D01*
Y187081D01*
X265162D01*
Y187365D01*
X265446D01*
Y187649D01*
X265730D01*
Y188216D01*
X266014D01*
Y188500D01*
X266297D01*
Y188784D01*
X266581D01*
Y189068D01*
X266865D01*
Y189351D01*
X267149D01*
Y189635D01*
X267432D01*
Y189919D01*
X267716D01*
Y190203D01*
X268000D01*
Y190770D01*
X268284D01*
Y191054D01*
X268568D01*
Y191338D01*
X268851D01*
Y191622D01*
X269135D01*
Y191905D01*
X269419D01*
Y192189D01*
X269703D01*
Y192473D01*
X269987D01*
Y192757D01*
X270270D01*
Y192473D01*
X271122D01*
Y192189D01*
X271973D01*
Y191905D01*
X273392D01*
Y191622D01*
X274243D01*
Y191338D01*
X275095D01*
Y191054D01*
X276230D01*
Y190770D01*
X277365D01*
Y191338D01*
X277081D01*
Y191622D01*
X276797D01*
Y192473D01*
X276514D01*
Y193041D01*
X276230D01*
Y193324D01*
X275946D01*
Y193892D01*
X275662D01*
Y194459D01*
X275378D01*
Y195311D01*
X275095D01*
Y195595D01*
X274811D01*
Y196446D01*
X274527D01*
Y197013D01*
X274243D01*
Y197297D01*
X273959D01*
Y197581D01*
X274243D01*
Y197865D01*
X274527D01*
Y198149D01*
X274811D01*
Y198432D01*
X275095D01*
Y199000D01*
X275378D01*
Y199284D01*
X275662D01*
Y199568D01*
X275946D01*
Y199851D01*
X276230D01*
Y200419D01*
X276797D01*
Y200987D01*
X277081D01*
Y201270D01*
X277365D01*
Y201554D01*
X277649D01*
Y201838D01*
X277932D01*
Y202122D01*
X278216D01*
Y202405D01*
X278500D01*
Y202973D01*
X278784D01*
Y203257D01*
X279068D01*
Y203540D01*
X279351D01*
Y203824D01*
X279635D01*
Y204108D01*
X279919D01*
Y204392D01*
X278784D01*
Y204108D01*
X277365D01*
Y203824D01*
X276514D01*
Y203540D01*
X275378D01*
Y203257D01*
X273959D01*
Y202973D01*
X273108D01*
Y202689D01*
X272257D01*
Y202405D01*
X271973D01*
Y202689D01*
X271689D01*
Y202973D01*
X271405D01*
Y203540D01*
X271122D01*
Y204108D01*
X270838D01*
Y204392D01*
X270554D01*
Y204960D01*
X270270D01*
Y205243D01*
X269987D01*
Y206095D01*
X269703D01*
Y206378D01*
X269419D01*
Y206662D01*
X269135D01*
Y207230D01*
X268851D01*
Y207797D01*
X268568D01*
Y208081D01*
X268284D01*
Y208649D01*
D02*
G37*
G36*
X528876Y351821D02*
X528703D01*
X528694D01*
X528685D01*
X528658D01*
X528621D01*
X528530D01*
X528412Y351812D01*
X528266Y351803D01*
X528102Y351784D01*
X527938Y351757D01*
X527756Y351730D01*
X527583Y351693D01*
X527410Y351648D01*
X527255Y351584D01*
X527109Y351520D01*
X526991Y351438D01*
X526899Y351338D01*
X526863Y351283D01*
X526836Y351229D01*
X526827Y351165D01*
X526818Y351101D01*
Y351065D01*
X526827Y351028D01*
X526845Y350983D01*
X526872Y350919D01*
X526918Y350855D01*
X526981Y350782D01*
X527063Y350719D01*
X527164Y350646D01*
X527291Y350573D01*
X527446Y350509D01*
X527637Y350445D01*
X527747Y350418D01*
X527856Y350400D01*
X527984Y350381D01*
X528120Y350363D01*
X528266Y350345D01*
X528412Y350336D01*
X528585Y350327D01*
X528758D01*
X528767D01*
X528776D01*
X528803D01*
X528840D01*
X528931Y350336D01*
X529049D01*
X529186Y350354D01*
X529341Y350363D01*
X529505Y350391D01*
X529678Y350418D01*
X529851Y350464D01*
X530015Y350509D01*
X530170Y350573D01*
X530307Y350646D01*
X530425Y350737D01*
X530516Y350837D01*
X530553Y350892D01*
X530580Y350946D01*
X530589Y351010D01*
X530598Y351083D01*
Y351119D01*
X530589Y351156D01*
X530571Y351201D01*
X530544Y351256D01*
X530498Y351320D01*
X530443Y351384D01*
X530361Y351456D01*
X530261Y351520D01*
X530133Y351584D01*
X529979Y351648D01*
X529796Y351702D01*
X529578Y351757D01*
X529459Y351775D01*
X529332Y351794D01*
X529186Y351803D01*
X529040Y351812D01*
X528876Y351821D01*
D02*
G37*
G36*
X529359Y277952D02*
X527546Y277378D01*
X527537D01*
X527510Y277369D01*
X527464Y277350D01*
X527410Y277341D01*
X527337Y277323D01*
X527246Y277305D01*
X527154Y277296D01*
X527054Y277287D01*
Y277250D01*
X527063D01*
X527091D01*
X527145Y277241D01*
X527200Y277232D01*
X527273Y277223D01*
X527355Y277205D01*
X527528Y277159D01*
X529359Y276567D01*
Y277952D01*
D02*
G37*
G36*
Y259203D02*
X527546Y258629D01*
X527537D01*
X527510Y258620D01*
X527464Y258602D01*
X527410Y258593D01*
X527337Y258575D01*
X527246Y258557D01*
X527154Y258547D01*
X527054Y258538D01*
Y258502D01*
X527063D01*
X527091D01*
X527145Y258493D01*
X527200Y258484D01*
X527273Y258474D01*
X527355Y258456D01*
X527528Y258411D01*
X529359Y257819D01*
Y259203D01*
D02*
G37*
G36*
X527710Y254011D02*
X527701D01*
X527683D01*
X527646Y254001D01*
X527601D01*
X527483Y253965D01*
X527419Y253938D01*
X527355Y253901D01*
X527291Y253856D01*
X527227Y253801D01*
X527164Y253737D01*
X527109Y253655D01*
X527063Y253555D01*
X527027Y253446D01*
X527009Y253309D01*
X527000Y253163D01*
Y252608D01*
X528512D01*
Y253200D01*
X528503Y253273D01*
X528485Y253364D01*
X528457Y253464D01*
X528412Y253573D01*
X528357Y253683D01*
X528284Y253774D01*
X528275Y253783D01*
X528239Y253810D01*
X528193Y253847D01*
X528129Y253892D01*
X528047Y253938D01*
X527947Y253974D01*
X527838Y254001D01*
X527710Y254011D01*
D02*
G37*
%LPD*%
D10*
X511583Y30000D02*
G03*
X511583Y30000I-7874J0D01*
G01*
X441291D02*
G03*
X441291Y30000I-7874J0D01*
G01*
X440756Y363500D02*
G03*
X440756Y363500I-7874J0D01*
G01*
X511047D02*
G03*
X511047Y363500I-7874J0D01*
G01*
X416906Y259500D02*
G03*
X416906Y259500I-7906J0D01*
G01*
X305906D02*
G03*
X305906Y259500I-7906J0D01*
G01*
X305406Y133500D02*
G03*
X305406Y133500I-7906J0D01*
G01*
X417078Y132500D02*
G03*
X417078Y132500I-8078J0D01*
G01*
X338000Y374500D02*
X345000D01*
X338000Y352500D02*
X345000D01*
X433417Y30000D02*
X502709D01*
X468087Y-39799D02*
Y66500D01*
X444465Y20945D02*
X491709D01*
Y-39799D02*
Y66500D01*
X444465Y-39799D02*
Y66500D01*
Y-39799D02*
X491709D01*
X444465Y66500D02*
X491709D01*
X311498Y79000D02*
X402049D01*
X311498Y315220D02*
X402049D01*
Y79000D02*
Y315220D01*
X311498Y79000D02*
Y315220D01*
X433882Y363500D02*
X503173D01*
X468504Y327000D02*
Y433299D01*
X444882Y372555D02*
X492126D01*
X444882Y327000D02*
Y433299D01*
X492126Y327000D02*
Y433299D01*
X444882D02*
X492126D01*
X444882Y327000D02*
X492126D01*
X416000Y81000D02*
X508000D01*
X416000D02*
Y306000D01*
X509000D01*
Y82000D02*
Y306000D01*
Y81000D02*
Y82000D01*
X508000Y81000D02*
X509000D01*
X526300Y223698D02*
X530800D01*
X516200D02*
X520700D01*
X516200Y201498D02*
Y223698D01*
X530800Y201498D02*
Y223698D01*
X526000Y207598D02*
Y217598D01*
X521000Y207598D02*
X526000D01*
X521000D02*
Y217598D01*
X526000D01*
X526300Y201498D02*
X530800D01*
X516200D02*
X520700D01*
X526300Y168600D02*
X530800D01*
X516200D02*
X520700D01*
X516200Y146400D02*
Y168600D01*
X530800Y146400D02*
Y168600D01*
X526000Y152500D02*
Y162500D01*
X521000Y152500D02*
X526000D01*
X521000D02*
Y162500D01*
X526000D01*
X526300Y146400D02*
X530800D01*
X516200D02*
X520700D01*
X526422Y113462D02*
X530922D01*
X516322D02*
X520822D01*
X516322Y91262D02*
Y113462D01*
X530922Y91262D02*
Y113462D01*
X526122Y97362D02*
Y107362D01*
X521122Y97362D02*
X526122D01*
X521122D02*
Y107362D01*
X526122D01*
X526422Y91262D02*
X530922D01*
X516322D02*
X520822D01*
X342500Y380999D02*
X341501Y381999D01*
X339501D01*
X338502Y380999D01*
Y377001D01*
X339501Y376001D01*
X341501D01*
X342500Y377001D01*
X347499Y376001D02*
Y381999D01*
X344500Y379000D01*
X348498D01*
X317000Y355999D02*
X316001Y356999D01*
X314001D01*
X313002Y355999D01*
Y352001D01*
X314001Y351001D01*
X316001D01*
X317000Y352001D01*
X319000Y355999D02*
X319999Y356999D01*
X321999D01*
X322998Y355999D01*
Y355000D01*
X321999Y354000D01*
X320999D01*
X321999D01*
X322998Y353000D01*
Y352001D01*
X321999Y351001D01*
X319999D01*
X319000Y352001D01*
X413999Y15002D02*
X408001D01*
X410000Y17001D01*
X408001Y19000D01*
X413999D01*
Y21000D02*
X408001D01*
Y23999D01*
X409001Y24998D01*
X411000D01*
X412000Y23999D01*
Y21000D01*
Y22999D02*
X413999Y24998D01*
X312000Y333498D02*
Y327500D01*
X314999D01*
X315999Y328500D01*
Y329499D01*
X314999Y330499D01*
X312000D01*
X314999D01*
X315999Y331499D01*
Y332498D01*
X314999Y333498D01*
X312000D01*
X317998Y327500D02*
Y331499D01*
X319997Y333498D01*
X321997Y331499D01*
Y327500D01*
Y330499D01*
X317998D01*
X323996Y333498D02*
X327995D01*
X325995D01*
Y327500D01*
X329994Y333498D02*
X333993D01*
X331994D01*
Y327500D01*
X339991Y333498D02*
X335992D01*
Y327500D01*
X339991D01*
X335992Y330499D02*
X337992D01*
X341990Y327500D02*
Y333498D01*
X344989D01*
X345989Y332498D01*
Y330499D01*
X344989Y329499D01*
X341990D01*
X343990D02*
X345989Y327500D01*
X347988Y333498D02*
Y332498D01*
X349988Y330499D01*
X351987Y332498D01*
Y333498D01*
X349988Y330499D02*
Y327500D01*
X51502Y62501D02*
Y68499D01*
X54501D01*
X55501Y67499D01*
Y65500D01*
X54501Y64500D01*
X51502D01*
X53502D02*
X55501Y62501D01*
X57500D02*
X59500D01*
X58500D01*
Y68499D01*
X57500Y67499D01*
X62499Y63501D02*
X63499Y62501D01*
X65498D01*
X66498Y63501D01*
Y67499D01*
X65498Y68499D01*
X63499D01*
X62499Y67499D01*
Y66500D01*
X63499Y65500D01*
X66498D01*
X52502Y90501D02*
Y96499D01*
X55502D01*
X56501Y95499D01*
Y93500D01*
X55502Y92500D01*
X52502D01*
X54502D02*
X56501Y90501D01*
X58500D02*
X60500D01*
X59500D01*
Y96499D01*
X58500Y95499D01*
X63499D02*
X64499Y96499D01*
X66498D01*
X67498Y95499D01*
Y94500D01*
X66498Y93500D01*
X67498Y92500D01*
Y91501D01*
X66498Y90501D01*
X64499D01*
X63499Y91501D01*
Y92500D01*
X64499Y93500D01*
X63499Y94500D01*
Y95499D01*
X64499Y93500D02*
X66498D01*
X31502Y101501D02*
Y107499D01*
X34501D01*
X35501Y106499D01*
Y104500D01*
X34501Y103500D01*
X31502D01*
X33502D02*
X35501Y101501D01*
X37501D02*
X39500D01*
X38500D01*
Y107499D01*
X37501Y106499D01*
X42499Y107499D02*
X46498D01*
Y106499D01*
X42499Y102501D01*
Y101501D01*
X31502Y129501D02*
Y135499D01*
X34501D01*
X35501Y134499D01*
Y132500D01*
X34501Y131500D01*
X31502D01*
X33502D02*
X35501Y129501D01*
X37501D02*
X39500D01*
X38500D01*
Y135499D01*
X37501Y134499D01*
X46498Y135499D02*
X44498Y134499D01*
X42499Y132500D01*
Y130501D01*
X43499Y129501D01*
X45498D01*
X46498Y130501D01*
Y131500D01*
X45498Y132500D01*
X42499D01*
X487002Y278001D02*
Y283999D01*
X490001D01*
X491001Y282999D01*
Y281000D01*
X490001Y280000D01*
X487002D01*
X489002D02*
X491001Y278001D01*
X493001D02*
X495000D01*
X494000D01*
Y283999D01*
X493001Y282999D01*
X497999D02*
X498998Y283999D01*
X500998D01*
X501998Y282999D01*
Y282000D01*
X500998Y281000D01*
X499998D01*
X500998D01*
X501998Y280000D01*
Y279001D01*
X500998Y278001D01*
X498998D01*
X497999Y279001D01*
X493002Y286501D02*
Y292499D01*
X496001D01*
X497000Y291499D01*
Y289500D01*
X496001Y288500D01*
X493002D01*
X495001D02*
X497000Y286501D01*
X499000Y291499D02*
X499999Y292499D01*
X501999D01*
X502998Y291499D01*
Y290500D01*
X501999Y289500D01*
X502998Y288500D01*
Y287501D01*
X501999Y286501D01*
X499999D01*
X499000Y287501D01*
Y288500D01*
X499999Y289500D01*
X499000Y290500D01*
Y291499D01*
X499999Y289500D02*
X501999D01*
X491502Y295501D02*
Y301499D01*
X494501D01*
X495500Y300499D01*
Y298500D01*
X494501Y297500D01*
X491502D01*
X493501D02*
X495500Y295501D01*
X501498Y301499D02*
X499499Y300499D01*
X497500Y298500D01*
Y296501D01*
X498499Y295501D01*
X500499D01*
X501498Y296501D01*
Y297500D01*
X500499Y298500D01*
X497500D01*
X499926Y315005D02*
X503074D01*
Y317104D01*
X499926Y320252D02*
Y318153D01*
X503074D01*
Y320252D01*
X501500Y318153D02*
Y319203D01*
X499926Y321302D02*
X503074D01*
Y322876D01*
X502550Y323401D01*
X500451D01*
X499926Y322876D01*
Y321302D01*
X503074Y327599D02*
X499926D01*
Y329173D01*
X500451Y329698D01*
X501500D01*
X502025Y329173D01*
Y327599D01*
Y328649D02*
X503074Y329698D01*
X500451Y332847D02*
X499926Y332322D01*
Y331272D01*
X500451Y330748D01*
X502550D01*
X503074Y331272D01*
Y332322D01*
X502550Y332847D01*
X501500D01*
Y331797D01*
X499926Y333896D02*
X503074D01*
Y335471D01*
X502550Y335995D01*
X502025D01*
X501500Y335471D01*
Y333896D01*
Y335471D01*
X500975Y335995D01*
X500451D01*
X499926Y335471D01*
Y333896D01*
X414499Y366502D02*
X408501D01*
X410500Y368501D01*
X408501Y370500D01*
X414499D01*
X408501Y372500D02*
X414499D01*
Y376498D01*
X356899Y30998D02*
X355899Y31998D01*
X353900D01*
X352900Y30998D01*
Y29999D01*
X353900Y28999D01*
X355899D01*
X356899Y27999D01*
Y27000D01*
X355899Y26000D01*
X353900D01*
X352900Y27000D01*
X358898Y31998D02*
Y26000D01*
X360897Y27999D01*
X362897Y26000D01*
Y31998D01*
X446396Y238426D02*
Y241574D01*
X447445Y240525D01*
X448495Y241574D01*
Y238426D01*
X451119Y241574D02*
X450069D01*
X449544Y241050D01*
Y238950D01*
X450069Y238426D01*
X451119D01*
X451643Y238950D01*
Y241050D01*
X451119Y241574D01*
X452693D02*
X454792D01*
X453742D01*
Y238426D01*
X457416Y241574D02*
X456366D01*
X455841Y241050D01*
Y238950D01*
X456366Y238426D01*
X457416D01*
X457940Y238950D01*
Y241050D01*
X457416Y241574D01*
X458990Y238426D02*
Y241574D01*
X460564D01*
X461089Y241050D01*
Y240000D01*
X460564Y239475D01*
X458990D01*
X460040D02*
X461089Y238426D01*
X465287Y241574D02*
Y238426D01*
X466861D01*
X467386Y238950D01*
Y241050D01*
X466861Y241574D01*
X465287D01*
X468436Y238426D02*
Y241574D01*
X470010D01*
X470535Y241050D01*
Y240000D01*
X470010Y239475D01*
X468436D01*
X469485D02*
X470535Y238426D01*
X471584Y241574D02*
X472634D01*
X472109D01*
Y238426D01*
X471584D01*
X472634D01*
X474208Y241574D02*
Y239475D01*
X475258Y238426D01*
X476307Y239475D01*
Y241574D01*
X479456D02*
X477357D01*
Y238426D01*
X479456D01*
X477357Y240000D02*
X478406D01*
X480505Y238426D02*
Y241574D01*
X482080D01*
X482604Y241050D01*
Y240000D01*
X482080Y239475D01*
X480505D01*
X481555D02*
X482604Y238426D01*
X372000Y25999D02*
X371001Y26999D01*
X369001D01*
X368002Y25999D01*
Y22001D01*
X369001Y21001D01*
X371001D01*
X372000Y22001D01*
X377998Y26999D02*
X375999Y25999D01*
X374000Y24000D01*
Y22001D01*
X374999Y21001D01*
X376999D01*
X377998Y22001D01*
Y23000D01*
X376999Y24000D01*
X374000D01*
X370000Y340999D02*
X369001Y341999D01*
X367001D01*
X366002Y340999D01*
Y337001D01*
X367001Y336001D01*
X369001D01*
X370000Y337001D01*
X375998Y341999D02*
X372000D01*
Y339000D01*
X373999Y340000D01*
X374999D01*
X375998Y339000D01*
Y337001D01*
X374999Y336001D01*
X372999D01*
X372000Y337001D01*
X416500Y317598D02*
X420499Y313600D01*
X416500D02*
X420499Y317598D01*
X416500Y315599D02*
X420499D01*
X418499Y313600D02*
Y317598D01*
X17002Y141001D02*
Y146999D01*
X20001D01*
X21001Y145999D01*
Y144000D01*
X20001Y143000D01*
X17002D01*
X19002D02*
X21001Y141001D01*
X23000D02*
X25000D01*
X24000D01*
Y146999D01*
X23000Y145999D01*
X31998Y141001D02*
X27999D01*
X31998Y145000D01*
Y145999D01*
X30998Y146999D01*
X28999D01*
X27999Y145999D01*
X18002Y168001D02*
Y173999D01*
X21001D01*
X22001Y172999D01*
Y171000D01*
X21001Y170000D01*
X18002D01*
X20001D02*
X22001Y168001D01*
X24000D02*
X26000D01*
X25000D01*
Y173999D01*
X24000Y172999D01*
X28999Y168001D02*
X30998D01*
X29998D01*
Y173999D01*
X28999Y172999D01*
X8502Y179501D02*
Y185499D01*
X11502D01*
X12501Y184499D01*
Y182500D01*
X11502Y181500D01*
X8502D01*
X10502D02*
X12501Y179501D01*
X14501D02*
X16500D01*
X15500D01*
Y185499D01*
X14501Y184499D01*
X19499D02*
X20499Y185499D01*
X22498D01*
X23498Y184499D01*
Y180501D01*
X22498Y179501D01*
X20499D01*
X19499Y180501D01*
Y184499D01*
X12002Y208501D02*
Y214499D01*
X15001D01*
X16000Y213499D01*
Y211500D01*
X15001Y210500D01*
X12002D01*
X14001D02*
X16000Y208501D01*
X18000Y209501D02*
X18999Y208501D01*
X20999D01*
X21998Y209501D01*
Y213499D01*
X20999Y214499D01*
X18999D01*
X18000Y213499D01*
Y212500D01*
X18999Y211500D01*
X21998D01*
X17800Y237600D02*
Y243598D01*
X20799D01*
X21799Y242598D01*
Y240599D01*
X20799Y239599D01*
X17800D01*
X19799D02*
X21799Y237600D01*
X23798Y243598D02*
X27797D01*
Y242598D01*
X23798Y238600D01*
Y237600D01*
X17700Y248200D02*
Y254198D01*
X20699D01*
X21699Y253198D01*
Y251199D01*
X20699Y250199D01*
X17700D01*
X19699D02*
X21699Y248200D01*
X27697Y254198D02*
X23698D01*
Y251199D01*
X25697Y252199D01*
X26697D01*
X27697Y251199D01*
Y249200D01*
X26697Y248200D01*
X24698D01*
X23698Y249200D01*
X31447Y259594D02*
X31558Y265591D01*
X34556Y265535D01*
X35537Y264517D01*
X35500Y262518D01*
X34483Y261537D01*
X31484Y261593D01*
X33483Y261556D02*
X35445Y259520D01*
X40443Y259428D02*
X40553Y265425D01*
X37499Y262482D01*
X41497Y262408D01*
X30700Y287200D02*
Y293198D01*
X33699D01*
X34699Y292198D01*
Y290199D01*
X33699Y289199D01*
X30700D01*
X32699D02*
X34699Y287200D01*
X36698Y292198D02*
X37698Y293198D01*
X39697D01*
X40697Y292198D01*
Y291199D01*
X39697Y290199D01*
X38697D01*
X39697D01*
X40697Y289199D01*
Y288200D01*
X39697Y287200D01*
X37698D01*
X36698Y288200D01*
X53002Y297501D02*
Y303499D01*
X56001D01*
X57000Y302499D01*
Y300500D01*
X56001Y299500D01*
X53002D01*
X55001D02*
X57000Y297501D01*
X62998D02*
X59000D01*
X62998Y301500D01*
Y302499D01*
X61999Y303499D01*
X59999D01*
X59000Y302499D01*
X52200Y326200D02*
Y332198D01*
X55199D01*
X56199Y331198D01*
Y329199D01*
X55199Y328199D01*
X52200D01*
X54199D02*
X56199Y326200D01*
X58198D02*
X60197D01*
X59198D01*
Y332198D01*
X58198Y331198D01*
X520699Y237098D02*
X519699Y238098D01*
X517700D01*
X516700Y237098D01*
Y236099D01*
X517700Y235099D01*
X519699D01*
X520699Y234099D01*
Y233100D01*
X519699Y232100D01*
X517700D01*
X516700Y233100D01*
X522698Y238098D02*
Y232100D01*
X524697Y234099D01*
X526697Y232100D01*
Y238098D01*
X528696Y232100D02*
X530695D01*
X529696D01*
Y238098D01*
X528696Y237098D01*
X520799Y126898D02*
X519799Y127898D01*
X517800D01*
X516800Y126898D01*
Y125899D01*
X517800Y124899D01*
X519799D01*
X520799Y123899D01*
Y122900D01*
X519799Y121900D01*
X517800D01*
X516800Y122900D01*
X522798Y127898D02*
Y121900D01*
X524797Y123899D01*
X526797Y121900D01*
Y127898D01*
X528796Y126898D02*
X529796Y127898D01*
X531795D01*
X532795Y126898D01*
Y125899D01*
X531795Y124899D01*
X530795D01*
X531795D01*
X532795Y123899D01*
Y122900D01*
X531795Y121900D01*
X529796D01*
X528796Y122900D01*
X520699Y181998D02*
X519699Y182998D01*
X517700D01*
X516700Y181998D01*
Y180999D01*
X517700Y179999D01*
X519699D01*
X520699Y178999D01*
Y178000D01*
X519699Y177000D01*
X517700D01*
X516700Y178000D01*
X522698Y182998D02*
Y177000D01*
X524697Y178999D01*
X526697Y177000D01*
Y182998D01*
X532695Y177000D02*
X528696D01*
X532695Y180999D01*
Y181998D01*
X531695Y182998D01*
X529696D01*
X528696Y181998D01*
X402500Y350598D02*
Y344600D01*
Y347599D01*
X406499D01*
Y350598D01*
Y344600D01*
X408498D02*
X410497D01*
X409498D01*
Y350598D01*
X408498Y349598D01*
X403400Y86898D02*
Y80900D01*
Y83899D01*
X407399D01*
Y86898D01*
Y80900D01*
X413397D02*
X409398D01*
X413397Y84899D01*
Y85898D01*
X412397Y86898D01*
X410398D01*
X409398Y85898D01*
D11*
X506992Y316508D02*
G03*
X506992Y316508I-492J0D01*
G01*
D12*
X366394Y4157D02*
G03*
X366394Y4157I-394J0D01*
G01*
X487500Y102000D02*
X497500D01*
X487500Y292985D02*
X497500D01*
Y91016D02*
Y292985D01*
X487500Y91016D02*
X497500D01*
X487500D02*
Y99500D01*
Y292985D01*
X427500Y102000D02*
X437500D01*
X427500Y292985D02*
X437500D01*
Y91016D02*
Y292985D01*
X427500Y91016D02*
X437500D01*
X427500D02*
Y99500D01*
Y292985D01*
X519406Y324402D02*
Y324598D01*
X507594Y324402D02*
Y324598D01*
Y324402D02*
X519406D01*
X507594Y324598D02*
X519406D01*
D13*
X458343Y227976D02*
G03*
X458343Y227976I-1741J0D01*
G01*
D14*
X393996Y370079D02*
G03*
X393996Y370177I-16044J0D01*
G01*
X393996Y370079D02*
G03*
X393996Y370079I-19981J0D01*
G01*
X395481Y52000D02*
G03*
X395480Y52099I-16044J0D01*
G01*
X395481Y52000D02*
G03*
X395481Y52000I-19981J0D01*
G01*
X324100Y365700D02*
X330800D01*
Y350400D02*
Y365700D01*
X324100Y350400D02*
X330800D01*
X324100D02*
Y365700D01*
X32000Y116400D02*
X46000D01*
X32000Y109700D02*
Y116400D01*
Y109700D02*
X46000D01*
Y116400D01*
X65500Y306200D02*
Y312900D01*
X51500Y306200D02*
X65500D01*
X51500D02*
Y312900D01*
X65500D01*
X44000Y267700D02*
Y274400D01*
X30000Y267700D02*
X44000D01*
X30000D02*
Y274400D01*
X44000D01*
Y277200D02*
Y283900D01*
X30000Y277200D02*
X44000D01*
X30000D02*
Y283900D01*
X44000D01*
X52000Y87400D02*
X66000D01*
X52000Y80700D02*
Y87400D01*
Y80700D02*
X66000D01*
Y87400D01*
X52000Y77400D02*
X66000D01*
X52000Y70700D02*
Y77400D01*
Y70700D02*
X66000D01*
Y77400D01*
X32000Y126900D02*
X46000D01*
X32000Y120200D02*
Y126900D01*
Y120200D02*
X46000D01*
Y126900D01*
X31000Y159700D02*
Y166400D01*
X17000Y159700D02*
X31000D01*
X17000D02*
Y166400D01*
X31000D01*
X31500Y149200D02*
Y155900D01*
X17500Y149200D02*
X31500D01*
X17500D02*
Y155900D01*
X31500D01*
X23000Y199200D02*
Y205900D01*
X9000Y199200D02*
X23000D01*
X9000D02*
Y205900D01*
X23000D01*
Y188200D02*
Y194900D01*
X9000Y188200D02*
X23000D01*
X9000D02*
Y194900D01*
X23000D01*
X505000Y286100D02*
X519000D01*
Y292800D01*
X505000D02*
X519000D01*
X505000Y286100D02*
Y292800D01*
Y277100D02*
X519000D01*
Y283800D01*
X505000D02*
X519000D01*
X505000Y277100D02*
Y283800D01*
Y295100D02*
X519000D01*
Y301800D01*
X505000D02*
X519000D01*
X505000Y295100D02*
Y301800D01*
X353008Y21874D02*
X398677D01*
Y6126D02*
Y21874D01*
X353008Y6126D02*
X398677D01*
X353008D02*
Y21874D01*
X393996Y349803D02*
Y369980D01*
X353445Y349803D02*
X393996D01*
X353445D02*
X353445D01*
Y370079D01*
Y353740D02*
Y370079D01*
Y357087D02*
Y370079D01*
X350886Y373130D02*
X353445D01*
X353543Y353740D02*
X357480Y349803D01*
X353445Y359646D02*
Y370079D01*
X350886Y367028D02*
X353445D01*
X393996Y373130D02*
X396654D01*
X393996Y367028D02*
X396654D01*
X393996Y370177D02*
Y390354D01*
X353445D02*
X393996D01*
X353445D02*
X353445D01*
Y370079D02*
Y390354D01*
Y370079D02*
Y386417D01*
Y370079D02*
Y383071D01*
X353543Y386417D02*
X357480Y390354D01*
X353445Y370079D02*
Y380512D01*
X395480Y31724D02*
Y51902D01*
X354929Y31724D02*
X395480D01*
X354929D02*
Y52000D01*
Y35661D02*
Y52000D01*
Y39008D02*
Y52000D01*
X352370Y55051D02*
X354929D01*
X355028Y35661D02*
X358965Y31724D01*
X354929Y41567D02*
Y52000D01*
X352370Y48949D02*
X354929D01*
X395480Y55051D02*
X398138D01*
X395480Y48949D02*
X398138D01*
X395480Y52098D02*
Y72276D01*
X354929D02*
X395480D01*
X354929Y52000D02*
Y72276D01*
Y52000D02*
Y68339D01*
Y52000D02*
Y64992D01*
X355028Y68339D02*
X358965Y72276D01*
X354929Y52000D02*
Y62433D01*
X51500Y322900D02*
X65500D01*
X51500Y316200D02*
Y322900D01*
Y316200D02*
X65500D01*
Y322900D01*
X17000Y244900D02*
X31000D01*
X17000Y238200D02*
Y244900D01*
Y238200D02*
X31000D01*
Y244900D01*
X17000Y234400D02*
X31000D01*
X17000Y227700D02*
Y234400D01*
Y227700D02*
X31000D01*
Y234400D01*
D15*
X325000Y356300D02*
Y359700D01*
X330000Y356300D02*
Y359700D01*
X37300Y110500D02*
X40700D01*
X37300Y115500D02*
X40700D01*
X56800Y312000D02*
X60200D01*
X56800Y307000D02*
X60200D01*
X35300Y273500D02*
X38700D01*
X35300Y268500D02*
X38700D01*
X35300Y283000D02*
X38700D01*
X35300Y278000D02*
X38700D01*
X57300Y81500D02*
X60700D01*
X57300Y86500D02*
X60700D01*
X57300Y71500D02*
X60700D01*
X57300Y76500D02*
X60700D01*
X37300Y121000D02*
X40700D01*
X37300Y126000D02*
X40700D01*
X22300Y165500D02*
X25700D01*
X22300Y160500D02*
X25700D01*
X22800Y155000D02*
X26200D01*
X22800Y150000D02*
X26200D01*
X14300Y205000D02*
X17700D01*
X14300Y200000D02*
X17700D01*
X14300Y194000D02*
X17700D01*
X14300Y189000D02*
X17700D01*
X510300Y292000D02*
X513700D01*
X510300Y287000D02*
X513700D01*
X510300Y283000D02*
X513700D01*
X510300Y278000D02*
X513700D01*
X510300Y301000D02*
X513700D01*
X510300Y296000D02*
X513700D01*
X56800Y317000D02*
X60200D01*
X56800Y322000D02*
X60200D01*
X22300Y239000D02*
X25700D01*
X22300Y244000D02*
X25700D01*
X22300Y228500D02*
X25700D01*
X22300Y233500D02*
X25700D01*
X357480Y375667D02*
X359813D01*
X358647Y376833D02*
Y374500D01*
X358965Y57588D02*
X361297D01*
X360131Y58754D02*
Y56422D01*
D16*
X452764Y196480D02*
Y231520D01*
Y196480D02*
X473236D01*
Y231520D01*
X452764D02*
X473236D01*
D17*
X393996Y370177D02*
D03*
Y369980D02*
D03*
X353445Y357087D02*
D03*
Y383071D02*
D03*
X354929Y31724D02*
D03*
X395480Y52098D02*
D03*
Y51902D02*
D03*
X354929Y39008D02*
D03*
Y72276D02*
D03*
Y64992D02*
D03*
D18*
X403622Y54102D02*
Y76622D01*
X433150D01*
Y54102D02*
Y76622D01*
X403622Y54102D02*
X433150D01*
X432264Y317878D02*
Y340398D01*
X402736Y317878D02*
X432264D01*
X402736D02*
Y340398D01*
X432264D01*
D19*
X384596Y370079D02*
D03*
X386081Y52000D02*
D03*
D20*
X523500Y212598D02*
D03*
Y157500D02*
D03*
X523622Y102362D02*
D03*
M02*
