G04*
G04 #@! TF.GenerationSoftware,Altium Limited,Altium Designer,25.5.2 (35)*
G04*
G04 Layer_Physical_Order=1*
G04 Layer_Color=255*
%FSLAX25Y25*%
%MOIN*%
G70*
G04*
G04 #@! TF.SameCoordinates,3A6C04F0-8456-4D88-A865-9B6E00D0E649*
G04*
G04*
G04 #@! TF.FilePolarity,Positive*
G04*
G01*
G75*
%ADD21R,0.06000X0.06000*%
%ADD22R,0.05500X0.05000*%
%ADD23R,0.03937X0.05500*%
%ADD24R,0.04921X0.01575*%
%ADD25R,0.03150X0.04724*%
%ADD26O,0.16000X0.05906*%
%ADD27R,0.03543X0.05906*%
%ADD28R,0.16000X0.05906*%
%ADD47C,0.02362*%
%ADD48C,0.01575*%
%ADD49C,0.03150*%
%ADD50C,0.14173*%
%ADD51C,0.01575*%
%ADD52C,0.09843*%
%ADD53C,0.01968*%
%ADD54R,0.05984X0.05984*%
%ADD55C,0.05984*%
%ADD56C,0.05937*%
%ADD57R,0.06299X0.06299*%
%ADD58C,0.06299*%
%ADD59C,0.03150*%
G36*
X534022Y1529D02*
X348133D01*
X304220Y45443D01*
X303169Y46513D01*
X303169Y46513D01*
X302290Y47724D01*
X301725Y48780D01*
X301247Y50358D01*
X301085Y52000D01*
X301247Y53642D01*
X301725Y55220D01*
X302503Y56675D01*
X302936Y57203D01*
X304013Y58331D01*
X304013Y58331D01*
X305115Y59452D01*
X305149Y59486D01*
X306577Y60915D01*
X306765Y61196D01*
X308637Y63290D01*
X310485Y65895D01*
X312030Y68690D01*
X313252Y71641D01*
X314137Y74710D01*
X314672Y77859D01*
X314851Y81048D01*
X314672Y84237D01*
X314137Y87385D01*
X313252Y90455D01*
X312030Y93405D01*
X310485Y96201D01*
X308637Y98805D01*
X307461Y100121D01*
X306509Y101187D01*
X306420Y101267D01*
X305302Y102371D01*
X256987Y150688D01*
X256491Y151019D01*
X255906Y151136D01*
X221964D01*
X221913Y152690D01*
X221913Y152690D01*
X222764Y152859D01*
X223486Y153341D01*
X244921Y174776D01*
X429174D01*
X429306Y174549D01*
X430049Y173805D01*
X430959Y173280D01*
X431974Y173008D01*
X433026D01*
X434041Y173280D01*
X434951Y173805D01*
X435695Y174549D01*
X436220Y175459D01*
X436492Y176474D01*
Y177526D01*
X436220Y178541D01*
X435695Y179451D01*
X434951Y180194D01*
X434041Y180720D01*
X433026Y180992D01*
X432974D01*
X432804Y181119D01*
X432112Y182567D01*
X432455Y183008D01*
X433026D01*
X434041Y183280D01*
X434951Y183806D01*
X435695Y184549D01*
X436220Y185459D01*
X436492Y186474D01*
Y187526D01*
X436220Y188541D01*
X435695Y189451D01*
X434951Y190194D01*
X434041Y190720D01*
X433026Y190992D01*
X432974D01*
X432804Y191119D01*
X432112Y192567D01*
X432455Y193008D01*
X433026D01*
X434041Y193280D01*
X434951Y193806D01*
X435695Y194549D01*
X436220Y195459D01*
X436492Y196474D01*
Y197526D01*
X436220Y198541D01*
X435695Y199451D01*
X434951Y200195D01*
X434041Y200720D01*
X433026Y200992D01*
X432974D01*
X432804Y201119D01*
X432112Y202567D01*
X432455Y203008D01*
X433026D01*
X434041Y203280D01*
X434951Y203805D01*
X435695Y204549D01*
X436220Y205459D01*
X436492Y206474D01*
Y207526D01*
X436220Y208541D01*
X435695Y209451D01*
X434951Y210194D01*
X434041Y210720D01*
X433026Y210992D01*
X431974D01*
X430959Y210720D01*
X430049Y210194D01*
X429306Y209451D01*
X428780Y208541D01*
X428508Y207526D01*
Y206474D01*
X428576Y206221D01*
X411665Y189310D01*
X239822D01*
X239822Y189310D01*
X238971Y189141D01*
X238249Y188659D01*
X238249Y188659D01*
X216814Y167224D01*
X47421D01*
X37724Y176921D01*
Y208500D01*
X37724Y208500D01*
X37555Y209351D01*
X37073Y210072D01*
X37073Y210072D01*
X33573Y213573D01*
X32851Y214055D01*
X32000Y214224D01*
X32000Y214224D01*
X20798D01*
X20494Y214399D01*
X19839Y214575D01*
X19161D01*
X18506Y214399D01*
X17941Y214073D01*
X17849D01*
X17849Y214073D01*
X16998Y213904D01*
X16277Y213422D01*
X16277Y213422D01*
X10799Y207944D01*
X10441Y207970D01*
X9224Y208463D01*
Y216797D01*
X19677Y227250D01*
X22469D01*
Y231605D01*
X24077Y233213D01*
X25532Y232610D01*
Y227250D01*
X25532D01*
X25531Y225676D01*
X22416Y222561D01*
X21124D01*
X20820Y222737D01*
X20165Y222912D01*
X19487D01*
X18832Y222737D01*
X18245Y222398D01*
X17765Y221919D01*
X17426Y221331D01*
X17251Y220676D01*
Y219999D01*
X17426Y219344D01*
X17765Y218757D01*
X18245Y218277D01*
X18832Y217938D01*
X19487Y217763D01*
X20165D01*
X20820Y217938D01*
X21124Y218114D01*
X23337D01*
X23337Y218114D01*
X24189Y218283D01*
X24910Y218765D01*
X30073Y223928D01*
X30073Y223928D01*
X30555Y224649D01*
X30724Y225500D01*
X30724Y225500D01*
Y227250D01*
X31469D01*
Y233659D01*
X33044Y234312D01*
X38010Y229345D01*
X38101Y229006D01*
X38440Y228419D01*
X38919Y227940D01*
X39506Y227601D01*
X40161Y227425D01*
X40839D01*
X41494Y227601D01*
X42081Y227940D01*
X42560Y228419D01*
X42899Y229006D01*
X43075Y229661D01*
Y230339D01*
X42965Y230750D01*
X43641Y231372D01*
X44274Y231696D01*
X44649Y231445D01*
X45500Y231276D01*
X45500Y231276D01*
X415079D01*
X428576Y217779D01*
X428508Y217526D01*
Y216474D01*
X428780Y215459D01*
X429306Y214549D01*
X430049Y213806D01*
X430959Y213280D01*
X431974Y213008D01*
X433026D01*
X434041Y213280D01*
X434951Y213806D01*
X435695Y214549D01*
X436220Y215459D01*
X436492Y216474D01*
Y217526D01*
X436220Y218541D01*
X435695Y219451D01*
X434951Y220195D01*
X434041Y220720D01*
X433026Y220992D01*
X432455D01*
X432112Y221433D01*
X432804Y222881D01*
X432974Y223008D01*
X433026D01*
X434041Y223280D01*
X434951Y223805D01*
X435695Y224549D01*
X436220Y225459D01*
X436492Y226474D01*
Y227526D01*
X436220Y228541D01*
X435695Y229451D01*
X434951Y230194D01*
X434041Y230720D01*
X433026Y230992D01*
X432455D01*
X432112Y231433D01*
X432804Y232881D01*
X432974Y233008D01*
X433026D01*
X434041Y233280D01*
X434951Y233805D01*
X435695Y234549D01*
X436220Y235459D01*
X436492Y236474D01*
Y237526D01*
X436220Y238541D01*
X435695Y239451D01*
X434951Y240195D01*
X434041Y240720D01*
X433026Y240992D01*
X431974D01*
X430959Y240720D01*
X430309Y240345D01*
X425995Y242174D01*
X425776Y242220D01*
X425570Y242306D01*
X425113Y242399D01*
X425001Y242399D01*
X424893Y242432D01*
X424422Y242480D01*
X424310Y242469D01*
X424200Y242491D01*
X258692D01*
X258039Y244065D01*
X303798Y289824D01*
X303806Y289817D01*
X305999Y292236D01*
X307944Y294859D01*
X309622Y297659D01*
X311018Y300611D01*
X312119Y303686D01*
X312912Y306853D01*
X313391Y310083D01*
X313551Y313345D01*
X313391Y316606D01*
X312912Y319836D01*
X312119Y323003D01*
X311018Y326078D01*
X309622Y329029D01*
X307944Y331830D01*
X305999Y334453D01*
X304758Y335822D01*
X303806Y336872D01*
X303806Y336872D01*
X303718Y336966D01*
X302649Y338098D01*
X302468Y338319D01*
X301856Y339464D01*
X301479Y340707D01*
X301352Y342000D01*
X301479Y343293D01*
X301856Y344536D01*
X302118Y345027D01*
X302943Y346260D01*
X302943Y346260D01*
X302942Y346280D01*
X322175Y365512D01*
X323750Y364860D01*
Y359000D01*
X331250D01*
Y362577D01*
X335925Y367252D01*
X337500Y366600D01*
Y366500D01*
X345500D01*
Y367482D01*
X347516D01*
Y366126D01*
X361843D01*
X393403Y334566D01*
Y272000D01*
X393425Y271831D01*
Y271661D01*
X393469Y271497D01*
X393492Y271328D01*
X393557Y271171D01*
X393601Y271006D01*
X393686Y270859D01*
X393751Y270702D01*
X393855Y270566D01*
X393940Y270419D01*
X394060Y270299D01*
X394164Y270164D01*
X394299Y270060D01*
X394419Y269940D01*
X394566Y269855D01*
X394702Y269751D01*
X394859Y269686D01*
X395006Y269601D01*
X395171Y269557D01*
X395328Y269492D01*
X395497Y269469D01*
X395661Y269425D01*
X395831D01*
X396000Y269403D01*
X396169Y269425D01*
X396339D01*
X396503Y269469D01*
X396672Y269492D01*
X396829Y269557D01*
X396994Y269601D01*
X397141Y269686D01*
X397299Y269751D01*
X397434Y269855D01*
X397581Y269940D01*
X397701Y270060D01*
X397836Y270164D01*
X397940Y270299D01*
X398060Y270419D01*
X398145Y270566D01*
X398249Y270702D01*
X398314Y270859D01*
X398399Y271006D01*
X398443Y271171D01*
X398509Y271328D01*
X398531Y271497D01*
X398575Y271661D01*
Y271831D01*
X398597Y272000D01*
Y335642D01*
X398509Y336314D01*
X398249Y336940D01*
X397836Y337478D01*
X365516Y369799D01*
Y374031D01*
X347516D01*
Y372676D01*
X345500D01*
Y374500D01*
X337500D01*
Y373097D01*
X335500D01*
X334828Y373008D01*
X334202Y372749D01*
X333664Y372336D01*
X327327Y366000D01*
X324890D01*
X324238Y367575D01*
X348834Y392171D01*
X534022D01*
Y1529D01*
D02*
G37*
G36*
X92703Y332780D02*
X93503Y332166D01*
X94117Y331366D01*
X94503Y330434D01*
X94634Y329434D01*
X94568Y328929D01*
X93005Y327296D01*
X87511Y321031D01*
X82295Y314533D01*
X77368Y307813D01*
X72738Y300885D01*
X68415Y293761D01*
X64407Y286455D01*
X60722Y278982D01*
X57366Y271355D01*
X54346Y263589D01*
X53354Y260665D01*
X51844Y261118D01*
X52249Y262660D01*
X55876Y274949D01*
X59872Y287123D01*
X63337Y296692D01*
X74072Y307428D01*
X74072Y307428D01*
X74555Y308149D01*
X74724Y309000D01*
X74724Y309000D01*
Y323202D01*
X74899Y323506D01*
X75075Y324161D01*
Y324839D01*
X74899Y325494D01*
X74560Y326081D01*
X74081Y326560D01*
X73494Y326899D01*
X72839Y327075D01*
X72161D01*
X71506Y326899D01*
X71202Y326724D01*
X58219D01*
X57368Y326555D01*
X56646Y326073D01*
X56646Y326073D01*
X53824Y323250D01*
X51032D01*
Y315750D01*
X54266D01*
X54869Y314295D01*
X53824Y313250D01*
X51032D01*
Y311724D01*
X44884D01*
X44884Y311724D01*
X44033Y311555D01*
X43311Y311072D01*
X43311Y311072D01*
X26778Y294539D01*
X26296Y293818D01*
X26127Y292967D01*
X26127Y292967D01*
Y276847D01*
X26127Y276847D01*
X26296Y275995D01*
X26778Y275274D01*
X28056Y273996D01*
X28056Y273996D01*
X28777Y273514D01*
X29531Y273364D01*
Y270395D01*
X11928Y252791D01*
X11445Y252069D01*
X11276Y251219D01*
X11276Y251219D01*
Y237782D01*
X11276Y237782D01*
X11445Y236931D01*
X11928Y236209D01*
X16274Y231863D01*
Y230137D01*
X5427Y219291D01*
X4945Y218569D01*
X4776Y217718D01*
X4776Y217718D01*
Y196000D01*
X4776Y196000D01*
X4945Y195149D01*
X5427Y194428D01*
X8359Y191496D01*
X8359Y191496D01*
X8531Y191381D01*
Y187750D01*
X9276D01*
Y161782D01*
X9276Y161782D01*
X9445Y160931D01*
X9928Y160209D01*
X17032Y153105D01*
Y148750D01*
X17776D01*
Y128281D01*
X17776Y128281D01*
X17946Y127430D01*
X18428Y126709D01*
X31532Y113605D01*
Y109250D01*
X32276D01*
Y94000D01*
X32276Y94000D01*
X32445Y93149D01*
X32928Y92427D01*
X51359Y73996D01*
X51359Y73996D01*
X51531Y73881D01*
Y70250D01*
X57468D01*
Y74605D01*
X59077Y76213D01*
X60532Y75610D01*
Y70250D01*
X61276D01*
Y66632D01*
X61101Y66329D01*
X60925Y65674D01*
Y64996D01*
X61101Y64341D01*
X61440Y63754D01*
X61919Y63274D01*
X62506Y62935D01*
X63161Y62760D01*
X63839D01*
X64494Y62935D01*
X65081Y63274D01*
X65560Y63754D01*
X65899Y64341D01*
X66075Y64996D01*
Y65674D01*
X65899Y66329D01*
X65724Y66632D01*
Y70250D01*
X66469D01*
Y77750D01*
X62671D01*
X62068Y79205D01*
X63113Y80250D01*
X66469D01*
Y87750D01*
X60532D01*
Y83958D01*
X58923Y82350D01*
X57468Y82952D01*
Y87750D01*
X56724D01*
Y94202D01*
X56899Y94506D01*
X57075Y95161D01*
Y95839D01*
X56899Y96494D01*
X56560Y97081D01*
X56081Y97560D01*
X55494Y97899D01*
X55155Y97990D01*
X52224Y100921D01*
Y126500D01*
X52224Y126500D01*
X52055Y127351D01*
X51573Y128073D01*
X51573Y128073D01*
X45724Y133921D01*
Y147398D01*
X46294Y147815D01*
X47406Y147575D01*
X48085Y147175D01*
X50344Y139423D01*
X53030Y131510D01*
X56059Y123722D01*
X59424Y116074D01*
X63120Y108580D01*
X67139Y101254D01*
X71474Y94110D01*
X76116Y87162D01*
X81057Y80424D01*
X86288Y73907D01*
X91797Y67624D01*
X95897Y63341D01*
X96004Y62805D01*
X95809Y61823D01*
X95252Y60990D01*
X94646Y60585D01*
X48001D01*
X43543Y66564D01*
X38314Y74216D01*
X33407Y82078D01*
X28828Y90136D01*
X24587Y98376D01*
X20689Y106784D01*
X17143Y115346D01*
X13953Y124048D01*
X11126Y132874D01*
X8666Y141809D01*
X6577Y150838D01*
X4863Y159946D01*
X3526Y169117D01*
X2570Y178335D01*
X1996Y187585D01*
X1805Y196850D01*
X1996Y206116D01*
X2570Y215366D01*
X3526Y224584D01*
X4863Y233755D01*
X6577Y242863D01*
X8666Y251892D01*
X11126Y260827D01*
X13953Y269653D01*
X17143Y278354D01*
X20689Y286917D01*
X24587Y295325D01*
X28828Y303565D01*
X33407Y311623D01*
X38314Y319484D01*
X43543Y327137D01*
X48001Y333116D01*
X91891D01*
X92703Y332780D01*
D02*
G37*
%LPC*%
G36*
X396063Y374066D02*
X391516D01*
Y370579D01*
X399984D01*
X399914Y371111D01*
X399516Y372072D01*
X398882Y372898D01*
X398056Y373532D01*
X397095Y373930D01*
X396063Y374066D01*
D02*
G37*
G36*
X390516D02*
X385968D01*
X384937Y373930D01*
X383975Y373532D01*
X383149Y372898D01*
X382516Y372072D01*
X382118Y371111D01*
X382048Y370579D01*
X390516D01*
Y374066D01*
D02*
G37*
G36*
X399984Y369579D02*
X391516D01*
Y366092D01*
X396063D01*
X397095Y366228D01*
X398056Y366626D01*
X398882Y367260D01*
X399516Y368085D01*
X399914Y369047D01*
X399984Y369579D01*
D02*
G37*
G36*
X390516D02*
X382048D01*
X382118Y369047D01*
X382516Y368085D01*
X383149Y367260D01*
X383975Y366626D01*
X384937Y366228D01*
X385968Y366092D01*
X390516D01*
Y369579D01*
D02*
G37*
G36*
X345500Y360500D02*
X342000D01*
Y357000D01*
X345500D01*
Y360500D01*
D02*
G37*
G36*
X341000D02*
X337500D01*
Y357000D01*
X341000D01*
Y360500D01*
D02*
G37*
G36*
X503970Y371587D02*
X502377D01*
X500814Y371276D01*
X499343Y370666D01*
X498018Y369781D01*
X496892Y368655D01*
X496007Y367331D01*
X495397Y365859D01*
X495087Y364297D01*
Y362703D01*
X495397Y361141D01*
X496007Y359669D01*
X496892Y358345D01*
X498018Y357219D01*
X499343Y356334D01*
X500814Y355724D01*
X502377Y355413D01*
X503970D01*
X505532Y355724D01*
X507004Y356334D01*
X508328Y357219D01*
X509454Y358345D01*
X510339Y359669D01*
X510949Y361141D01*
X511260Y362703D01*
Y364297D01*
X510949Y365859D01*
X510339Y367331D01*
X509454Y368655D01*
X508328Y369781D01*
X507004Y370666D01*
X505532Y371276D01*
X503970Y371587D01*
D02*
G37*
G36*
X433678D02*
X432085D01*
X430523Y371276D01*
X429051Y370666D01*
X427727Y369781D01*
X426601Y368655D01*
X425716Y367331D01*
X425106Y365859D01*
X424795Y364297D01*
Y362703D01*
X425106Y361141D01*
X425716Y359669D01*
X426601Y358345D01*
X427727Y357219D01*
X429051Y356334D01*
X430523Y355724D01*
X432085Y355413D01*
X433678D01*
X435241Y355724D01*
X436712Y356334D01*
X438037Y357219D01*
X439163Y358345D01*
X440048Y359669D01*
X440658Y361141D01*
X440969Y362703D01*
Y364297D01*
X440658Y365859D01*
X440048Y367331D01*
X439163Y368655D01*
X438037Y369781D01*
X436712Y370666D01*
X435241Y371276D01*
X433678Y371587D01*
D02*
G37*
G36*
X331250Y357000D02*
X328000D01*
Y354000D01*
X331250D01*
Y357000D01*
D02*
G37*
G36*
X327000D02*
X323750D01*
Y354000D01*
X327000D01*
Y357000D01*
D02*
G37*
G36*
X345500Y356000D02*
X342000D01*
Y352500D01*
X345500D01*
Y356000D01*
D02*
G37*
G36*
X341000D02*
X337500D01*
Y352500D01*
X341000D01*
Y356000D01*
D02*
G37*
G36*
X331250Y353000D02*
X328000D01*
Y350000D01*
X331250D01*
Y353000D01*
D02*
G37*
G36*
X327000D02*
X323750D01*
Y350000D01*
X327000D01*
Y353000D01*
D02*
G37*
G36*
X426650Y335650D02*
X418350D01*
Y332565D01*
X416776Y331761D01*
X416650Y331852D01*
Y332046D01*
X416367Y333102D01*
X415821Y334048D01*
X415048Y334821D01*
X414102Y335367D01*
X413046Y335650D01*
X411954D01*
X410898Y335367D01*
X409952Y334821D01*
X409179Y334048D01*
X408633Y333102D01*
X408350Y332046D01*
Y330954D01*
X408633Y329898D01*
X409179Y328952D01*
X409952Y328180D01*
X410898Y327633D01*
X411954Y327350D01*
X413046D01*
X413408Y327447D01*
X441863Y298992D01*
Y226384D01*
X441863Y226384D01*
X441863Y226384D01*
Y218707D01*
X441863Y218707D01*
X442032Y217856D01*
X442514Y217134D01*
X443877Y215771D01*
X444599Y215289D01*
X445009Y215208D01*
X445268Y214948D01*
Y210933D01*
Y208374D01*
Y208102D01*
X448728D01*
Y207102D01*
X445268D01*
Y205815D01*
Y203256D01*
Y200697D01*
Y198138D01*
X446762D01*
Y99521D01*
X414390Y67150D01*
X409236D01*
Y58850D01*
X417535D01*
Y62639D01*
X417661Y62720D01*
X418140Y62639D01*
X419372Y61948D01*
X419519Y61398D01*
X420065Y60452D01*
X420838Y59680D01*
X421784Y59133D01*
X422839Y58850D01*
X423932D01*
X424640Y59040D01*
X425534Y57827D01*
X425570Y57742D01*
X394924Y27097D01*
X386343D01*
X385670Y27009D01*
X385044Y26749D01*
X384506Y26336D01*
X376138Y17968D01*
X375320D01*
X374311Y17698D01*
X373406Y17176D01*
X372667Y16437D01*
X372145Y15532D01*
X371874Y14523D01*
Y13477D01*
X372145Y12468D01*
X372667Y11563D01*
X373406Y10824D01*
X374311Y10302D01*
X375320Y10031D01*
X376365D01*
X377374Y10302D01*
X378279Y10824D01*
X379018Y11563D01*
X379541Y12468D01*
X379732Y13184D01*
X380142Y13481D01*
X380529Y13480D01*
X381223Y13255D01*
X381936Y12657D01*
X381987Y12468D01*
X382509Y11563D01*
X383248Y10824D01*
X384153Y10302D01*
X385163Y10031D01*
X386208D01*
X387217Y10302D01*
X388122Y10824D01*
X388861Y11563D01*
X389383Y12468D01*
X389653Y13477D01*
Y14523D01*
X389383Y15532D01*
X388861Y16437D01*
X388122Y17176D01*
X387217Y17698D01*
X386208Y17968D01*
X385711D01*
X384985Y19470D01*
X387418Y21903D01*
X396000D01*
X396672Y21992D01*
X397299Y22251D01*
X397836Y22664D01*
X464836Y89664D01*
X465249Y90201D01*
X465509Y90828D01*
X465597Y91500D01*
Y201200D01*
X467052Y201803D01*
X469400Y199455D01*
X470121Y198973D01*
X470531Y198891D01*
X470786Y198637D01*
X470786Y198637D01*
X471377Y198241D01*
X472075Y198103D01*
X477272D01*
X477448Y198138D01*
X480732D01*
Y200697D01*
Y203205D01*
X484911D01*
X489071Y199045D01*
X488780Y198541D01*
X488508Y197526D01*
Y196474D01*
X488780Y195459D01*
X489305Y194549D01*
X490049Y193806D01*
X490959Y193280D01*
X491974Y193008D01*
X493026D01*
X494041Y193280D01*
X494951Y193806D01*
X495694Y194549D01*
X497413Y194376D01*
X497678Y194177D01*
Y189823D01*
X497413Y189624D01*
X495694Y189451D01*
X494951Y190194D01*
X494041Y190720D01*
X493026Y190992D01*
X491974D01*
X490959Y190720D01*
X490049Y190194D01*
X489305Y189451D01*
X488780Y188541D01*
X488508Y187526D01*
Y186474D01*
X488780Y185459D01*
X489305Y184549D01*
X490049Y183806D01*
X490959Y183280D01*
X491974Y183008D01*
X493026D01*
X494041Y183280D01*
X494853Y181930D01*
X493727Y180804D01*
X493026Y180992D01*
X491974D01*
X490959Y180720D01*
X490049Y180194D01*
X489305Y179451D01*
X488780Y178541D01*
X488508Y177526D01*
Y176474D01*
X488780Y175459D01*
X489305Y174549D01*
X490049Y173805D01*
X490959Y173280D01*
X491974Y173008D01*
X493026D01*
X494041Y173280D01*
X494853Y171931D01*
X493727Y170804D01*
X493026Y170992D01*
X491974D01*
X490959Y170720D01*
X490049Y170194D01*
X489305Y169451D01*
X488780Y168541D01*
X488508Y167526D01*
Y166474D01*
X488780Y165459D01*
X489305Y164549D01*
X490049Y163805D01*
X490959Y163280D01*
X491974Y163008D01*
X493026D01*
X494041Y163280D01*
X494853Y161931D01*
X493727Y160804D01*
X493026Y160992D01*
X491974D01*
X490959Y160720D01*
X490049Y160195D01*
X489305Y159451D01*
X488780Y158541D01*
X488508Y157526D01*
Y156474D01*
X488780Y155459D01*
X489305Y154549D01*
X490049Y153805D01*
X490959Y153280D01*
X491974Y153008D01*
X493026D01*
X494041Y153280D01*
X494951Y153805D01*
X495694Y154549D01*
X496220Y155459D01*
X496492Y156474D01*
Y157526D01*
X496304Y158227D01*
X508788Y170711D01*
X508788Y170711D01*
X509184Y171302D01*
X509322Y172000D01*
X509322Y172000D01*
Y276750D01*
X510468D01*
Y284250D01*
X510468D01*
Y285750D01*
X510468D01*
X510468Y285825D01*
Y290897D01*
X511923Y291499D01*
X513531Y289891D01*
Y285750D01*
X513531D01*
Y284250D01*
X513531D01*
X513531Y284175D01*
Y276750D01*
X519468D01*
Y281673D01*
X524289Y286493D01*
X524289Y286493D01*
X524684Y287084D01*
X524822Y287782D01*
Y322716D01*
X524822Y322716D01*
X524684Y323414D01*
X524289Y324005D01*
X524289Y324005D01*
X519067Y329227D01*
Y334555D01*
X515061D01*
X513524Y334555D01*
X511949Y334555D01*
X507943D01*
Y332055D01*
X507701Y330523D01*
X507003Y330384D01*
X506412Y329989D01*
X506412Y329989D01*
X491211Y314789D01*
X490816Y314197D01*
X490678Y313500D01*
X490678Y313500D01*
Y290558D01*
X490049Y290195D01*
X489305Y289451D01*
X488780Y288541D01*
X488508Y287526D01*
Y286474D01*
X488780Y285459D01*
X489305Y284549D01*
X490049Y283805D01*
X490959Y283280D01*
X491974Y283008D01*
X493026D01*
X494041Y283280D01*
X494951Y283805D01*
X495694Y284549D01*
X497413Y284376D01*
X497678Y284177D01*
Y279823D01*
X497413Y279624D01*
X495694Y279451D01*
X494951Y280194D01*
X494041Y280720D01*
X493026Y280992D01*
X491974D01*
X490959Y280720D01*
X490049Y280194D01*
X489305Y279451D01*
X488780Y278541D01*
X488508Y277526D01*
Y276474D01*
X488780Y275459D01*
X489305Y274549D01*
X490049Y273805D01*
X490959Y273280D01*
X491974Y273008D01*
X493026D01*
X494041Y273280D01*
X494951Y273805D01*
X495694Y274549D01*
X497413Y274376D01*
X497678Y274177D01*
Y269823D01*
X497413Y269624D01*
X495694Y269451D01*
X494951Y270195D01*
X494041Y270720D01*
X493026Y270992D01*
X491974D01*
X490959Y270720D01*
X490049Y270195D01*
X489305Y269451D01*
X488780Y268541D01*
X488508Y267526D01*
Y266474D01*
X488780Y265459D01*
X489305Y264549D01*
X490049Y263806D01*
X490959Y263280D01*
X491974Y263008D01*
X493026D01*
X494041Y263280D01*
X494951Y263806D01*
X495694Y264549D01*
X497413Y264376D01*
X497678Y264177D01*
Y259823D01*
X497413Y259624D01*
X495694Y259451D01*
X494951Y260194D01*
X494041Y260720D01*
X493026Y260992D01*
X491974D01*
X490959Y260720D01*
X490049Y260194D01*
X489305Y259451D01*
X488780Y258541D01*
X488508Y257526D01*
Y256474D01*
X488780Y255459D01*
X489305Y254549D01*
X490049Y253805D01*
X490959Y253280D01*
X491974Y253008D01*
X493026D01*
X494041Y253280D01*
X494951Y253805D01*
X495694Y254549D01*
X497413Y254376D01*
X497678Y254177D01*
Y249823D01*
X497413Y249624D01*
X495694Y249451D01*
X494951Y250195D01*
X494041Y250720D01*
X493026Y250992D01*
X491974D01*
X490959Y250720D01*
X490049Y250195D01*
X489305Y249451D01*
X488780Y248541D01*
X488508Y247526D01*
Y246474D01*
X488780Y245459D01*
X489305Y244549D01*
X490049Y243806D01*
X490959Y243280D01*
X491974Y243008D01*
X493026D01*
X494041Y243280D01*
X494951Y243806D01*
X495694Y244549D01*
X497413Y244376D01*
X497678Y244177D01*
Y239823D01*
X497413Y239624D01*
X495694Y239451D01*
X494951Y240195D01*
X494041Y240720D01*
X493026Y240992D01*
X491974D01*
X490959Y240720D01*
X490049Y240195D01*
X489305Y239451D01*
X488821Y238611D01*
X488289D01*
X487591Y238472D01*
X487000Y238077D01*
X487000Y238077D01*
X485211Y236289D01*
X484816Y235697D01*
X484678Y235000D01*
X484678Y235000D01*
Y226114D01*
X483368Y224804D01*
X481528D01*
X480732Y226079D01*
Y229862D01*
X479547D01*
X479073Y230573D01*
X478073Y231573D01*
X477351Y232055D01*
X476500Y232224D01*
X476500Y232224D01*
X465000D01*
X465000Y232224D01*
X464149Y232055D01*
X463427Y231573D01*
X463427Y231573D01*
X461427Y229573D01*
X460945Y228851D01*
X460776Y228000D01*
X460776Y228000D01*
Y210331D01*
X460751Y210298D01*
X460492Y209672D01*
X460403Y209000D01*
Y92576D01*
X428644Y60816D01*
X428559Y60852D01*
X427346Y61746D01*
X427535Y62454D01*
Y63546D01*
X427439Y63908D01*
X458073Y94542D01*
X458073Y94542D01*
X458555Y95263D01*
X458724Y96114D01*
X458724Y96114D01*
Y208000D01*
X458724Y208000D01*
X458555Y208851D01*
X458073Y209573D01*
X458073Y209573D01*
X454572Y213072D01*
X453851Y213555D01*
X453000Y213724D01*
X452189Y214932D01*
Y218610D01*
Y221169D01*
Y222457D01*
X448728D01*
Y223457D01*
X452189D01*
Y223728D01*
Y226287D01*
Y229862D01*
X450952D01*
Y301772D01*
X450952Y301772D01*
X450783Y302623D01*
X450301Y303344D01*
X450301Y303344D01*
X427512Y326133D01*
X426650Y327350D01*
X426650D01*
X426650Y327350D01*
Y335650D01*
D02*
G37*
G36*
X433026Y290992D02*
X431974D01*
X430959Y290720D01*
X430049Y290195D01*
X429306Y289451D01*
X428780Y288541D01*
X428508Y287526D01*
Y286474D01*
X428780Y285459D01*
X429306Y284549D01*
X430049Y283805D01*
X430959Y283280D01*
X431974Y283008D01*
X433026D01*
X434041Y283280D01*
X434951Y283805D01*
X435695Y284549D01*
X436220Y285459D01*
X436492Y286474D01*
Y287526D01*
X436220Y288541D01*
X435695Y289451D01*
X434951Y290195D01*
X434041Y290720D01*
X433026Y290992D01*
D02*
G37*
G36*
Y280992D02*
X431974D01*
X430959Y280720D01*
X430049Y280194D01*
X429306Y279451D01*
X428780Y278541D01*
X428508Y277526D01*
Y276474D01*
X428780Y275459D01*
X429306Y274549D01*
X430049Y273805D01*
X430959Y273280D01*
X431974Y273008D01*
X433026D01*
X434041Y273280D01*
X434951Y273805D01*
X435695Y274549D01*
X436220Y275459D01*
X436492Y276474D01*
Y277526D01*
X436220Y278541D01*
X435695Y279451D01*
X434951Y280194D01*
X434041Y280720D01*
X433026Y280992D01*
D02*
G37*
G36*
Y270992D02*
X431974D01*
X430959Y270720D01*
X430049Y270195D01*
X429306Y269451D01*
X428780Y268541D01*
X428508Y267526D01*
Y266474D01*
X428780Y265459D01*
X429306Y264549D01*
X430049Y263806D01*
X430959Y263280D01*
X431974Y263008D01*
X433026D01*
X434041Y263280D01*
X434951Y263806D01*
X435695Y264549D01*
X436220Y265459D01*
X436492Y266474D01*
Y267526D01*
X436220Y268541D01*
X435695Y269451D01*
X434951Y270195D01*
X434041Y270720D01*
X433026Y270992D01*
D02*
G37*
G36*
Y260992D02*
X431974D01*
X430959Y260720D01*
X430049Y260194D01*
X429306Y259451D01*
X428780Y258541D01*
X428508Y257526D01*
Y256474D01*
X428780Y255459D01*
X429306Y254549D01*
X430049Y253805D01*
X430959Y253280D01*
X431974Y253008D01*
X433026D01*
X434041Y253280D01*
X434951Y253805D01*
X435695Y254549D01*
X436220Y255459D01*
X436492Y256474D01*
Y257526D01*
X436220Y258541D01*
X435695Y259451D01*
X434951Y260194D01*
X434041Y260720D01*
X433026Y260992D01*
D02*
G37*
G36*
X409796Y267587D02*
X408204D01*
X406641Y267276D01*
X405169Y266666D01*
X403845Y265781D01*
X402719Y264655D01*
X401834Y263331D01*
X401224Y261859D01*
X400913Y260297D01*
Y258703D01*
X401224Y257141D01*
X401834Y255669D01*
X402719Y254345D01*
X403845Y253219D01*
X405169Y252334D01*
X406641Y251724D01*
X408204Y251413D01*
X409796D01*
X411359Y251724D01*
X412830Y252334D01*
X414155Y253219D01*
X415281Y254345D01*
X416166Y255669D01*
X416776Y257141D01*
X417087Y258703D01*
Y260297D01*
X416776Y261859D01*
X416166Y263331D01*
X415281Y264655D01*
X414155Y265781D01*
X412830Y266666D01*
X411359Y267276D01*
X409796Y267587D01*
D02*
G37*
G36*
X298797D02*
X297203D01*
X295641Y267276D01*
X294169Y266666D01*
X292845Y265781D01*
X291719Y264655D01*
X290834Y263331D01*
X290224Y261859D01*
X289913Y260297D01*
Y258703D01*
X290224Y257141D01*
X290834Y255669D01*
X291719Y254345D01*
X292845Y253219D01*
X294169Y252334D01*
X295641Y251724D01*
X297203Y251413D01*
X298797D01*
X300359Y251724D01*
X301831Y252334D01*
X303155Y253219D01*
X304281Y254345D01*
X305166Y255669D01*
X305776Y257141D01*
X306087Y258703D01*
Y260297D01*
X305776Y261859D01*
X305166Y263331D01*
X304281Y264655D01*
X303155Y265781D01*
X301831Y266666D01*
X300359Y267276D01*
X298797Y267587D01*
D02*
G37*
G36*
X433026Y250992D02*
X431974D01*
X430959Y250720D01*
X430049Y250195D01*
X429306Y249451D01*
X428780Y248541D01*
X428508Y247526D01*
Y246474D01*
X428780Y245459D01*
X429306Y244549D01*
X430049Y243806D01*
X430959Y243280D01*
X431974Y243008D01*
X433026D01*
X434041Y243280D01*
X434951Y243806D01*
X435695Y244549D01*
X436220Y245459D01*
X436492Y246474D01*
Y247526D01*
X436220Y248541D01*
X435695Y249451D01*
X434951Y250195D01*
X434041Y250720D01*
X433026Y250992D01*
D02*
G37*
G36*
X526075Y229740D02*
X524000D01*
Y226878D01*
X526075D01*
Y229740D01*
D02*
G37*
G36*
X523000D02*
X520925D01*
Y226878D01*
X523000D01*
Y229740D01*
D02*
G37*
G36*
X526075Y225878D02*
X524000D01*
Y223016D01*
X526075D01*
Y225878D01*
D02*
G37*
G36*
X523000D02*
X520925D01*
Y223016D01*
X523000D01*
Y225878D01*
D02*
G37*
G36*
X75583Y221291D02*
X75500D01*
Y215870D01*
X80921D01*
Y215953D01*
X80694Y217097D01*
X80247Y218175D01*
X79599Y219145D01*
X78775Y219969D01*
X77805Y220617D01*
X76727Y221064D01*
X75583Y221291D01*
D02*
G37*
G36*
X74500D02*
X74417D01*
X73273Y221064D01*
X72195Y220617D01*
X71225Y219969D01*
X70401Y219145D01*
X69753Y218175D01*
X69306Y217097D01*
X69079Y215953D01*
Y215870D01*
X74500D01*
Y221291D01*
D02*
G37*
G36*
X314000Y211532D02*
Y209500D01*
X316032D01*
X315899Y209994D01*
X315560Y210581D01*
X315081Y211060D01*
X314494Y211399D01*
X314000Y211532D01*
D02*
G37*
G36*
X313000D02*
X312506Y211399D01*
X311919Y211060D01*
X311440Y210581D01*
X311101Y209994D01*
X310968Y209500D01*
X313000D01*
Y211532D01*
D02*
G37*
G36*
X80921Y214870D02*
X75500D01*
Y209449D01*
X75583D01*
X76727Y209676D01*
X77805Y210123D01*
X78775Y210771D01*
X79599Y211596D01*
X80247Y212565D01*
X80694Y213643D01*
X80921Y214787D01*
Y214870D01*
D02*
G37*
G36*
X74500D02*
X69079D01*
Y214787D01*
X69306Y213643D01*
X69753Y212565D01*
X70401Y211596D01*
X71225Y210771D01*
X72195Y210123D01*
X73273Y209676D01*
X74417Y209449D01*
X74500D01*
Y214870D01*
D02*
G37*
G36*
X316032Y208500D02*
X314000D01*
Y206468D01*
X314494Y206601D01*
X315081Y206940D01*
X315560Y207419D01*
X315899Y208006D01*
X316032Y208500D01*
D02*
G37*
G36*
X313000D02*
X310968D01*
X311101Y208006D01*
X311440Y207419D01*
X311919Y206940D01*
X312506Y206601D01*
X313000Y206468D01*
Y208500D01*
D02*
G37*
G36*
X75583Y181921D02*
X75500D01*
Y176500D01*
X80921D01*
Y176583D01*
X80694Y177727D01*
X80247Y178805D01*
X79599Y179775D01*
X78775Y180599D01*
X77805Y181247D01*
X76727Y181694D01*
X75583Y181921D01*
D02*
G37*
G36*
X74500D02*
X74417D01*
X73273Y181694D01*
X72195Y181247D01*
X71225Y180599D01*
X70401Y179775D01*
X69753Y178805D01*
X69306Y177727D01*
X69079Y176583D01*
Y176500D01*
X74500D01*
Y181921D01*
D02*
G37*
G36*
X526075Y174642D02*
X524000D01*
Y171780D01*
X526075D01*
Y174642D01*
D02*
G37*
G36*
X523000D02*
X520925D01*
Y171780D01*
X523000D01*
Y174642D01*
D02*
G37*
G36*
X80921Y175500D02*
X75500D01*
Y170079D01*
X75583D01*
X76727Y170306D01*
X77805Y170753D01*
X78775Y171401D01*
X79599Y172225D01*
X80247Y173195D01*
X80694Y174273D01*
X80921Y175417D01*
Y175500D01*
D02*
G37*
G36*
X74500D02*
X69079D01*
Y175417D01*
X69306Y174273D01*
X69753Y173195D01*
X70401Y172225D01*
X71225Y171401D01*
X72195Y170753D01*
X73273Y170306D01*
X74417Y170079D01*
X74500D01*
Y175500D01*
D02*
G37*
G36*
X526075Y170780D02*
X524000D01*
Y167917D01*
X526075D01*
Y170780D01*
D02*
G37*
G36*
X523000D02*
X520925D01*
Y167917D01*
X523000D01*
Y170780D01*
D02*
G37*
G36*
X433026Y170992D02*
X431974D01*
X430959Y170720D01*
X430049Y170194D01*
X429306Y169451D01*
X428780Y168541D01*
X428508Y167526D01*
Y166474D01*
X428780Y165459D01*
X429306Y164549D01*
X430049Y163805D01*
X430959Y163280D01*
X431974Y163008D01*
X433026D01*
X434041Y163280D01*
X434951Y163805D01*
X435695Y164549D01*
X436220Y165459D01*
X436492Y166474D01*
Y167526D01*
X436220Y168541D01*
X435695Y169451D01*
X434951Y170194D01*
X434041Y170720D01*
X433026Y170992D01*
D02*
G37*
G36*
Y160992D02*
X431974D01*
X430959Y160720D01*
X430049Y160195D01*
X429306Y159451D01*
X428780Y158541D01*
X428508Y157526D01*
Y156474D01*
X428780Y155459D01*
X429306Y154549D01*
X430049Y153805D01*
X430959Y153280D01*
X431974Y153008D01*
X433026D01*
X434041Y153280D01*
X434951Y153805D01*
X435695Y154549D01*
X436220Y155459D01*
X436492Y156474D01*
Y157526D01*
X436220Y158541D01*
X435695Y159451D01*
X434951Y160195D01*
X434041Y160720D01*
X433026Y160992D01*
D02*
G37*
G36*
X493026Y150992D02*
X491974D01*
X490959Y150720D01*
X490049Y150195D01*
X489305Y149451D01*
X488780Y148541D01*
X488508Y147526D01*
Y146474D01*
X488780Y145459D01*
X489305Y144549D01*
X490049Y143806D01*
X490959Y143280D01*
X491974Y143008D01*
X493026D01*
X494041Y143280D01*
X494951Y143806D01*
X495694Y144549D01*
X496220Y145459D01*
X496492Y146474D01*
Y147526D01*
X496220Y148541D01*
X495694Y149451D01*
X494951Y150195D01*
X494041Y150720D01*
X493026Y150992D01*
D02*
G37*
G36*
X433026D02*
X431974D01*
X430959Y150720D01*
X430049Y150195D01*
X429306Y149451D01*
X428780Y148541D01*
X428508Y147526D01*
Y146474D01*
X428780Y145459D01*
X429306Y144549D01*
X430049Y143806D01*
X430959Y143280D01*
X431974Y143008D01*
X433026D01*
X434041Y143280D01*
X434951Y143806D01*
X435695Y144549D01*
X436220Y145459D01*
X436492Y146474D01*
Y147526D01*
X436220Y148541D01*
X435695Y149451D01*
X434951Y150195D01*
X434041Y150720D01*
X433026Y150992D01*
D02*
G37*
G36*
X493026Y140992D02*
X491974D01*
X490959Y140720D01*
X490049Y140194D01*
X489305Y139451D01*
X488780Y138541D01*
X488508Y137526D01*
Y136474D01*
X488780Y135459D01*
X489305Y134549D01*
X490049Y133806D01*
X490959Y133280D01*
X491974Y133008D01*
X493026D01*
X494041Y133280D01*
X494951Y133806D01*
X495694Y134549D01*
X496220Y135459D01*
X496492Y136474D01*
Y137526D01*
X496220Y138541D01*
X495694Y139451D01*
X494951Y140194D01*
X494041Y140720D01*
X493026Y140992D01*
D02*
G37*
G36*
X433026D02*
X431974D01*
X430959Y140720D01*
X430049Y140194D01*
X429306Y139451D01*
X428780Y138541D01*
X428508Y137526D01*
Y136474D01*
X428780Y135459D01*
X429306Y134549D01*
X430049Y133806D01*
X430959Y133280D01*
X431974Y133008D01*
X433026D01*
X434041Y133280D01*
X434951Y133806D01*
X435695Y134549D01*
X436220Y135459D01*
X436492Y136474D01*
Y137526D01*
X436220Y138541D01*
X435695Y139451D01*
X434951Y140194D01*
X434041Y140720D01*
X433026Y140992D01*
D02*
G37*
G36*
X526075Y202181D02*
X520925D01*
Y198602D01*
X514927Y192604D01*
X514445Y191882D01*
X514276Y191031D01*
X514276Y191031D01*
Y141921D01*
X497864Y125509D01*
X496452Y126324D01*
X496492Y126474D01*
Y127526D01*
X496220Y128541D01*
X495694Y129451D01*
X494951Y130194D01*
X494041Y130720D01*
X493026Y130992D01*
X491974D01*
X490959Y130720D01*
X490049Y130194D01*
X489305Y129451D01*
X488780Y128541D01*
X488508Y127526D01*
Y126474D01*
X488780Y125459D01*
X489305Y124549D01*
X490049Y123805D01*
X490959Y123280D01*
X491974Y123008D01*
X492026D01*
X492196Y122881D01*
X492888Y121433D01*
X492545Y120992D01*
X491974D01*
X490959Y120720D01*
X490049Y120194D01*
X489305Y119451D01*
X488780Y118541D01*
X488508Y117526D01*
Y116474D01*
X488780Y115459D01*
X489305Y114549D01*
X490049Y113805D01*
X490959Y113280D01*
X491974Y113008D01*
X492026D01*
X492196Y112881D01*
X492888Y111433D01*
X492545Y110992D01*
X491974D01*
X490959Y110720D01*
X490049Y110195D01*
X489305Y109451D01*
X488780Y108541D01*
X488508Y107526D01*
Y106474D01*
X488780Y105459D01*
X489305Y104549D01*
X490049Y103805D01*
X490959Y103280D01*
X491974Y103008D01*
X493026D01*
X494041Y103280D01*
X494951Y103805D01*
X495694Y104549D01*
X496220Y105459D01*
X496492Y106474D01*
Y107526D01*
X496424Y107779D01*
X525321Y136676D01*
X525321Y136676D01*
X525803Y137397D01*
X525972Y138248D01*
X525972Y138249D01*
Y140358D01*
X526075D01*
Y147083D01*
X520925D01*
Y140358D01*
X520925D01*
X521138Y138783D01*
X497864Y115509D01*
X496561Y116261D01*
X496492Y117118D01*
Y117526D01*
X496446Y117699D01*
X496438Y117793D01*
X518073Y139427D01*
X518073Y139427D01*
X518555Y140149D01*
X518724Y141000D01*
X518724Y141000D01*
Y190110D01*
X524070Y195457D01*
X526075D01*
Y202181D01*
D02*
G37*
G36*
X298296Y141587D02*
X296704D01*
X295141Y141276D01*
X293670Y140666D01*
X292345Y139781D01*
X291219Y138655D01*
X290334Y137330D01*
X289724Y135859D01*
X289413Y134297D01*
Y132703D01*
X289724Y131141D01*
X290334Y129670D01*
X291219Y128345D01*
X292345Y127219D01*
X293670Y126334D01*
X295141Y125724D01*
X296704Y125413D01*
X298296D01*
X299859Y125724D01*
X301330Y126334D01*
X302655Y127219D01*
X303781Y128345D01*
X304666Y129670D01*
X305276Y131141D01*
X305587Y132703D01*
Y134297D01*
X305276Y135859D01*
X304666Y137330D01*
X303781Y138655D01*
X302655Y139781D01*
X301330Y140666D01*
X299859Y141276D01*
X298296Y141587D01*
D02*
G37*
G36*
X409796Y140587D02*
X408204D01*
X406641Y140276D01*
X405169Y139666D01*
X403845Y138781D01*
X402719Y137655D01*
X401834Y136330D01*
X401224Y134859D01*
X400913Y133297D01*
Y131703D01*
X401224Y130141D01*
X401834Y128670D01*
X402719Y127345D01*
X403845Y126219D01*
X405169Y125334D01*
X406641Y124724D01*
X408204Y124413D01*
X409796D01*
X411359Y124724D01*
X412830Y125334D01*
X414155Y126219D01*
X415281Y127345D01*
X416166Y128670D01*
X416776Y130141D01*
X417087Y131703D01*
Y133297D01*
X416776Y134859D01*
X416166Y136330D01*
X415281Y137655D01*
X414155Y138781D01*
X412830Y139666D01*
X411359Y140276D01*
X409796Y140587D01*
D02*
G37*
G36*
X433026Y130992D02*
X431974D01*
X430959Y130720D01*
X430049Y130194D01*
X429306Y129451D01*
X428780Y128541D01*
X428508Y127526D01*
Y126474D01*
X428780Y125459D01*
X429306Y124549D01*
X430049Y123805D01*
X430959Y123280D01*
X431974Y123008D01*
X433026D01*
X434041Y123280D01*
X434951Y123805D01*
X435695Y124549D01*
X436220Y125459D01*
X436492Y126474D01*
Y127526D01*
X436220Y128541D01*
X435695Y129451D01*
X434951Y130194D01*
X434041Y130720D01*
X433026Y130992D01*
D02*
G37*
G36*
X526197Y119504D02*
X524122D01*
Y116642D01*
X526197D01*
Y119504D01*
D02*
G37*
G36*
X523122D02*
X521047D01*
Y116642D01*
X523122D01*
Y119504D01*
D02*
G37*
G36*
X433026Y120992D02*
X431974D01*
X430959Y120720D01*
X430049Y120194D01*
X429306Y119451D01*
X428780Y118541D01*
X428508Y117526D01*
Y116474D01*
X428780Y115459D01*
X429306Y114549D01*
X430049Y113805D01*
X430959Y113280D01*
X431974Y113008D01*
X433026D01*
X434041Y113280D01*
X434951Y113805D01*
X435695Y114549D01*
X436220Y115459D01*
X436492Y116474D01*
Y117526D01*
X436220Y118541D01*
X435695Y119451D01*
X434951Y120194D01*
X434041Y120720D01*
X433026Y120992D01*
D02*
G37*
G36*
X526197Y115642D02*
X524122D01*
Y112780D01*
X526197D01*
Y115642D01*
D02*
G37*
G36*
X523122D02*
X521047D01*
Y112780D01*
X523122D01*
Y115642D01*
D02*
G37*
G36*
X433026Y110992D02*
X433000D01*
Y107500D01*
X436492D01*
Y107526D01*
X436220Y108541D01*
X435695Y109451D01*
X434951Y110195D01*
X434041Y110720D01*
X433026Y110992D01*
D02*
G37*
G36*
X432000D02*
X431974D01*
X430959Y110720D01*
X430049Y110195D01*
X429306Y109451D01*
X428780Y108541D01*
X428508Y107526D01*
Y107500D01*
X432000D01*
Y110992D01*
D02*
G37*
G36*
X436492Y106500D02*
X433000D01*
Y103008D01*
X433026D01*
X434041Y103280D01*
X434951Y103805D01*
X435695Y104549D01*
X436220Y105459D01*
X436492Y106474D01*
Y106500D01*
D02*
G37*
G36*
X432000D02*
X428508D01*
Y106474D01*
X428780Y105459D01*
X429306Y104549D01*
X430049Y103805D01*
X430959Y103280D01*
X431974Y103008D01*
X432000D01*
Y106500D01*
D02*
G37*
G36*
X382500Y128097D02*
X382331Y128075D01*
X382161D01*
X381997Y128031D01*
X381828Y128008D01*
X381671Y127943D01*
X381506Y127899D01*
X381359Y127814D01*
X381202Y127749D01*
X381066Y127646D01*
X380919Y127560D01*
X380799Y127440D01*
X380664Y127336D01*
X356164Y102836D01*
X355751Y102298D01*
X355491Y101672D01*
X355403Y101000D01*
Y55953D01*
X349000D01*
Y48047D01*
X367000D01*
Y55953D01*
X360597D01*
Y99924D01*
X382500Y121827D01*
X409164Y95164D01*
X409701Y94751D01*
X410328Y94491D01*
X411000Y94403D01*
X428508D01*
Y93008D01*
X436492D01*
Y100992D01*
X428508D01*
Y99597D01*
X412076D01*
X384336Y127336D01*
X384201Y127440D01*
X384081Y127560D01*
X383934Y127646D01*
X383799Y127749D01*
X383641Y127814D01*
X383494Y127899D01*
X383329Y127943D01*
X383172Y128008D01*
X383003Y128031D01*
X382839Y128075D01*
X382669D01*
X382500Y128097D01*
D02*
G37*
G36*
X496492Y100992D02*
X488508D01*
Y93008D01*
X496492D01*
Y94776D01*
X515071D01*
X521047Y88800D01*
Y85220D01*
X526197D01*
Y91945D01*
X524192D01*
X517564Y98572D01*
X516843Y99054D01*
X515992Y99224D01*
X515992Y99224D01*
X496492D01*
Y100992D01*
D02*
G37*
G36*
X337083Y61421D02*
X337000D01*
Y56000D01*
X342421D01*
Y56083D01*
X342194Y57227D01*
X341747Y58305D01*
X341099Y59275D01*
X340275Y60099D01*
X339305Y60747D01*
X338227Y61194D01*
X337083Y61421D01*
D02*
G37*
G36*
X336000D02*
X335917D01*
X334773Y61194D01*
X333695Y60747D01*
X332725Y60099D01*
X331901Y59275D01*
X331253Y58305D01*
X330806Y57227D01*
X330579Y56083D01*
Y56000D01*
X336000D01*
Y61421D01*
D02*
G37*
G36*
X397547Y55987D02*
X393000D01*
Y52500D01*
X401468D01*
X401398Y53032D01*
X401000Y53993D01*
X400366Y54819D01*
X399541Y55453D01*
X398579Y55851D01*
X397547Y55987D01*
D02*
G37*
G36*
X392000D02*
X387453D01*
X386421Y55851D01*
X385459Y55453D01*
X384634Y54819D01*
X384000Y53993D01*
X383602Y53032D01*
X383532Y52500D01*
X392000D01*
Y55987D01*
D02*
G37*
G36*
X342421Y55000D02*
X337000D01*
Y49579D01*
X337083D01*
X338227Y49806D01*
X339305Y50253D01*
X340275Y50901D01*
X341099Y51725D01*
X341747Y52695D01*
X342194Y53773D01*
X342421Y54917D01*
Y55000D01*
D02*
G37*
G36*
X336000D02*
X330579D01*
Y54917D01*
X330806Y53773D01*
X331253Y52695D01*
X331901Y51725D01*
X332725Y50901D01*
X333695Y50253D01*
X334773Y49806D01*
X335917Y49579D01*
X336000D01*
Y55000D01*
D02*
G37*
G36*
X401468Y51500D02*
X393000D01*
Y48013D01*
X397547D01*
X398579Y48149D01*
X399541Y48547D01*
X400366Y49181D01*
X401000Y50007D01*
X401398Y50968D01*
X401468Y51500D01*
D02*
G37*
G36*
X392000D02*
X383532D01*
X383602Y50968D01*
X384000Y50007D01*
X384634Y49181D01*
X385459Y48547D01*
X386421Y48149D01*
X387453Y48013D01*
X392000D01*
Y51500D01*
D02*
G37*
G36*
X504505Y38087D02*
X502912D01*
X501350Y37776D01*
X499878Y37166D01*
X498554Y36281D01*
X497427Y35155D01*
X496542Y33830D01*
X495933Y32359D01*
X495622Y30797D01*
Y29204D01*
X495933Y27641D01*
X496542Y26169D01*
X497427Y24845D01*
X498554Y23719D01*
X499878Y22834D01*
X501350Y22224D01*
X502912Y21913D01*
X504505D01*
X506067Y22224D01*
X507539Y22834D01*
X508864Y23719D01*
X509990Y24845D01*
X510875Y26169D01*
X511484Y27641D01*
X511795Y29204D01*
Y30797D01*
X511484Y32359D01*
X510875Y33830D01*
X509990Y35155D01*
X508864Y36281D01*
X507539Y37166D01*
X506067Y37776D01*
X504505Y38087D01*
D02*
G37*
G36*
X434214D02*
X432621D01*
X431059Y37776D01*
X429587Y37166D01*
X428262Y36281D01*
X427136Y35155D01*
X426251Y33830D01*
X425641Y32359D01*
X425331Y30797D01*
Y29204D01*
X425641Y27641D01*
X426251Y26169D01*
X427136Y24845D01*
X428262Y23719D01*
X429587Y22834D01*
X431059Y22224D01*
X432621Y21913D01*
X434214D01*
X435776Y22224D01*
X437248Y22834D01*
X438572Y23719D01*
X439699Y24845D01*
X440584Y26169D01*
X441193Y27641D01*
X441504Y29204D01*
Y30797D01*
X441193Y32359D01*
X440584Y33830D01*
X439699Y35155D01*
X438572Y36281D01*
X437248Y37166D01*
X435776Y37776D01*
X434214Y38087D01*
D02*
G37*
G36*
X324345Y49243D02*
X323179D01*
X322035Y49015D01*
X320957Y48569D01*
X319988Y47921D01*
X319163Y47096D01*
X318515Y46126D01*
X318069Y45049D01*
X317841Y43905D01*
Y42739D01*
X318069Y41594D01*
X318515Y40517D01*
X319163Y39547D01*
X319988Y38722D01*
X320957Y38074D01*
X322035Y37628D01*
X323179Y37400D01*
X324345D01*
X325489Y37628D01*
X325537Y37648D01*
X351022Y12164D01*
X351559Y11751D01*
X352186Y11491D01*
X352858Y11403D01*
X362985D01*
X363563Y10824D01*
X364468Y10302D01*
X365477Y10031D01*
X366523D01*
X367532Y10302D01*
X368437Y10824D01*
X369176Y11563D01*
X369698Y12468D01*
X369969Y13477D01*
Y14523D01*
X369698Y15532D01*
X369176Y16437D01*
X368437Y17176D01*
X367532Y17698D01*
X366523Y17968D01*
X365477D01*
X364468Y17698D01*
X363563Y17176D01*
X362985Y16597D01*
X353934D01*
X329304Y41227D01*
X329456Y41594D01*
X329683Y42739D01*
Y43905D01*
X329456Y45049D01*
X329010Y46126D01*
X328362Y47096D01*
X327537Y47921D01*
X326567Y48569D01*
X325489Y49015D01*
X324345Y49243D01*
D02*
G37*
%LPD*%
G36*
X473811Y213492D02*
Y213221D01*
X477272D01*
Y212221D01*
X473811D01*
Y210933D01*
Y208374D01*
Y205815D01*
Y203031D01*
X472236Y202909D01*
X465828Y209317D01*
X466919Y210440D01*
X467506Y210101D01*
X468000Y209968D01*
Y212500D01*
X468500D01*
Y213000D01*
X471032D01*
X470899Y213494D01*
X470560Y214081D01*
X470359Y214282D01*
X470304Y214609D01*
X471284Y216016D01*
X473811D01*
Y213492D01*
D02*
G37*
%LPC*%
G36*
X471032Y212000D02*
X469000D01*
Y209968D01*
X469494Y210101D01*
X470081Y210440D01*
X470560Y210919D01*
X470899Y211506D01*
X471032Y212000D01*
D02*
G37*
G36*
X78000Y75032D02*
Y73000D01*
X80032D01*
X79899Y73494D01*
X79560Y74081D01*
X79081Y74560D01*
X78494Y74899D01*
X78000Y75032D01*
D02*
G37*
G36*
X77000D02*
X76506Y74899D01*
X75919Y74560D01*
X75440Y74081D01*
X75101Y73494D01*
X74968Y73000D01*
X77000D01*
Y75032D01*
D02*
G37*
G36*
X80032Y72000D02*
X78000D01*
Y69968D01*
X78494Y70101D01*
X79081Y70440D01*
X79560Y70919D01*
X79899Y71506D01*
X80032Y72000D01*
D02*
G37*
G36*
X77000D02*
X74968D01*
X75101Y71506D01*
X75440Y70919D01*
X75919Y70440D01*
X76506Y70101D01*
X77000Y69968D01*
Y72000D01*
D02*
G37*
%LPD*%
D21*
X341500Y370500D02*
D03*
Y356500D02*
D03*
D22*
X327500Y362500D02*
D03*
Y353500D02*
D03*
D23*
X34500Y113000D02*
D03*
X43500D02*
D03*
X34500Y123500D02*
D03*
X19500Y163000D02*
D03*
X32500Y280500D02*
D03*
X41500Y271000D02*
D03*
X20500Y191500D02*
D03*
X63000Y309500D02*
D03*
X54000D02*
D03*
X32500Y271000D02*
D03*
X41500Y280500D02*
D03*
X54500Y84000D02*
D03*
X63500D02*
D03*
X54500Y74000D02*
D03*
X63500D02*
D03*
X43500Y123500D02*
D03*
X28500Y163000D02*
D03*
X29000Y152500D02*
D03*
X20000D02*
D03*
X20500Y202500D02*
D03*
X11500D02*
D03*
Y191500D02*
D03*
X19500Y241500D02*
D03*
X19500Y231000D02*
D03*
X63000Y319500D02*
D03*
X28500Y241500D02*
D03*
X507500Y280500D02*
D03*
Y298500D02*
D03*
Y289500D02*
D03*
X54000Y319500D02*
D03*
X516500Y289500D02*
D03*
Y280500D02*
D03*
Y298500D02*
D03*
X28500Y231000D02*
D03*
D24*
X477272Y215280D02*
D03*
Y225516D02*
D03*
X448728Y222957D02*
D03*
Y207602D02*
D03*
X477272Y212720D02*
D03*
Y217839D02*
D03*
Y210161D02*
D03*
Y205043D02*
D03*
Y207602D02*
D03*
Y222957D02*
D03*
Y220398D02*
D03*
Y199925D02*
D03*
Y202484D02*
D03*
Y228075D02*
D03*
X448728Y199925D02*
D03*
Y202484D02*
D03*
Y210161D02*
D03*
Y212720D02*
D03*
Y228075D02*
D03*
Y225516D02*
D03*
Y220398D02*
D03*
Y217839D02*
D03*
Y215280D02*
D03*
Y205043D02*
D03*
D25*
X523622Y116142D02*
D03*
X523500Y171280D02*
D03*
Y226378D02*
D03*
Y198819D02*
D03*
X523622Y88583D02*
D03*
X523500Y143720D02*
D03*
D26*
X391016Y370079D02*
D03*
X392500Y52000D02*
D03*
D27*
X510715Y330602D02*
D03*
X516295D02*
D03*
X516285Y318398D02*
D03*
X510715D02*
D03*
D28*
X356516Y370079D02*
D03*
X358000Y52000D02*
D03*
D47*
X61438Y297938D02*
G03*
X47319Y252570I399417J-149186D01*
G01*
X43957Y252875D02*
G03*
X43957Y252863I3362J-12D01*
G01*
X43957Y252875D02*
G03*
X43957Y252863I3362J-12D01*
G01*
X61438Y297938D02*
G03*
X47319Y252570I399417J-149186D01*
G01*
X444087Y218707D02*
X445450Y217344D01*
X448500Y211500D02*
X453000D01*
X448986Y98600D02*
Y201500D01*
X47319Y242984D02*
Y252570D01*
X61438Y297938D02*
X72500Y309000D01*
X50559Y240267D02*
X424200D01*
X49658D02*
X50559D01*
X43957Y252863D02*
X43957Y247974D01*
X45396Y239104D02*
X47638Y236862D01*
X44706Y239794D02*
X45396Y239104D01*
X20000Y128281D02*
Y153281D01*
X11500Y161782D02*
Y192281D01*
X34500Y94000D02*
Y113781D01*
X30569Y239931D02*
X40500Y230000D01*
X32500Y271000D02*
X40431Y278931D01*
X19826Y220338D02*
X23338D01*
X28500Y225500D01*
X32000Y212000D02*
X35500Y208500D01*
X19500Y212000D02*
X32000D01*
X35500Y176000D02*
Y208500D01*
X19349Y211849D02*
X19500Y212000D01*
X17849Y211849D02*
X19349D01*
X12287Y206287D02*
X17849Y211849D01*
X463000Y209000D02*
Y228000D01*
X465000Y230000D02*
X476500D01*
X463000Y228000D02*
X465000Y230000D01*
X476500D02*
X477500Y229000D01*
X239822Y187087D02*
X412587D01*
X48913Y154913D02*
X221913D01*
X220521Y158276D02*
X242607Y180362D01*
X425862D01*
X241215Y183724D02*
X419224D01*
X244000Y177000D02*
X432500D01*
X219128Y161638D02*
X241215Y183724D01*
X40521Y158276D02*
X220521D01*
X45107Y161638D02*
X219128D01*
X221913Y154913D02*
X244000Y177000D01*
X217735Y165000D02*
X239822Y187087D01*
X46500Y165000D02*
X217735D01*
X35500Y176000D02*
X46500Y165000D01*
X27000Y172000D02*
X34745D01*
X45107Y161638D01*
X34500Y152255D02*
X40521Y158276D01*
X43500Y149500D02*
X48913Y154913D01*
X34500Y123500D02*
Y134500D01*
Y152255D01*
X43500Y133000D02*
Y149500D01*
Y133000D02*
X50000Y126500D01*
Y100000D02*
Y126500D01*
Y100000D02*
X54500Y95500D01*
Y84000D02*
Y95500D01*
X412587Y187087D02*
X432500Y207000D01*
X425862Y180362D02*
X432500Y187000D01*
X419224Y183724D02*
X432500Y197000D01*
X26993Y171993D02*
X27000Y172000D01*
X34500Y113781D02*
X42650Y121931D01*
X42713D01*
X72500Y309000D02*
Y324500D01*
X43957Y252875D02*
Y254256D01*
X50769Y279753D01*
Y280731D01*
X47319Y242984D02*
X47761Y242367D01*
X43957Y241591D02*
Y247974D01*
X50077Y281423D02*
X50769Y280731D01*
X41000Y290500D02*
X50077Y281423D01*
X47761Y242367D02*
X48274Y241651D01*
X43957Y241591D02*
X44706Y239794D01*
X27151Y250849D02*
X28151D01*
X45500Y233500D02*
X416000D01*
X28151Y250849D02*
X45500Y233500D01*
X27000Y251000D02*
X27151Y250849D01*
X48274Y241651D02*
X49658Y240267D01*
X47638Y236862D02*
X422638D01*
X424200Y240267D02*
X424670Y240220D01*
X425127Y240127D01*
X432500Y237000D01*
X58219Y324500D02*
X72500D01*
X422638Y236862D02*
X432500Y227000D01*
X416000Y233500D02*
X432500Y217000D01*
X19500Y163000D02*
X20003Y163502D01*
X24493Y171993D02*
X26993D01*
X20003Y163502D02*
Y167503D01*
X24493Y171993D01*
X54000Y320281D02*
X58219Y324500D01*
X54000Y319500D02*
Y320281D01*
X32500Y280500D02*
X33253Y281253D01*
Y284753D01*
X38849Y290349D02*
X40849D01*
X33253Y284753D02*
X38849Y290349D01*
X40849D02*
X41000Y290500D01*
X13500Y251219D02*
X32500Y270219D01*
X13500Y237782D02*
Y251219D01*
X40713Y278931D02*
X41500Y279719D01*
X40431Y278931D02*
X40713D01*
X41500Y279719D02*
Y280500D01*
X29628Y275569D02*
X36473D01*
X32500Y270219D02*
Y271000D01*
X19500Y241500D02*
X20287Y242287D01*
Y244287D01*
X26849Y250849D01*
X12287Y203287D02*
Y206287D01*
X11500Y202500D02*
X12287Y203287D01*
X7000Y196000D02*
Y217718D01*
X19500Y230219D01*
X63500Y65335D02*
Y74000D01*
X34500Y94000D02*
X52931Y75569D01*
X54500Y74000D02*
Y74781D01*
X52931Y75569D02*
X53713D01*
X54500Y74781D01*
X62150Y82431D01*
X7000Y196000D02*
X9931Y193069D01*
X28350Y292967D02*
X44884Y309500D01*
X28350Y276847D02*
X29628Y275569D01*
X44884Y309500D02*
X54000D01*
X28350Y276847D02*
Y292967D01*
X28500Y225500D02*
Y231000D01*
X43500Y103000D02*
Y113000D01*
X20000Y128281D02*
X34500Y113781D01*
X29000Y152500D02*
X29000D01*
X29000Y142000D02*
Y152500D01*
X11500Y161782D02*
X20000Y153281D01*
X20500Y180500D02*
Y191500D01*
X10713Y193069D02*
X11500Y192281D01*
X9931Y193069D02*
X10713D01*
X19500Y230219D02*
Y231000D01*
X28500Y240719D02*
X29287Y239931D01*
X30569D01*
X28500Y240719D02*
Y241500D01*
X13500Y237782D02*
X19500Y231781D01*
X34000Y260000D02*
X34151Y260151D01*
Y262869D01*
X41500Y270219D01*
Y271000D01*
X63000Y308719D02*
Y309500D01*
X55651Y301369D02*
X63000Y308719D01*
X55651Y298651D02*
Y301369D01*
X55500Y298500D02*
X55651Y298651D01*
X54000Y310281D02*
X61650Y317931D01*
X62213D01*
X43500Y122719D02*
Y123500D01*
X42713Y121931D02*
X43500Y122719D01*
X63000Y318719D02*
Y319500D01*
X62213Y317931D02*
X63000Y318719D01*
X27713Y239931D02*
X28500Y240719D01*
X27650Y239931D02*
X27713D01*
X19500Y231781D02*
X27650Y239931D01*
X19713Y201713D02*
X20500Y202500D01*
X19713Y200494D02*
Y201713D01*
X11500Y192281D02*
X19713Y200494D01*
X63500Y83219D02*
Y84000D01*
X62713Y82431D02*
X63500Y83219D01*
X62150Y82431D02*
X62713D01*
X27713Y162213D02*
X28500Y163000D01*
X27713Y160994D02*
Y162213D01*
X20000Y153281D02*
X27713Y160994D01*
X492500Y117000D02*
X516500Y141000D01*
Y191031D01*
X523500Y198031D01*
Y198819D01*
X492500Y97000D02*
X515992D01*
X523622Y89370D01*
Y88583D02*
Y89370D01*
X523748Y138248D02*
Y143555D01*
X492500Y107000D02*
X523748Y138248D01*
X463000Y209000D02*
X470972Y201028D01*
X413386Y63000D02*
X448986Y98600D01*
X423386Y63000D02*
X456500Y96114D01*
Y208000D01*
X453000Y211500D02*
X456500Y208000D01*
X422500Y331500D02*
X424043Y329957D01*
Y326457D02*
Y329957D01*
X448728Y228075D02*
Y301772D01*
X424043Y326457D02*
X448728Y301772D01*
X412500Y331500D02*
X444087Y299913D01*
Y226384D02*
Y299913D01*
Y218707D02*
Y226384D01*
X448728Y226500D02*
Y228075D01*
D48*
X516500Y298000D02*
Y318183D01*
X470972Y201028D02*
X472075Y199925D01*
X474676Y201000D02*
X475598Y201923D01*
Y202484D01*
X470972Y201028D02*
X471000Y201000D01*
X445450Y217344D02*
X447514Y215280D01*
X468500Y225500D02*
X468516Y225516D01*
X477272D01*
X475598Y228075D02*
X477272D01*
X468500Y218000D02*
X468661Y217839D01*
X477272D01*
Y215280D02*
X483780D01*
X484000Y215500D01*
X468720Y212720D02*
X477272D01*
X468500Y212500D02*
X468720Y212720D01*
X492500Y287000D02*
Y313500D01*
X507701Y328701D02*
X509730D01*
X492500Y313500D02*
X507701Y328701D01*
X510715Y329685D02*
Y330602D01*
X509730Y328701D02*
X510715Y329685D01*
X485661Y210161D02*
X492500Y217000D01*
X477272Y210161D02*
X485661D01*
X507500Y172000D02*
Y280500D01*
X492500Y157000D02*
X507500Y172000D01*
X477272Y205043D02*
X477287Y205028D01*
X492500Y197000D02*
Y198193D01*
X485666Y205028D02*
X492500Y198193D01*
X477287Y205028D02*
X485666D01*
X499500Y184000D02*
Y290500D01*
X492500Y177000D02*
X499500Y184000D01*
Y290500D02*
X507500Y298500D01*
X477272Y207602D02*
X491898D01*
X492500Y207000D01*
X481528Y222981D02*
X484123D01*
X486500Y225359D02*
Y235000D01*
X484123Y222981D02*
X486500Y225359D01*
Y235000D02*
X488289Y236789D01*
X492289D01*
X492500Y237000D01*
X477272Y222957D02*
X481504D01*
X481528Y222981D01*
X492500Y167000D02*
X503000Y177500D01*
Y285000D02*
X507500Y289500D01*
X503000Y177500D02*
Y285000D01*
X477272Y220398D02*
X485898D01*
X492500Y227000D01*
X511699Y294301D02*
Y317413D01*
X510715Y318398D02*
X511699Y317413D01*
Y294301D02*
X516500Y289500D01*
X523000Y287782D02*
Y322717D01*
X516500Y281281D02*
X523000Y287782D01*
X516295Y329421D02*
X523000Y322717D01*
X516500Y280500D02*
Y281281D01*
X516295Y329421D02*
Y330602D01*
X516285Y318398D02*
X516500Y318183D01*
X472075Y199925D02*
X477272D01*
X471000Y201000D02*
X474676D01*
X475598Y202484D02*
X477272D01*
X448728Y210161D02*
Y211272D01*
X448500Y211500D02*
X448728Y211272D01*
X448500Y211500D02*
Y212500D01*
X444087Y218707D02*
X444955Y217839D01*
X448728D01*
X447514Y215280D02*
X448728D01*
D49*
X411000Y97000D02*
X432500D01*
X382500Y125500D02*
X411000Y97000D01*
X327750Y362500D02*
X328675Y363425D01*
X327500Y362500D02*
X327750D01*
X328675Y363425D02*
Y363675D01*
X335500Y370500D01*
X341500D01*
X343000D01*
X463000Y91500D02*
Y209000D01*
X396000Y24500D02*
X463000Y91500D01*
X375843Y14000D02*
X386343Y24500D01*
X396000D01*
X343000Y370079D02*
X356516D01*
X361563D01*
X396000Y272000D02*
Y335642D01*
X361563Y370079D02*
X396000Y335642D01*
X358000Y52000D02*
Y101000D01*
X382500Y125500D01*
X352858Y14000D02*
X366000D01*
X323929Y42929D02*
X352858Y14000D01*
D50*
X503709Y30000D02*
D03*
X433417D02*
D03*
X432882Y363500D02*
D03*
X503173D02*
D03*
X409000Y132500D02*
D03*
X297500Y133500D02*
D03*
X409000Y259500D02*
D03*
X298000D02*
D03*
D51*
X503500Y36000D02*
D03*
X507500Y34500D02*
D03*
X499500Y34000D02*
D03*
X509520Y30000D02*
D03*
X504000Y24500D02*
D03*
X499500Y26000D02*
D03*
X507500D02*
D03*
X498000Y30000D02*
D03*
X433209Y36000D02*
D03*
X437209Y34500D02*
D03*
X429209Y34000D02*
D03*
X439228Y30000D02*
D03*
X433709Y24500D02*
D03*
X429209Y26000D02*
D03*
X437209D02*
D03*
X427709Y30000D02*
D03*
X433091Y357500D02*
D03*
X429091Y359000D02*
D03*
X437091Y359500D02*
D03*
X427071Y363500D02*
D03*
X432591Y369000D02*
D03*
X437091Y367500D02*
D03*
X429091D02*
D03*
X438591Y363500D02*
D03*
X503382Y357500D02*
D03*
X499382Y359000D02*
D03*
X507382Y359500D02*
D03*
X497362Y363500D02*
D03*
X502882Y369000D02*
D03*
X507382Y367500D02*
D03*
X499382D02*
D03*
X508882Y363500D02*
D03*
D52*
X336500Y55500D02*
D03*
X323762Y43322D02*
D03*
X75000Y215370D02*
D03*
Y176000D02*
D03*
D53*
X409000Y265500D02*
D03*
X415000Y259500D02*
D03*
X409000Y253500D02*
D03*
X413500Y263500D02*
D03*
Y255500D02*
D03*
X404500D02*
D03*
X403000Y259500D02*
D03*
X404500Y263500D02*
D03*
X409000Y138500D02*
D03*
X413500Y136500D02*
D03*
X304000Y259500D02*
D03*
X298000Y253500D02*
D03*
X302500Y263500D02*
D03*
X292000Y259500D02*
D03*
X293500Y263500D02*
D03*
X302500Y255500D02*
D03*
X293500D02*
D03*
X298000Y265500D02*
D03*
X303500Y133500D02*
D03*
X297500Y127500D02*
D03*
X302000Y137500D02*
D03*
X291500Y133500D02*
D03*
X293000Y137500D02*
D03*
X302000Y129500D02*
D03*
X293000D02*
D03*
X297500Y139500D02*
D03*
X415000Y132500D02*
D03*
X409000Y126500D02*
D03*
X403000Y132500D02*
D03*
X404500Y136500D02*
D03*
X413500Y128500D02*
D03*
X404500D02*
D03*
D54*
X492500Y97000D02*
D03*
X432500D02*
D03*
D55*
X492500Y107000D02*
D03*
Y117000D02*
D03*
Y127000D02*
D03*
Y137000D02*
D03*
Y147000D02*
D03*
Y157000D02*
D03*
Y167000D02*
D03*
Y177000D02*
D03*
Y187000D02*
D03*
Y197000D02*
D03*
Y207000D02*
D03*
Y217000D02*
D03*
Y227000D02*
D03*
Y237000D02*
D03*
Y247000D02*
D03*
Y257000D02*
D03*
Y267000D02*
D03*
Y277000D02*
D03*
Y287000D02*
D03*
X432500Y107000D02*
D03*
Y117000D02*
D03*
Y127000D02*
D03*
Y137000D02*
D03*
Y147000D02*
D03*
Y157000D02*
D03*
Y167000D02*
D03*
Y177000D02*
D03*
Y217000D02*
D03*
Y227000D02*
D03*
Y257000D02*
D03*
Y267000D02*
D03*
Y277000D02*
D03*
Y287000D02*
D03*
Y207000D02*
D03*
Y247000D02*
D03*
Y187000D02*
D03*
Y197000D02*
D03*
Y237000D02*
D03*
D56*
X375843Y14000D02*
D03*
X366000D02*
D03*
X385685D02*
D03*
D57*
X413386Y63000D02*
D03*
X422500Y331500D02*
D03*
D58*
X423386Y63000D02*
D03*
X412500Y331500D02*
D03*
D59*
X19826Y220338D02*
D03*
X19500Y212000D02*
D03*
X468500Y225500D02*
D03*
Y218000D02*
D03*
X313500Y209000D02*
D03*
X54500Y95500D02*
D03*
X34500Y134500D02*
D03*
X27000Y172000D02*
D03*
X72500Y324500D02*
D03*
X41000Y290500D02*
D03*
X27000Y251000D02*
D03*
X63500Y65335D02*
D03*
X77500Y72500D02*
D03*
X43500Y103000D02*
D03*
X29000Y142000D02*
D03*
X20500Y180500D02*
D03*
X484000Y215500D02*
D03*
X468500Y212500D02*
D03*
X34000Y260000D02*
D03*
X55500Y298500D02*
D03*
X40500Y230000D02*
D03*
X396000Y272000D02*
D03*
X382500Y125500D02*
D03*
M02*
