G04*
G04 #@! TF.GenerationSoftware,Altium Limited,Altium Designer,25.5.2 (35)*
G04*
G04 Layer_Color=8421504*
%FSLAX25Y25*%
%MOIN*%
G70*
G04*
G04 #@! TF.SameCoordinates,3A6C04F0-8456-4D88-A865-9B6E00D0E649*
G04*
G04*
G04 #@! TF.FilePolarity,Positive*
G04*
G01*
G75*
%ADD21R,0.06000X0.06000*%
%ADD22R,0.05500X0.05000*%
%ADD23R,0.03937X0.05500*%
%ADD24R,0.04921X0.01575*%
%ADD25R,0.03150X0.04724*%
%ADD26O,0.16000X0.05906*%
%ADD27R,0.03543X0.05906*%
%ADD28R,0.16000X0.05906*%
D21*
X341500Y370500D02*
D03*
Y356500D02*
D03*
D22*
X327500Y362500D02*
D03*
Y353500D02*
D03*
D23*
X34500Y113000D02*
D03*
X43500D02*
D03*
X34500Y123500D02*
D03*
X19500Y163000D02*
D03*
X32500Y280500D02*
D03*
X41500Y271000D02*
D03*
X20500Y191500D02*
D03*
X63000Y309500D02*
D03*
X54000D02*
D03*
X32500Y271000D02*
D03*
X41500Y280500D02*
D03*
X54500Y84000D02*
D03*
X63500D02*
D03*
X54500Y74000D02*
D03*
X63500D02*
D03*
X43500Y123500D02*
D03*
X28500Y163000D02*
D03*
X29000Y152500D02*
D03*
X20000D02*
D03*
X20500Y202500D02*
D03*
X11500D02*
D03*
Y191500D02*
D03*
X19500Y241500D02*
D03*
X19500Y231000D02*
D03*
X63000Y319500D02*
D03*
X28500Y241500D02*
D03*
X507500Y280500D02*
D03*
Y298500D02*
D03*
Y289500D02*
D03*
X54000Y319500D02*
D03*
X516500Y289500D02*
D03*
Y280500D02*
D03*
Y298500D02*
D03*
X28500Y231000D02*
D03*
D24*
X477272Y215280D02*
D03*
Y225516D02*
D03*
X448728Y222957D02*
D03*
Y207602D02*
D03*
X477272Y212720D02*
D03*
Y217839D02*
D03*
Y210161D02*
D03*
Y205043D02*
D03*
Y207602D02*
D03*
Y222957D02*
D03*
Y220398D02*
D03*
Y199925D02*
D03*
Y202484D02*
D03*
Y228075D02*
D03*
X448728Y199925D02*
D03*
Y202484D02*
D03*
Y210161D02*
D03*
Y212720D02*
D03*
Y228075D02*
D03*
Y225516D02*
D03*
Y220398D02*
D03*
Y217839D02*
D03*
Y215280D02*
D03*
Y205043D02*
D03*
D25*
X523622Y116142D02*
D03*
X523500Y171280D02*
D03*
Y226378D02*
D03*
Y198819D02*
D03*
X523622Y88583D02*
D03*
X523500Y143720D02*
D03*
D26*
X391016Y370079D02*
D03*
X392500Y52000D02*
D03*
D27*
X510715Y330602D02*
D03*
X516295D02*
D03*
X516285Y318398D02*
D03*
X510715D02*
D03*
D28*
X356516Y370079D02*
D03*
X358000Y52000D02*
D03*
M02*
