G04*
G04 #@! TF.GenerationSoftware,Altium Limited,Altium Designer,25.5.2 (35)*
G04*
G04 Layer_Color=128*
%FSLAX25Y25*%
%MOIN*%
G70*
G04*
G04 #@! TF.SameCoordinates,3A6C04F0-8456-4D88-A865-9B6E00D0E649*
G04*
G04*
G04 #@! TF.FilePolarity,Positive*
G04*
G01*
G75*
%ADD14C,0.00500*%
D14*
X499181Y30000D02*
X508236D01*
X503709Y25472D02*
Y34528D01*
X503106Y36000D02*
X503894D01*
X503500Y35606D02*
Y36394D01*
X507106Y34500D02*
X507894D01*
X507500Y34106D02*
Y34894D01*
X499106Y34000D02*
X499894D01*
X499500Y33606D02*
Y34394D01*
X509126Y30000D02*
X509913D01*
X509520Y29606D02*
Y30394D01*
X503606Y24500D02*
X504394D01*
X504000Y24106D02*
Y24894D01*
X499106Y26000D02*
X499894D01*
X499500Y25606D02*
Y26394D01*
X507106Y26000D02*
X507894D01*
X507500Y25606D02*
Y26394D01*
X497606Y30000D02*
X498394D01*
X498000Y29606D02*
Y30394D01*
X428890Y30000D02*
X437945D01*
X433417Y25472D02*
Y34528D01*
X432815Y36000D02*
X433602D01*
X433209Y35606D02*
Y36394D01*
X436815Y34500D02*
X437602D01*
X437209Y34106D02*
Y34894D01*
X428815Y34000D02*
X429602D01*
X429209Y33606D02*
Y34394D01*
X438835Y30000D02*
X439622D01*
X439228Y29606D02*
Y30394D01*
X433315Y24500D02*
X434102D01*
X433709Y24106D02*
Y24894D01*
X428815Y26000D02*
X429602D01*
X429209Y25606D02*
Y26394D01*
X436815Y26000D02*
X437602D01*
X437209Y25606D02*
Y26394D01*
X427315Y30000D02*
X428102D01*
X427709Y29606D02*
Y30394D01*
X333547Y55500D02*
X339453D01*
X336500Y52547D02*
Y58453D01*
X320810Y43322D02*
X326715D01*
X323762Y40369D02*
Y46274D01*
X71063Y215370D02*
X78937D01*
X75000Y211433D02*
Y219307D01*
X428354Y363500D02*
X437409D01*
X432882Y358972D02*
Y368028D01*
X432697Y357500D02*
X433484D01*
X433091Y357106D02*
Y357894D01*
X428697Y359000D02*
X429484D01*
X429091Y358606D02*
Y359394D01*
X436697Y359500D02*
X437484D01*
X437091Y359106D02*
Y359894D01*
X426677Y363500D02*
X427464D01*
X427071Y363106D02*
Y363894D01*
X432197Y369000D02*
X432984D01*
X432591Y368606D02*
Y369394D01*
X436697Y367500D02*
X437484D01*
X437091Y367106D02*
Y367894D01*
X428697Y367500D02*
X429484D01*
X429091Y367106D02*
Y367894D01*
X438197Y363500D02*
X438984D01*
X438591Y363106D02*
Y363894D01*
X498646Y363500D02*
X507701D01*
X503173Y358972D02*
Y368028D01*
X502988Y357500D02*
X503776D01*
X503382Y357106D02*
Y357894D01*
X498988Y359000D02*
X499776D01*
X499382Y358606D02*
Y359394D01*
X506988Y359500D02*
X507775D01*
X507382Y359106D02*
Y359894D01*
X496969Y363500D02*
X497756D01*
X497362Y363106D02*
Y363894D01*
X502488Y369000D02*
X503275D01*
X502882Y368606D02*
Y369394D01*
X506988Y367500D02*
X507775D01*
X507382Y367106D02*
Y367894D01*
X498988Y367500D02*
X499776D01*
X499382Y367106D02*
Y367894D01*
X508488Y363500D02*
X509275D01*
X508882Y363106D02*
Y363894D01*
X71063Y176000D02*
X78937D01*
X75000Y172063D02*
Y179937D01*
X404472Y132500D02*
X413528D01*
X409000Y127972D02*
Y137028D01*
X292972Y133500D02*
X302028D01*
X297500Y128972D02*
Y138028D01*
X408410Y265500D02*
X409590D01*
X409000Y264910D02*
Y266090D01*
X414409Y259500D02*
X415590D01*
X415000Y258910D02*
Y260090D01*
X408410Y253500D02*
X409590D01*
X409000Y252909D02*
Y254090D01*
X412910Y263500D02*
X414090D01*
X413500Y262910D02*
Y264090D01*
X412910Y255500D02*
X414090D01*
X413500Y254909D02*
Y256090D01*
X403909Y255500D02*
X405091D01*
X404500Y254909D02*
Y256090D01*
X404472Y259500D02*
X413528D01*
X409000Y254972D02*
Y264028D01*
X402410Y259500D02*
X403590D01*
X403000Y258910D02*
Y260090D01*
X403909Y263500D02*
X405091D01*
X404500Y262910D02*
Y264090D01*
X408410Y138500D02*
X409590D01*
X409000Y137909D02*
Y139091D01*
X412910Y136500D02*
X414090D01*
X413500Y135909D02*
Y137091D01*
X303410Y259500D02*
X304591D01*
X304000Y258910D02*
Y260090D01*
X297410Y253500D02*
X298590D01*
X298000Y252909D02*
Y254090D01*
X301909Y263500D02*
X303091D01*
X302500Y262910D02*
Y264090D01*
X291409Y259500D02*
X292590D01*
X292000Y258910D02*
Y260090D01*
X292910Y263500D02*
X294091D01*
X293500Y262910D02*
Y264090D01*
X301909Y255500D02*
X303091D01*
X302500Y254909D02*
Y256090D01*
X292910Y255500D02*
X294091D01*
X293500Y254909D02*
Y256090D01*
X297410Y265500D02*
X298590D01*
X298000Y264910D02*
Y266090D01*
X293472Y259500D02*
X302528D01*
X298000Y254972D02*
Y264028D01*
X302909Y133500D02*
X304090D01*
X303500Y132909D02*
Y134091D01*
X296909Y127500D02*
X298091D01*
X297500Y126909D02*
Y128091D01*
X301410Y137500D02*
X302590D01*
X302000Y136909D02*
Y138091D01*
X290910Y133500D02*
X292091D01*
X291500Y132909D02*
Y134091D01*
X292409Y137500D02*
X293590D01*
X293000Y136909D02*
Y138091D01*
X301410Y129500D02*
X302590D01*
X302000Y128909D02*
Y130091D01*
X292409Y129500D02*
X293590D01*
X293000Y128909D02*
Y130091D01*
X296909Y139500D02*
X298091D01*
X297500Y138909D02*
Y140091D01*
X414409Y132500D02*
X415590D01*
X415000Y131909D02*
Y133091D01*
X408410Y126500D02*
X409590D01*
X409000Y125909D02*
Y127091D01*
X402410Y132500D02*
X403590D01*
X403000Y131909D02*
Y133091D01*
X403909Y136500D02*
X405091D01*
X404500Y135909D02*
Y137091D01*
X412910Y128500D02*
X414090D01*
X413500Y127909D02*
Y129091D01*
X403909Y128500D02*
X405091D01*
X404500Y127909D02*
Y129091D01*
X490492Y97000D02*
X494508D01*
X492500Y94992D02*
Y99008D01*
X490492Y107000D02*
X494508D01*
X492500Y104992D02*
Y109008D01*
X490492Y117000D02*
X494508D01*
X492500Y114992D02*
Y119008D01*
X490492Y127000D02*
X494508D01*
X492500Y124992D02*
Y129008D01*
X490492Y137000D02*
X494508D01*
X492500Y134992D02*
Y139008D01*
X490492Y147000D02*
X494508D01*
X492500Y144992D02*
Y149008D01*
X490492Y157000D02*
X494508D01*
X492500Y154992D02*
Y159008D01*
X490492Y167000D02*
X494508D01*
X492500Y164992D02*
Y169008D01*
X490492Y177000D02*
X494508D01*
X492500Y174992D02*
Y179008D01*
X490492Y187000D02*
X494508D01*
X492500Y184992D02*
Y189008D01*
X490492Y197000D02*
X494508D01*
X492500Y194992D02*
Y199008D01*
X490492Y207000D02*
X494508D01*
X492500Y204992D02*
Y209008D01*
X490492Y217000D02*
X494508D01*
X492500Y214992D02*
Y219008D01*
X490492Y227000D02*
X494508D01*
X492500Y224992D02*
Y229008D01*
X490492Y237000D02*
X494508D01*
X492500Y234992D02*
Y239008D01*
X490492Y247000D02*
X494508D01*
X492500Y244992D02*
Y249008D01*
X490492Y257000D02*
X494508D01*
X492500Y254992D02*
Y259008D01*
X490492Y267000D02*
X494508D01*
X492500Y264992D02*
Y269008D01*
X490492Y277000D02*
X494508D01*
X492500Y274992D02*
Y279008D01*
X490492Y287000D02*
X494508D01*
X492500Y284992D02*
Y289008D01*
X430492Y107000D02*
X434508D01*
X432500Y104992D02*
Y109008D01*
X430492Y117000D02*
X434508D01*
X432500Y114992D02*
Y119008D01*
X430492Y127000D02*
X434508D01*
X432500Y124992D02*
Y129008D01*
X430492Y137000D02*
X434508D01*
X432500Y134992D02*
Y139008D01*
X430492Y147000D02*
X434508D01*
X432500Y144992D02*
Y149008D01*
X430492Y157000D02*
X434508D01*
X432500Y154992D02*
Y159008D01*
X430492Y167000D02*
X434508D01*
X432500Y164992D02*
Y169008D01*
X430492Y177000D02*
X434508D01*
X432500Y174992D02*
Y179008D01*
X430492Y217000D02*
X434508D01*
X432500Y214992D02*
Y219008D01*
X430492Y227000D02*
X434508D01*
X432500Y224992D02*
Y229008D01*
X430492Y257000D02*
X434508D01*
X432500Y254992D02*
Y259008D01*
X430492Y267000D02*
X434508D01*
X432500Y264992D02*
Y269008D01*
X430492Y277000D02*
X434508D01*
X432500Y274992D02*
Y279008D01*
X430492Y287000D02*
X434508D01*
X432500Y284992D02*
Y289008D01*
X430492Y207000D02*
X434508D01*
X432500Y204992D02*
Y209008D01*
X430492Y247000D02*
X434508D01*
X432500Y244992D02*
Y249008D01*
X430492Y187000D02*
X434508D01*
X432500Y184992D02*
Y189008D01*
X430492Y197000D02*
X434508D01*
X432500Y194992D02*
Y199008D01*
X430492Y97000D02*
X434508D01*
X432500Y94992D02*
Y99008D01*
X430492Y237000D02*
X434508D01*
X432500Y234992D02*
Y239008D01*
X373874Y14000D02*
X377811D01*
X375843Y12032D02*
Y15969D01*
X411811Y63000D02*
X414961D01*
X413386Y61425D02*
Y64575D01*
X421811Y63000D02*
X424961D01*
X423386Y61425D02*
Y64575D01*
X364032Y14000D02*
X367969D01*
X366000Y12032D02*
Y15969D01*
X383717Y14000D02*
X387653D01*
X385685Y12032D02*
Y15969D01*
X420925Y331500D02*
X424075D01*
X422500Y329925D02*
Y333075D01*
X410925Y331500D02*
X414075D01*
X412500Y329925D02*
Y333075D01*
X19038Y220338D02*
X20613D01*
X19826Y219550D02*
Y221125D01*
X18713Y212000D02*
X20287D01*
X19500Y211213D02*
Y212787D01*
X467713Y225500D02*
X469287D01*
X468500Y224713D02*
Y226287D01*
X467713Y218000D02*
X469287D01*
X468500Y217213D02*
Y218787D01*
X312713Y209000D02*
X314287D01*
X313500Y208213D02*
Y209787D01*
X53713Y95500D02*
X55287D01*
X54500Y94713D02*
Y96287D01*
X33713Y134500D02*
X35287D01*
X34500Y133713D02*
Y135287D01*
X26213Y172000D02*
X27787D01*
X27000Y171213D02*
Y172787D01*
X71713Y324500D02*
X73287D01*
X72500Y323713D02*
Y325287D01*
X40213Y290500D02*
X41787D01*
X41000Y289713D02*
Y291287D01*
X26213Y251000D02*
X27787D01*
X27000Y250213D02*
Y251787D01*
X62713Y65335D02*
X64287D01*
X63500Y64547D02*
Y66122D01*
X76713Y72500D02*
X78287D01*
X77500Y71713D02*
Y73287D01*
X42713Y103000D02*
X44287D01*
X43500Y102213D02*
Y103787D01*
X28213Y142000D02*
X29787D01*
X29000Y141213D02*
Y142787D01*
X19713Y180500D02*
X21287D01*
X20500Y179713D02*
Y181287D01*
X483213Y215500D02*
X484787D01*
X484000Y214713D02*
Y216287D01*
X467713Y212500D02*
X469287D01*
X468500Y211713D02*
Y213287D01*
X33213Y260000D02*
X34787D01*
X34000Y259213D02*
Y260787D01*
X54713Y298500D02*
X56287D01*
X55500Y297713D02*
Y299287D01*
X39713Y230000D02*
X41287D01*
X40500Y229213D02*
Y230787D01*
X395213Y272000D02*
X396787D01*
X396000Y271213D02*
Y272787D01*
X381713Y125500D02*
X383287D01*
X382500Y124713D02*
Y126287D01*
M02*
